%TF.GenerationSoftware,KiCad,Pcbnew,9.0.7-9.0.7~ubuntu24.04.1*%
%TF.CreationDate,2026-03-08T22:16:55+02:00*%
%TF.ProjectId,cc2500_dev_board,63633235-3030-45f6-9465-765f626f6172,rev?*%
%TF.SameCoordinates,Original*%
%TF.FileFunction,Soldermask,Bot*%
%TF.FilePolarity,Negative*%
%FSLAX46Y46*%
G04 Gerber Fmt 4.6, Leading zero omitted, Abs format (unit mm)*
G04 Created by KiCad (PCBNEW 9.0.7-9.0.7~ubuntu24.04.1) date 2026-03-08 22:16:55*
%MOMM*%
%LPD*%
G01*
G04 APERTURE LIST*
%ADD10R,1.700000X1.700000*%
%ADD11C,1.700000*%
%ADD12C,0.600000*%
%ADD13O,1.104000X2.204000*%
%ADD14O,1.104000X1.904000*%
G04 APERTURE END LIST*
D10*
%TO.C,J6*%
X161200000Y-100820000D03*
D11*
X161200000Y-98280000D03*
X161200000Y-95740000D03*
X161200000Y-93200000D03*
X161200000Y-90660000D03*
X161200000Y-88120000D03*
X161200000Y-85580000D03*
X161200000Y-83040000D03*
X161200000Y-80500000D03*
X161200000Y-77960000D03*
X161200000Y-75420000D03*
X161200000Y-72880000D03*
X161200000Y-70340000D03*
X161200000Y-67800000D03*
X161200000Y-65260000D03*
X161200000Y-62720000D03*
%TD*%
D10*
%TO.C,J1*%
X131600000Y-64460000D03*
D11*
X131600000Y-67000000D03*
X131600000Y-69540000D03*
%TD*%
D10*
%TO.C,J7*%
X127320000Y-73600000D03*
D11*
X129860000Y-73600000D03*
X132400000Y-73600000D03*
%TD*%
D12*
%TO.C,J3*%
X142840000Y-64880000D03*
X137060000Y-64880000D03*
D13*
X144275000Y-65370000D03*
X135625000Y-65370000D03*
D14*
X144275000Y-61200000D03*
X135625000Y-61200000D03*
%TD*%
D10*
%TO.C,J5*%
X118550000Y-62720000D03*
D11*
X118550000Y-65260000D03*
X118550000Y-67800000D03*
X118550000Y-70340000D03*
X118550000Y-72880000D03*
X118550000Y-75420000D03*
X118550000Y-77960000D03*
X118550000Y-80500000D03*
X118550000Y-83040000D03*
X118550000Y-85580000D03*
X118550000Y-88120000D03*
X118550000Y-90660000D03*
X118550000Y-93200000D03*
X118550000Y-95740000D03*
X118550000Y-98280000D03*
X118550000Y-100820000D03*
%TD*%
D10*
%TO.C,J2*%
X127600000Y-64525000D03*
D11*
X127600000Y-67065000D03*
%TD*%
D10*
%TO.C,J4*%
X151210000Y-83300000D03*
D11*
X148670000Y-83300000D03*
X146130000Y-83300000D03*
X143590000Y-83300000D03*
%TD*%
M02*
