M48
; DRILL file {KiCad 9.0.7-9.0.7~ubuntu24.04.1} date 2026-03-08T22:16:52+0200
; FORMAT={-:-/ absolute / metric / decimal}
; #@! TF.CreationDate,2026-03-08T22:16:52+02:00
; #@! TF.GenerationSoftware,Kicad,Pcbnew,9.0.7-9.0.7~ubuntu24.04.1
; #@! TF.FileFunction,MixedPlating,1,4
FMAT,2
METRIC
; #@! TA.AperFunction,Plated,PTH,ViaDrill
T1C0.200
; #@! TA.AperFunction,Plated,PTH,ComponentDrill
T2C0.600
; #@! TA.AperFunction,Plated,PTH,ComponentDrill
T3C1.000
; #@! TA.AperFunction,NonPlated,NPTH,ComponentDrill
T4C0.600
%
G90
G05
T1
X117.15Y-108.95
X119.1Y-108.95
X121.35Y-109.0
X123.5Y-109.0
X125.05Y-87.25
X125.75Y-109.0
X127.05Y-89.15
X127.65Y-87.5
X127.7Y-91.9
X127.75Y-109.0
X129.7Y-109.0
X130.95Y-104.3
X131.6Y-109.0
X133.4Y-91.95
X133.45Y-91.15
X133.45Y-109.0
X134.02Y-86.42
X135.05Y-101.7
X135.05Y-103.45
X135.45Y-83.7
X135.45Y-87.35
X135.45Y-109.0
X136.2Y-85.2
X136.3Y-67.4
X136.45Y-100.6
X136.5Y-105.45
X136.5Y-106.4
X136.65Y-104.0
X137.25Y-109.0
X137.3Y-108.0
X138.2Y-98.3
X138.25Y-92.45
X138.4Y-88.6
X138.525Y-96.95
X139.07Y-98.25
X139.322Y-88.591
X139.35Y-90.65
X139.46Y-92.74
X139.725Y-97.024
X140.05Y-70.15
X140.15Y-72.25
X140.225Y-102.65
X140.35Y-88.618
X140.385Y-92.665
X140.5Y-85.35
X140.7Y-90.65
X141.425Y-88.625
X141.435Y-92.665
X141.5Y-77.6
X141.897Y-85.281
X142.1Y-99.65
X142.15Y-90.65
X142.4Y-92.7
X142.65Y-85.55
X142.65Y-88.7
X142.8Y-106.9
X142.8Y-107.9
X142.8Y-108.95
X143.0Y-97.8
X143.15Y-78.95
X143.15Y-104.05
X143.8Y-67.5
X144.3Y-97.0
X144.45Y-106.05
X144.75Y-108.95
X144.9Y-77.6
X145.1Y-101.55
X145.1Y-102.5
X145.15Y-104.85
X145.8Y-103.65
X145.9Y-72.2
X146.1Y-70.2
X146.131Y-94.453
X146.3Y-86.65
X146.826Y-94.057
X147.0Y-109.0
X147.2Y-88.46
X149.15Y-109.0
X151.4Y-109.0
X153.4Y-109.0
X155.35Y-109.0
X156.95Y-89.5
X157.0Y-86.85
X157.25Y-109.0
X158.6Y-97.05
X158.6Y-99.6
X158.75Y-94.5
X158.8Y-92.05
X159.1Y-109.0
X161.1Y-109.0
X162.9Y-109.0
T3
X118.55Y-62.72
X118.55Y-65.26
X118.55Y-67.8
X118.55Y-70.34
X118.55Y-72.88
X118.55Y-75.42
X118.55Y-77.96
X118.55Y-80.5
X118.55Y-83.04
X118.55Y-85.58
X118.55Y-88.12
X118.55Y-90.66
X118.55Y-93.2
X118.55Y-95.74
X118.55Y-98.28
X118.55Y-100.82
X127.32Y-73.6
X127.6Y-64.525
X127.6Y-67.065
X129.86Y-73.6
X131.6Y-64.46
X131.6Y-67.0
X131.6Y-69.54
X132.4Y-73.6
X143.59Y-83.3
X146.13Y-83.3
X148.67Y-83.3
X151.21Y-83.3
X161.2Y-62.72
X161.2Y-65.26
X161.2Y-67.8
X161.2Y-70.34
X161.2Y-72.88
X161.2Y-75.42
X161.2Y-77.96
X161.2Y-80.5
X161.2Y-83.04
X161.2Y-85.58
X161.2Y-88.12
X161.2Y-90.66
X161.2Y-93.2
X161.2Y-95.74
X161.2Y-98.28
X161.2Y-100.82
T4
X137.06Y-64.88
X142.84Y-64.88
T2
G00X135.625Y-61.6
M15
G01X135.625Y-60.8
M16
G05
G00X135.625Y-65.92
M15
G01X135.625Y-64.82
M16
G05
G00X144.275Y-61.6
M15
G01X144.275Y-60.8
M16
G05
G00X144.275Y-65.92
M15
G01X144.275Y-64.82
M16
G05
M30
