%TF.GenerationSoftware,KiCad,Pcbnew,9.0.7-9.0.7~ubuntu24.04.1*%
%TF.CreationDate,2026-03-08T22:16:55+02:00*%
%TF.ProjectId,cc2500_dev_board,63633235-3030-45f6-9465-765f626f6172,rev?*%
%TF.SameCoordinates,Original*%
%TF.FileFunction,Soldermask,Top*%
%TF.FilePolarity,Negative*%
%FSLAX46Y46*%
G04 Gerber Fmt 4.6, Leading zero omitted, Abs format (unit mm)*
G04 Created by KiCad (PCBNEW 9.0.7-9.0.7~ubuntu24.04.1) date 2026-03-08 22:16:55*
%MOMM*%
%LPD*%
G01*
G04 APERTURE LIST*
G04 Aperture macros list*
%AMRoundRect*
0 Rectangle with rounded corners*
0 $1 Rounding radius*
0 $2 $3 $4 $5 $6 $7 $8 $9 X,Y pos of 4 corners*
0 Add a 4 corners polygon primitive as box body*
4,1,4,$2,$3,$4,$5,$6,$7,$8,$9,$2,$3,0*
0 Add four circle primitives for the rounded corners*
1,1,$1+$1,$2,$3*
1,1,$1+$1,$4,$5*
1,1,$1+$1,$6,$7*
1,1,$1+$1,$8,$9*
0 Add four rect primitives between the rounded corners*
20,1,$1+$1,$2,$3,$4,$5,0*
20,1,$1+$1,$4,$5,$6,$7,0*
20,1,$1+$1,$6,$7,$8,$9,0*
20,1,$1+$1,$8,$9,$2,$3,0*%
%AMFreePoly0*
4,1,17,0.359954,2.682520,0.397008,2.631520,0.402000,2.600000,0.402000,-0.500000,0.382520,-0.559954,0.331520,-0.597008,0.300000,-0.602000,-0.300000,-0.602000,-0.359954,-0.582520,-0.397008,-0.531520,-0.402000,-0.500000,-0.402000,2.600000,-0.382520,2.659954,-0.331520,2.697008,-0.300000,2.702000,0.300000,2.702000,0.359954,2.682520,0.359954,2.682520,$1*%
G04 Aperture macros list end*
%ADD10C,0.010000*%
%ADD11RoundRect,0.135000X-0.135000X-0.185000X0.135000X-0.185000X0.135000X0.185000X-0.135000X0.185000X0*%
%ADD12RoundRect,0.250000X0.475000X-0.250000X0.475000X0.250000X-0.475000X0.250000X-0.475000X-0.250000X0*%
%ADD13RoundRect,0.140000X0.170000X-0.140000X0.170000X0.140000X-0.170000X0.140000X-0.170000X-0.140000X0*%
%ADD14RoundRect,0.140000X0.140000X0.170000X-0.140000X0.170000X-0.140000X-0.170000X0.140000X-0.170000X0*%
%ADD15RoundRect,0.140000X-0.170000X0.140000X-0.170000X-0.140000X0.170000X-0.140000X0.170000X0.140000X0*%
%ADD16RoundRect,0.140000X-0.140000X-0.170000X0.140000X-0.170000X0.140000X0.170000X-0.140000X0.170000X0*%
%ADD17RoundRect,0.225000X-0.225000X-0.250000X0.225000X-0.250000X0.225000X0.250000X-0.225000X0.250000X0*%
%ADD18R,1.700000X1.700000*%
%ADD19C,1.700000*%
%ADD20RoundRect,0.250000X-0.350000X0.450000X-0.350000X-0.450000X0.350000X-0.450000X0.350000X0.450000X0*%
%ADD21FreePoly0,180.000000*%
%ADD22RoundRect,0.135000X0.135000X0.185000X-0.135000X0.185000X-0.135000X-0.185000X0.135000X-0.185000X0*%
%ADD23RoundRect,0.250000X-0.250000X-0.475000X0.250000X-0.475000X0.250000X0.475000X-0.250000X0.475000X0*%
%ADD24C,0.600000*%
%ADD25O,1.104000X2.204000*%
%ADD26O,1.104000X1.904000*%
%ADD27RoundRect,0.062500X-0.062500X0.425000X-0.062500X-0.425000X0.062500X-0.425000X0.062500X0.425000X0*%
%ADD28RoundRect,0.062500X-0.425000X0.062500X-0.425000X-0.062500X0.425000X-0.062500X0.425000X0.062500X0*%
%ADD29R,2.400000X2.400000*%
%ADD30RoundRect,0.102000X-0.647700X0.711200X-0.647700X-0.711200X0.647700X-0.711200X0.647700X0.711200X0*%
%ADD31RoundRect,0.375000X0.625000X0.375000X-0.625000X0.375000X-0.625000X-0.375000X0.625000X-0.375000X0*%
%ADD32RoundRect,0.500000X0.500000X1.400000X-0.500000X1.400000X-0.500000X-1.400000X0.500000X-1.400000X0*%
%ADD33RoundRect,0.102000X0.675000X0.900000X-0.675000X0.900000X-0.675000X-0.900000X0.675000X-0.900000X0*%
%ADD34RoundRect,0.075000X-0.662500X-0.075000X0.662500X-0.075000X0.662500X0.075000X-0.662500X0.075000X0*%
%ADD35RoundRect,0.075000X-0.075000X-0.662500X0.075000X-0.662500X0.075000X0.662500X-0.075000X0.662500X0*%
G04 APERTURE END LIST*
D10*
%TO.C,J3*%
X137100000Y-66570000D02*
X136400000Y-66570000D01*
X136400000Y-65330000D01*
X137100000Y-65330000D01*
X137100000Y-66570000D01*
G36*
X137100000Y-66570000D02*
G01*
X136400000Y-66570000D01*
X136400000Y-65330000D01*
X137100000Y-65330000D01*
X137100000Y-66570000D01*
G37*
X137900000Y-66570000D02*
X137200000Y-66570000D01*
X137200000Y-65330000D01*
X137900000Y-65330000D01*
X137900000Y-66570000D01*
G36*
X137900000Y-66570000D02*
G01*
X137200000Y-66570000D01*
X137200000Y-65330000D01*
X137900000Y-65330000D01*
X137900000Y-66570000D01*
G37*
X138400000Y-66570000D02*
X138000000Y-66570000D01*
X138000000Y-65330000D01*
X138400000Y-65330000D01*
X138400000Y-66570000D01*
G36*
X138400000Y-66570000D02*
G01*
X138000000Y-66570000D01*
X138000000Y-65330000D01*
X138400000Y-65330000D01*
X138400000Y-66570000D01*
G37*
X138900000Y-66570000D02*
X138500000Y-66570000D01*
X138500000Y-65330000D01*
X138900000Y-65330000D01*
X138900000Y-66570000D01*
G36*
X138900000Y-66570000D02*
G01*
X138500000Y-66570000D01*
X138500000Y-65330000D01*
X138900000Y-65330000D01*
X138900000Y-66570000D01*
G37*
X139400000Y-66570000D02*
X139000000Y-66570000D01*
X139000000Y-65330000D01*
X139400000Y-65330000D01*
X139400000Y-66570000D01*
G36*
X139400000Y-66570000D02*
G01*
X139000000Y-66570000D01*
X139000000Y-65330000D01*
X139400000Y-65330000D01*
X139400000Y-66570000D01*
G37*
X139900000Y-66570000D02*
X139500000Y-66570000D01*
X139500000Y-65330000D01*
X139900000Y-65330000D01*
X139900000Y-66570000D01*
G36*
X139900000Y-66570000D02*
G01*
X139500000Y-66570000D01*
X139500000Y-65330000D01*
X139900000Y-65330000D01*
X139900000Y-66570000D01*
G37*
X140400000Y-66570000D02*
X140000000Y-66570000D01*
X140000000Y-65330000D01*
X140400000Y-65330000D01*
X140400000Y-66570000D01*
G36*
X140400000Y-66570000D02*
G01*
X140000000Y-66570000D01*
X140000000Y-65330000D01*
X140400000Y-65330000D01*
X140400000Y-66570000D01*
G37*
X140900000Y-66570000D02*
X140500000Y-66570000D01*
X140500000Y-65330000D01*
X140900000Y-65330000D01*
X140900000Y-66570000D01*
G36*
X140900000Y-66570000D02*
G01*
X140500000Y-66570000D01*
X140500000Y-65330000D01*
X140900000Y-65330000D01*
X140900000Y-66570000D01*
G37*
X141400000Y-66570000D02*
X141000000Y-66570000D01*
X141000000Y-65330000D01*
X141400000Y-65330000D01*
X141400000Y-66570000D01*
G36*
X141400000Y-66570000D02*
G01*
X141000000Y-66570000D01*
X141000000Y-65330000D01*
X141400000Y-65330000D01*
X141400000Y-66570000D01*
G37*
X141900000Y-66570000D02*
X141500000Y-66570000D01*
X141500000Y-65330000D01*
X141900000Y-65330000D01*
X141900000Y-66570000D01*
G36*
X141900000Y-66570000D02*
G01*
X141500000Y-66570000D01*
X141500000Y-65330000D01*
X141900000Y-65330000D01*
X141900000Y-66570000D01*
G37*
X142700000Y-66570000D02*
X142000000Y-66570000D01*
X142000000Y-65330000D01*
X142700000Y-65330000D01*
X142700000Y-66570000D01*
G36*
X142700000Y-66570000D02*
G01*
X142000000Y-66570000D01*
X142000000Y-65330000D01*
X142700000Y-65330000D01*
X142700000Y-66570000D01*
G37*
X143500000Y-66570000D02*
X142800000Y-66570000D01*
X142800000Y-65330000D01*
X143500000Y-65330000D01*
X143500000Y-66570000D01*
G36*
X143500000Y-66570000D02*
G01*
X142800000Y-66570000D01*
X142800000Y-65330000D01*
X143500000Y-65330000D01*
X143500000Y-66570000D01*
G37*
%TD*%
D11*
%TO.C,R2*%
X126690000Y-82800000D03*
X127710000Y-82800000D03*
%TD*%
D12*
%TO.C,C6*%
X145900000Y-75400000D03*
X145900000Y-73500000D03*
%TD*%
D13*
%TO.C,C5*%
X134300000Y-92060000D03*
X134300000Y-91100000D03*
%TD*%
D14*
%TO.C,C9*%
X133560000Y-106300000D03*
X132600000Y-106300000D03*
%TD*%
%TO.C,C18*%
X139460000Y-99100000D03*
X138500000Y-99100000D03*
%TD*%
D15*
%TO.C,C4*%
X146300000Y-87500000D03*
X146300000Y-88460000D03*
%TD*%
D16*
%TO.C,C19*%
X143295000Y-104875000D03*
X144255000Y-104875000D03*
%TD*%
D17*
%TO.C,C1*%
X136475000Y-83700000D03*
X138025000Y-83700000D03*
%TD*%
D13*
%TO.C,C2*%
X134700000Y-87380000D03*
X134700000Y-86420000D03*
%TD*%
D16*
%TO.C,C11*%
X128400000Y-87500000D03*
X129360000Y-87500000D03*
%TD*%
D18*
%TO.C,J6*%
X161200000Y-100820000D03*
D19*
X161200000Y-98280000D03*
X161200000Y-95740000D03*
X161200000Y-93200000D03*
X161200000Y-90660000D03*
X161200000Y-88120000D03*
X161200000Y-85580000D03*
X161200000Y-83040000D03*
X161200000Y-80500000D03*
X161200000Y-77960000D03*
X161200000Y-75420000D03*
X161200000Y-72880000D03*
X161200000Y-70340000D03*
X161200000Y-67800000D03*
X161200000Y-65260000D03*
X161200000Y-62720000D03*
%TD*%
D20*
%TO.C,Y1*%
X132150000Y-102100000D03*
X132150000Y-104300000D03*
X133850000Y-104300000D03*
X133850000Y-102100000D03*
%TD*%
D18*
%TO.C,J1*%
X131600000Y-64460000D03*
D19*
X131600000Y-67000000D03*
X131600000Y-69540000D03*
%TD*%
D16*
%TO.C,C10*%
X132620000Y-100000000D03*
X133580000Y-100000000D03*
%TD*%
D21*
%TO.C,A2*%
X141000000Y-107000000D03*
X138900000Y-107000000D03*
%TD*%
D16*
%TO.C,C20*%
X142520000Y-106100000D03*
X143480000Y-106100000D03*
%TD*%
D22*
%TO.C,R1*%
X144970000Y-103650000D03*
X143950000Y-103650000D03*
%TD*%
D18*
%TO.C,J7*%
X127320000Y-73600000D03*
D19*
X129860000Y-73600000D03*
X132400000Y-73600000D03*
%TD*%
D14*
%TO.C,C15*%
X136660000Y-103350000D03*
X135700000Y-103350000D03*
%TD*%
D22*
%TO.C,R3*%
X133510000Y-76800000D03*
X132490000Y-76800000D03*
%TD*%
D14*
%TO.C,C21*%
X143380000Y-97000000D03*
X142420000Y-97000000D03*
%TD*%
%TO.C,C13*%
X131880000Y-82800000D03*
X130920000Y-82800000D03*
%TD*%
D23*
%TO.C,C7*%
X142950000Y-70200000D03*
X144850000Y-70200000D03*
%TD*%
D16*
%TO.C,C12*%
X128520000Y-91900000D03*
X129480000Y-91900000D03*
%TD*%
D24*
%TO.C,J3*%
X142840000Y-64880000D03*
X137060000Y-64880000D03*
D25*
X144275000Y-65370000D03*
X135625000Y-65370000D03*
D26*
X144275000Y-61200000D03*
X135625000Y-61200000D03*
%TD*%
D27*
%TO.C,U1*%
X141225000Y-100762500D03*
X140725000Y-100762500D03*
X140225000Y-100762500D03*
X139725000Y-100762500D03*
X139225000Y-100762500D03*
D28*
X138337500Y-101650000D03*
X138337500Y-102150000D03*
X138337500Y-102650000D03*
X138337500Y-103150000D03*
X138337500Y-103650000D03*
D27*
X139225000Y-104537500D03*
X139725000Y-104537500D03*
X140225000Y-104537500D03*
X140725000Y-104537500D03*
X141225000Y-104537500D03*
D28*
X142112500Y-103650000D03*
X142112500Y-103150000D03*
X142112500Y-102650000D03*
X142112500Y-102150000D03*
X142112500Y-101650000D03*
D29*
X140225000Y-102650000D03*
%TD*%
D18*
%TO.C,J5*%
X118550000Y-62720000D03*
D19*
X118550000Y-65260000D03*
X118550000Y-67800000D03*
X118550000Y-70340000D03*
X118550000Y-72880000D03*
X118550000Y-75420000D03*
X118550000Y-77960000D03*
X118550000Y-80500000D03*
X118550000Y-83040000D03*
X118550000Y-85580000D03*
X118550000Y-88120000D03*
X118550000Y-90660000D03*
X118550000Y-93200000D03*
X118550000Y-95740000D03*
X118550000Y-98280000D03*
X118550000Y-100820000D03*
%TD*%
D18*
%TO.C,J2*%
X127600000Y-64525000D03*
D19*
X127600000Y-67065000D03*
%TD*%
D16*
%TO.C,C3*%
X137120000Y-85200000D03*
X138080000Y-85200000D03*
%TD*%
D30*
%TO.C,Y2*%
X130900000Y-88400000D03*
X130900000Y-90584400D03*
%TD*%
D31*
%TO.C,U3*%
X143150000Y-77600000D03*
X143150000Y-75300000D03*
D32*
X136850000Y-75300000D03*
D31*
X143150000Y-73000000D03*
%TD*%
D15*
%TO.C,C17*%
X137400000Y-105450000D03*
X137400000Y-106410000D03*
%TD*%
D18*
%TO.C,J4*%
X151210000Y-83300000D03*
D19*
X148670000Y-83300000D03*
X146130000Y-83300000D03*
X143590000Y-83300000D03*
%TD*%
D33*
%TO.C,SW1*%
X131275000Y-80400000D03*
X127125000Y-80400000D03*
%TD*%
D13*
%TO.C,C16*%
X144000000Y-102530000D03*
X144000000Y-101570000D03*
%TD*%
D14*
%TO.C,C8*%
X137360000Y-99800000D03*
X136400000Y-99800000D03*
%TD*%
D34*
%TO.C,U2*%
X136212500Y-88337500D03*
X136212500Y-88837500D03*
X136212500Y-89337500D03*
X136212500Y-89837500D03*
X136212500Y-90337500D03*
X136212500Y-90837500D03*
X136212500Y-91337500D03*
X136212500Y-91837500D03*
X136212500Y-92337500D03*
X136212500Y-92837500D03*
X136212500Y-93337500D03*
X136212500Y-93837500D03*
D35*
X137625000Y-95250000D03*
X138125000Y-95250000D03*
X138625000Y-95250000D03*
X139125000Y-95250000D03*
X139625000Y-95250000D03*
X140125000Y-95250000D03*
X140625000Y-95250000D03*
X141125000Y-95250000D03*
X141625000Y-95250000D03*
X142125000Y-95250000D03*
X142625000Y-95250000D03*
X143125000Y-95250000D03*
D34*
X144537500Y-93837500D03*
X144537500Y-93337500D03*
X144537500Y-92837500D03*
X144537500Y-92337500D03*
X144537500Y-91837500D03*
X144537500Y-91337500D03*
X144537500Y-90837500D03*
X144537500Y-90337500D03*
X144537500Y-89837500D03*
X144537500Y-89337500D03*
X144537500Y-88837500D03*
X144537500Y-88337500D03*
D35*
X143125000Y-86925000D03*
X142625000Y-86925000D03*
X142125000Y-86925000D03*
X141625000Y-86925000D03*
X141125000Y-86925000D03*
X140625000Y-86925000D03*
X140125000Y-86925000D03*
X139625000Y-86925000D03*
X139125000Y-86925000D03*
X138625000Y-86925000D03*
X138125000Y-86925000D03*
X137625000Y-86925000D03*
%TD*%
G36*
X139143039Y-109619685D02*
G01*
X139188794Y-109672489D01*
X139200000Y-109724000D01*
X139200000Y-116076000D01*
X139180315Y-116143039D01*
X139127511Y-116188794D01*
X139076000Y-116200000D01*
X118200000Y-116200000D01*
X118200000Y-117100000D01*
X161700000Y-117100000D01*
X161700000Y-116200000D01*
X140824000Y-116200000D01*
X140756961Y-116180315D01*
X140711206Y-116127511D01*
X140700000Y-116076000D01*
X140700000Y-109724000D01*
X140719685Y-109656961D01*
X140772489Y-109611206D01*
X140824000Y-109600000D01*
X141176000Y-109600000D01*
X141243039Y-109619685D01*
X141288794Y-109672489D01*
X141300000Y-109724000D01*
X141300000Y-115600000D01*
X162176000Y-115600000D01*
X162243039Y-115619685D01*
X162288794Y-115672489D01*
X162300000Y-115724000D01*
X162300000Y-117576000D01*
X162280315Y-117643039D01*
X162227511Y-117688794D01*
X162176000Y-117700000D01*
X117724000Y-117700000D01*
X117656961Y-117680315D01*
X117611206Y-117627511D01*
X117600000Y-117576000D01*
X117600000Y-115724000D01*
X117619685Y-115656961D01*
X117672489Y-115611206D01*
X117724000Y-115600000D01*
X138600000Y-115600000D01*
X138600000Y-109724000D01*
X138619685Y-109656961D01*
X138672489Y-109611206D01*
X138724000Y-109600000D01*
X139076000Y-109600000D01*
X139143039Y-109619685D01*
G37*
M02*
