%TF.GenerationSoftware,KiCad,Pcbnew,9.0.7-9.0.7~ubuntu24.04.1*%
%TF.CreationDate,2026-03-08T22:16:55+02:00*%
%TF.ProjectId,cc2500_dev_board,63633235-3030-45f6-9465-765f626f6172,rev?*%
%TF.SameCoordinates,Original*%
%TF.FileFunction,Copper,L1,Top*%
%TF.FilePolarity,Positive*%
%FSLAX46Y46*%
G04 Gerber Fmt 4.6, Leading zero omitted, Abs format (unit mm)*
G04 Created by KiCad (PCBNEW 9.0.7-9.0.7~ubuntu24.04.1) date 2026-03-08 22:16:55*
%MOMM*%
%LPD*%
G01*
G04 APERTURE LIST*
G04 Aperture macros list*
%AMRoundRect*
0 Rectangle with rounded corners*
0 $1 Rounding radius*
0 $2 $3 $4 $5 $6 $7 $8 $9 X,Y pos of 4 corners*
0 Add a 4 corners polygon primitive as box body*
4,1,4,$2,$3,$4,$5,$6,$7,$8,$9,$2,$3,0*
0 Add four circle primitives for the rounded corners*
1,1,$1+$1,$2,$3*
1,1,$1+$1,$4,$5*
1,1,$1+$1,$6,$7*
1,1,$1+$1,$8,$9*
0 Add four rect primitives between the rounded corners*
20,1,$1+$1,$2,$3,$4,$5,0*
20,1,$1+$1,$4,$5,$6,$7,0*
20,1,$1+$1,$6,$7,$8,$9,0*
20,1,$1+$1,$8,$9,$2,$3,0*%
%AMFreePoly0*
4,1,5,0.300000,-0.500000,-0.300000,-0.500000,-0.300000,2.600000,0.300000,2.600000,0.300000,-0.500000,0.300000,-0.500000,$1*%
G04 Aperture macros list end*
%TA.AperFunction,EtchedComponent*%
%ADD10C,0.000000*%
%TD*%
%TA.AperFunction,SMDPad,CuDef*%
%ADD11RoundRect,0.135000X-0.135000X-0.185000X0.135000X-0.185000X0.135000X0.185000X-0.135000X0.185000X0*%
%TD*%
%TA.AperFunction,SMDPad,CuDef*%
%ADD12RoundRect,0.250000X0.475000X-0.250000X0.475000X0.250000X-0.475000X0.250000X-0.475000X-0.250000X0*%
%TD*%
%TA.AperFunction,SMDPad,CuDef*%
%ADD13RoundRect,0.140000X0.170000X-0.140000X0.170000X0.140000X-0.170000X0.140000X-0.170000X-0.140000X0*%
%TD*%
%TA.AperFunction,SMDPad,CuDef*%
%ADD14RoundRect,0.140000X0.140000X0.170000X-0.140000X0.170000X-0.140000X-0.170000X0.140000X-0.170000X0*%
%TD*%
%TA.AperFunction,SMDPad,CuDef*%
%ADD15RoundRect,0.140000X-0.170000X0.140000X-0.170000X-0.140000X0.170000X-0.140000X0.170000X0.140000X0*%
%TD*%
%TA.AperFunction,SMDPad,CuDef*%
%ADD16RoundRect,0.140000X-0.140000X-0.170000X0.140000X-0.170000X0.140000X0.170000X-0.140000X0.170000X0*%
%TD*%
%TA.AperFunction,SMDPad,CuDef*%
%ADD17RoundRect,0.225000X-0.225000X-0.250000X0.225000X-0.250000X0.225000X0.250000X-0.225000X0.250000X0*%
%TD*%
%TA.AperFunction,ComponentPad*%
%ADD18R,1.700000X1.700000*%
%TD*%
%TA.AperFunction,ComponentPad*%
%ADD19C,1.700000*%
%TD*%
%TA.AperFunction,SMDPad,CuDef*%
%ADD20RoundRect,0.250000X-0.350000X0.450000X-0.350000X-0.450000X0.350000X-0.450000X0.350000X0.450000X0*%
%TD*%
%TA.AperFunction,SMDPad,CuDef*%
%ADD21FreePoly0,180.000000*%
%TD*%
%TA.AperFunction,SMDPad,CuDef*%
%ADD22RoundRect,0.135000X0.135000X0.185000X-0.135000X0.185000X-0.135000X-0.185000X0.135000X-0.185000X0*%
%TD*%
%TA.AperFunction,SMDPad,CuDef*%
%ADD23RoundRect,0.250000X-0.250000X-0.475000X0.250000X-0.475000X0.250000X0.475000X-0.250000X0.475000X0*%
%TD*%
%TA.AperFunction,SMDPad,CuDef*%
%ADD24R,0.600000X1.140000*%
%TD*%
%TA.AperFunction,SMDPad,CuDef*%
%ADD25R,0.300000X1.140000*%
%TD*%
%TA.AperFunction,ComponentPad*%
%ADD26O,0.900000X2.000000*%
%TD*%
%TA.AperFunction,ComponentPad*%
%ADD27O,0.900000X1.700000*%
%TD*%
%TA.AperFunction,SMDPad,CuDef*%
%ADD28RoundRect,0.062500X-0.062500X0.425000X-0.062500X-0.425000X0.062500X-0.425000X0.062500X0.425000X0*%
%TD*%
%TA.AperFunction,SMDPad,CuDef*%
%ADD29RoundRect,0.062500X-0.425000X0.062500X-0.425000X-0.062500X0.425000X-0.062500X0.425000X0.062500X0*%
%TD*%
%TA.AperFunction,HeatsinkPad*%
%ADD30R,2.400000X2.400000*%
%TD*%
%TA.AperFunction,SMDPad,CuDef*%
%ADD31R,1.295400X1.422400*%
%TD*%
%TA.AperFunction,SMDPad,CuDef*%
%ADD32RoundRect,0.375000X0.625000X0.375000X-0.625000X0.375000X-0.625000X-0.375000X0.625000X-0.375000X0*%
%TD*%
%TA.AperFunction,SMDPad,CuDef*%
%ADD33RoundRect,0.500000X0.500000X1.400000X-0.500000X1.400000X-0.500000X-1.400000X0.500000X-1.400000X0*%
%TD*%
%TA.AperFunction,SMDPad,CuDef*%
%ADD34R,1.350000X1.800000*%
%TD*%
%TA.AperFunction,SMDPad,CuDef*%
%ADD35RoundRect,0.075000X-0.662500X-0.075000X0.662500X-0.075000X0.662500X0.075000X-0.662500X0.075000X0*%
%TD*%
%TA.AperFunction,SMDPad,CuDef*%
%ADD36RoundRect,0.075000X-0.075000X-0.662500X0.075000X-0.662500X0.075000X0.662500X-0.075000X0.662500X0*%
%TD*%
%TA.AperFunction,ViaPad*%
%ADD37C,0.500000*%
%TD*%
%TA.AperFunction,Conductor*%
%ADD38C,0.200000*%
%TD*%
%TA.AperFunction,Conductor*%
%ADD39C,0.500000*%
%TD*%
%TA.AperFunction,Conductor*%
%ADD40C,0.300000*%
%TD*%
%TA.AperFunction,Conductor*%
%ADD41C,1.000000*%
%TD*%
G04 APERTURE END LIST*
D10*
%TA.AperFunction,EtchedComponent*%
%TO.C,A2*%
G36*
X139200000Y-116200000D02*
G01*
X118200000Y-116200000D01*
X118200000Y-117100000D01*
X161700000Y-117100000D01*
X161700000Y-116200000D01*
X140700000Y-116200000D01*
X140700000Y-109600000D01*
X141300000Y-109600000D01*
X141300000Y-115600000D01*
X162300000Y-115600000D01*
X162300000Y-117700000D01*
X117600000Y-117700000D01*
X117600000Y-115600000D01*
X138600000Y-115600000D01*
X138600000Y-109600000D01*
X139200000Y-109600000D01*
X139200000Y-116200000D01*
G37*
%TD.AperFunction*%
%TD*%
D11*
%TO.P,R2,1*%
%TO.N,Net-(R2-Pad1)*%
X126690000Y-82800000D03*
%TO.P,R2,2*%
%TO.N,GND*%
X127710000Y-82800000D03*
%TD*%
D12*
%TO.P,C6,1*%
%TO.N,VCC*%
X145900000Y-75400000D03*
%TO.P,C6,2*%
%TO.N,GND*%
X145900000Y-73500000D03*
%TD*%
D13*
%TO.P,C5,1*%
%TO.N,+3.3V*%
X134300000Y-92060000D03*
%TO.P,C5,2*%
%TO.N,GND*%
X134300000Y-91100000D03*
%TD*%
D14*
%TO.P,C9,1*%
%TO.N,/XOSC_Q2*%
X133560000Y-106300000D03*
%TO.P,C9,2*%
%TO.N,GND*%
X132600000Y-106300000D03*
%TD*%
%TO.P,C18,1*%
%TO.N,+3.3V*%
X139460000Y-99100000D03*
%TO.P,C18,2*%
%TO.N,GND*%
X138500000Y-99100000D03*
%TD*%
D15*
%TO.P,C4,1*%
%TO.N,+3.3V*%
X146300000Y-87500000D03*
%TO.P,C4,2*%
%TO.N,GND*%
X146300000Y-88460000D03*
%TD*%
D16*
%TO.P,C19,1*%
%TO.N,+3.3V*%
X143295000Y-104875000D03*
%TO.P,C19,2*%
%TO.N,GND*%
X144255000Y-104875000D03*
%TD*%
D17*
%TO.P,C1,1*%
%TO.N,+3.3V*%
X136475000Y-83700000D03*
%TO.P,C1,2*%
%TO.N,GND*%
X138025000Y-83700000D03*
%TD*%
D13*
%TO.P,C2,1*%
%TO.N,+3.3V*%
X134700000Y-87380000D03*
%TO.P,C2,2*%
%TO.N,GND*%
X134700000Y-86420000D03*
%TD*%
D16*
%TO.P,C11,1*%
%TO.N,GND*%
X128400000Y-87500000D03*
%TO.P,C11,2*%
%TO.N,/LSE_IN*%
X129360000Y-87500000D03*
%TD*%
D18*
%TO.P,J6,1,Pin_1*%
%TO.N,/PB14*%
X161200000Y-100820000D03*
D19*
%TO.P,J6,2,Pin_2*%
%TO.N,/PB15*%
X161200000Y-98280000D03*
%TO.P,J6,3,Pin_3*%
%TO.N,/PA8*%
X161200000Y-95740000D03*
%TO.P,J6,4,Pin_4*%
%TO.N,/PA9*%
X161200000Y-93200000D03*
%TO.P,J6,5,Pin_5*%
%TO.N,/PA10*%
X161200000Y-90660000D03*
%TO.P,J6,6,Pin_6*%
%TO.N,/PA11*%
X161200000Y-88120000D03*
%TO.P,J6,7,Pin_7*%
%TO.N,/PA12*%
X161200000Y-85580000D03*
%TO.P,J6,8,Pin_8*%
%TO.N,/PA15*%
X161200000Y-83040000D03*
%TO.P,J6,9,Pin_9*%
%TO.N,/PB3*%
X161200000Y-80500000D03*
%TO.P,J6,10,Pin_10*%
%TO.N,/PB4*%
X161200000Y-77960000D03*
%TO.P,J6,11,Pin_11*%
%TO.N,/PB5*%
X161200000Y-75420000D03*
%TO.P,J6,12,Pin_12*%
%TO.N,/PB6*%
X161200000Y-72880000D03*
%TO.P,J6,13,Pin_13*%
%TO.N,/PB7*%
X161200000Y-70340000D03*
%TO.P,J6,14,Pin_14*%
%TO.N,/PB8*%
X161200000Y-67800000D03*
%TO.P,J6,15,Pin_15*%
%TO.N,/PB9*%
X161200000Y-65260000D03*
%TO.P,J6,16,Pin_16*%
%TO.N,GND*%
X161200000Y-62720000D03*
%TD*%
D20*
%TO.P,Y1,1,1*%
%TO.N,/XOSC_Q1*%
X132150000Y-102100000D03*
%TO.P,Y1,2,G*%
%TO.N,GND*%
X132150000Y-104300000D03*
%TO.P,Y1,3,3*%
%TO.N,/XOSC_Q2*%
X133850000Y-104300000D03*
%TO.P,Y1,4,G*%
%TO.N,GND*%
X133850000Y-102100000D03*
%TD*%
D18*
%TO.P,J1,1,Pin_1*%
%TO.N,+BATT*%
X131600000Y-64460000D03*
D19*
%TO.P,J1,2,Pin_2*%
%TO.N,+3.3V*%
X131600000Y-67000000D03*
%TO.P,J1,3,Pin_3*%
%TO.N,VCC*%
X131600000Y-69540000D03*
%TD*%
D16*
%TO.P,C10,1*%
%TO.N,/XOSC_Q1*%
X132620000Y-100000000D03*
%TO.P,C10,2*%
%TO.N,GND*%
X133580000Y-100000000D03*
%TD*%
D21*
%TO.P,A2,1,rf_n*%
%TO.N,/RF_1*%
X141000000Y-107000000D03*
%TO.P,A2,2,rf_p*%
%TO.N,/RF_2*%
X138900000Y-107000000D03*
%TD*%
D16*
%TO.P,C20,1*%
%TO.N,+3.3V*%
X142520000Y-106100000D03*
%TO.P,C20,2*%
%TO.N,GND*%
X143480000Y-106100000D03*
%TD*%
D22*
%TO.P,R1,1*%
%TO.N,GND*%
X144970000Y-103650000D03*
%TO.P,R1,2*%
%TO.N,/RBIAS*%
X143950000Y-103650000D03*
%TD*%
D18*
%TO.P,J7,1,Pin_1*%
%TO.N,+3.3V*%
X127320000Y-73600000D03*
D19*
%TO.P,J7,2,Pin_2*%
%TO.N,Net-(J7-Pin_2)*%
X129860000Y-73600000D03*
%TO.P,J7,3,Pin_3*%
%TO.N,GND*%
X132400000Y-73600000D03*
%TD*%
D14*
%TO.P,C15,1*%
%TO.N,+3.3V*%
X136660000Y-103350000D03*
%TO.P,C15,2*%
%TO.N,GND*%
X135700000Y-103350000D03*
%TD*%
D22*
%TO.P,R3,1*%
%TO.N,/BOOT*%
X133510000Y-76800000D03*
%TO.P,R3,2*%
%TO.N,Net-(J7-Pin_2)*%
X132490000Y-76800000D03*
%TD*%
D14*
%TO.P,C21,1*%
%TO.N,+3.3V*%
X143380000Y-97000000D03*
%TO.P,C21,2*%
%TO.N,GND*%
X142420000Y-97000000D03*
%TD*%
%TO.P,C13,1*%
%TO.N,/NRST*%
X131880000Y-82800000D03*
%TO.P,C13,2*%
%TO.N,GND*%
X130920000Y-82800000D03*
%TD*%
D23*
%TO.P,C7,1*%
%TO.N,VBUS*%
X142950000Y-70200000D03*
%TO.P,C7,2*%
%TO.N,GND*%
X144850000Y-70200000D03*
%TD*%
D16*
%TO.P,C12,1*%
%TO.N,GND*%
X128520000Y-91900000D03*
%TO.P,C12,2*%
%TO.N,/LSE_OUT*%
X129480000Y-91900000D03*
%TD*%
D24*
%TO.P,J3,A1_B12,GND*%
%TO.N,GND*%
X143150000Y-65950000D03*
%TO.P,J3,A4_B9,VBUS*%
%TO.N,VBUS*%
X142350000Y-65950000D03*
D25*
%TO.P,J3,A5,CC1*%
%TO.N,unconnected-(J3-CC1-PadA5)*%
X141200000Y-65950000D03*
%TO.P,J3,A6,DP1*%
%TO.N,unconnected-(J3-DP1-PadA6)*%
X140200000Y-65950000D03*
%TO.P,J3,A7,DN1*%
%TO.N,unconnected-(J3-DN1-PadA7)*%
X139700000Y-65950000D03*
%TO.P,J3,A8,SBU1*%
%TO.N,unconnected-(J3-SBU1-PadA8)*%
X138700000Y-65950000D03*
D24*
%TO.P,J3,B1_A12,GND*%
%TO.N,GND*%
X136750000Y-65950000D03*
%TO.P,J3,B4_A9,VBUS*%
%TO.N,VBUS*%
X137550000Y-65950000D03*
D25*
%TO.P,J3,B5,CC2*%
%TO.N,unconnected-(J3-CC2-PadB5)*%
X138200000Y-65950000D03*
%TO.P,J3,B6,DP2*%
%TO.N,unconnected-(J3-DP2-PadB6)*%
X139200000Y-65950000D03*
%TO.P,J3,B7,DN2*%
%TO.N,unconnected-(J3-DN2-PadB7)*%
X140700000Y-65950000D03*
%TO.P,J3,B8,SBU2*%
%TO.N,unconnected-(J3-SBU2-PadB8)*%
X141700000Y-65950000D03*
D26*
%TO.P,J3,S1,SHIELD*%
%TO.N,unconnected-(J3-SHIELD-PadS1)_2*%
X144275000Y-65370000D03*
%TO.P,J3,S2,SHIELD*%
%TO.N,unconnected-(J3-SHIELD-PadS1)_1*%
X135625000Y-65370000D03*
D27*
%TO.P,J3,S3,SHIELD*%
%TO.N,unconnected-(J3-SHIELD-PadS1)_3*%
X144275000Y-61200000D03*
%TO.P,J3,S4,SHIELD*%
%TO.N,unconnected-(J3-SHIELD-PadS1)*%
X135625000Y-61200000D03*
%TD*%
D28*
%TO.P,U1,1,SCLK*%
%TO.N,/SCLK*%
X141225000Y-100762500D03*
%TO.P,U1,2,SO(GDO1)*%
%TO.N,/MISO*%
X140725000Y-100762500D03*
%TO.P,U1,3,GDO2*%
%TO.N,unconnected-(U1-GDO2-Pad3)*%
X140225000Y-100762500D03*
%TO.P,U1,4,DVDD*%
%TO.N,+3.3V*%
X139725000Y-100762500D03*
%TO.P,U1,5,DCOUPL*%
%TO.N,/DCOUPL*%
X139225000Y-100762500D03*
D29*
%TO.P,U1,6,GDO0(ATEST)*%
%TO.N,unconnected-(U1-GDO0(ATEST)-Pad6)*%
X138337500Y-101650000D03*
%TO.P,U1,7,~{CS}*%
%TO.N,/CS*%
X138337500Y-102150000D03*
%TO.P,U1,8,XOSC_Q1*%
%TO.N,/XOSC_Q1*%
X138337500Y-102650000D03*
%TO.P,U1,9,AVDD*%
%TO.N,+3.3V*%
X138337500Y-103150000D03*
%TO.P,U1,10,XOSC_Q2*%
%TO.N,/XOSC_Q2*%
X138337500Y-103650000D03*
D28*
%TO.P,U1,11,AVDD*%
%TO.N,+3.3V*%
X139225000Y-104537500D03*
%TO.P,U1,12,RF_P*%
%TO.N,/RF_2*%
X139725000Y-104537500D03*
%TO.P,U1,13,RF_N*%
%TO.N,/RF_1*%
X140225000Y-104537500D03*
%TO.P,U1,14,AVDD*%
%TO.N,+3.3V*%
X140725000Y-104537500D03*
%TO.P,U1,15,AVDD*%
X141225000Y-104537500D03*
D29*
%TO.P,U1,16,GND*%
%TO.N,GND*%
X142112500Y-103650000D03*
%TO.P,U1,17,RBIAS*%
%TO.N,/RBIAS*%
X142112500Y-103150000D03*
%TO.P,U1,18,VDD_GUARD*%
%TO.N,+3.3V*%
X142112500Y-102650000D03*
%TO.P,U1,19,GND*%
%TO.N,GND*%
X142112500Y-102150000D03*
%TO.P,U1,20,SI*%
%TO.N,/MOSI*%
X142112500Y-101650000D03*
D30*
%TO.P,U1,21,GND*%
%TO.N,GND*%
X140225000Y-102650000D03*
%TD*%
D18*
%TO.P,J5,1,Pin_1*%
%TO.N,+3.3V*%
X118550000Y-62720000D03*
D19*
%TO.P,J5,2,Pin_2*%
%TO.N,GND*%
X118550000Y-65260000D03*
%TO.P,J5,3,Pin_3*%
%TO.N,/PC13*%
X118550000Y-67800000D03*
%TO.P,J5,4,Pin_4*%
%TO.N,/PA0*%
X118550000Y-70340000D03*
%TO.P,J5,5,Pin_5*%
%TO.N,/PA1*%
X118550000Y-72880000D03*
%TO.P,J5,6,Pin_6*%
%TO.N,/PA2*%
X118550000Y-75420000D03*
%TO.P,J5,7,Pin_7*%
%TO.N,/PA3*%
X118550000Y-77960000D03*
%TO.P,J5,8,Pin_8*%
%TO.N,/PB0*%
X118550000Y-80500000D03*
%TO.P,J5,9,Pin_9*%
%TO.N,/PB1*%
X118550000Y-83040000D03*
%TO.P,J5,10,Pin_10*%
%TO.N,/PB2*%
X118550000Y-85580000D03*
%TO.P,J5,11,Pin_11*%
%TO.N,/PB10*%
X118550000Y-88120000D03*
%TO.P,J5,12,Pin_12*%
%TO.N,/PB11*%
X118550000Y-90660000D03*
%TO.P,J5,13,Pin_13*%
%TO.N,/PB12*%
X118550000Y-93200000D03*
%TO.P,J5,14,Pin_14*%
%TO.N,/PB13*%
X118550000Y-95740000D03*
%TO.P,J5,15,Pin_15*%
%TO.N,+3.3V*%
X118550000Y-98280000D03*
%TO.P,J5,16,Pin_16*%
%TO.N,GND*%
X118550000Y-100820000D03*
%TD*%
D18*
%TO.P,J2,1,Pin_1*%
%TO.N,+BATT*%
X127600000Y-64525000D03*
D19*
%TO.P,J2,2,Pin_2*%
%TO.N,GND*%
X127600000Y-67065000D03*
%TD*%
D16*
%TO.P,C3,1*%
%TO.N,+3.3V*%
X137120000Y-85200000D03*
%TO.P,C3,2*%
%TO.N,GND*%
X138080000Y-85200000D03*
%TD*%
D31*
%TO.P,Y2,1,1*%
%TO.N,/LSE_IN*%
X130900000Y-88400000D03*
%TO.P,Y2,2,2*%
%TO.N,/LSE_OUT*%
X130900000Y-90584400D03*
%TD*%
D32*
%TO.P,U3,1,GND*%
%TO.N,GND*%
X143150000Y-77600000D03*
%TO.P,U3,2,VO*%
%TO.N,VCC*%
X143150000Y-75300000D03*
D33*
X136850000Y-75300000D03*
D32*
%TO.P,U3,3,VI*%
%TO.N,VBUS*%
X143150000Y-73000000D03*
%TD*%
D15*
%TO.P,C17,1*%
%TO.N,+3.3V*%
X137400000Y-105450000D03*
%TO.P,C17,2*%
%TO.N,GND*%
X137400000Y-106410000D03*
%TD*%
D18*
%TO.P,J4,1,Pin_1*%
%TO.N,+3.3V*%
X151210000Y-83300000D03*
D19*
%TO.P,J4,2,Pin_2*%
%TO.N,/SWDIO*%
X148670000Y-83300000D03*
%TO.P,J4,3,Pin_3*%
%TO.N,/SWCLK*%
X146130000Y-83300000D03*
%TO.P,J4,4,Pin_4*%
%TO.N,GND*%
X143590000Y-83300000D03*
%TD*%
D34*
%TO.P,SW1,1,1*%
%TO.N,/NRST*%
X131275000Y-80400000D03*
%TO.P,SW1,2,2*%
%TO.N,Net-(R2-Pad1)*%
X127125000Y-80400000D03*
%TD*%
D13*
%TO.P,C16,1*%
%TO.N,+3.3V*%
X144000000Y-102530000D03*
%TO.P,C16,2*%
%TO.N,GND*%
X144000000Y-101570000D03*
%TD*%
D14*
%TO.P,C8,1*%
%TO.N,/DCOUPL*%
X137360000Y-99800000D03*
%TO.P,C8,2*%
%TO.N,GND*%
X136400000Y-99800000D03*
%TD*%
D35*
%TO.P,U2,1,VDD*%
%TO.N,+3.3V*%
X136212500Y-88337500D03*
%TO.P,U2,2,PC13*%
%TO.N,/PC13*%
X136212500Y-88837500D03*
%TO.P,U2,3,PC14*%
%TO.N,/LSE_IN*%
X136212500Y-89337500D03*
%TO.P,U2,4,PC15*%
%TO.N,/LSE_OUT*%
X136212500Y-89837500D03*
%TO.P,U2,5,PH0*%
%TO.N,unconnected-(U2-PH0-Pad5)*%
X136212500Y-90337500D03*
%TO.P,U2,6,PH1*%
%TO.N,unconnected-(U2-PH1-Pad6)*%
X136212500Y-90837500D03*
%TO.P,U2,7,NRST*%
%TO.N,/NRST*%
X136212500Y-91337500D03*
%TO.P,U2,8,VSSA*%
%TO.N,GND*%
X136212500Y-91837500D03*
%TO.P,U2,9,VDDA*%
%TO.N,+3.3V*%
X136212500Y-92337500D03*
%TO.P,U2,10,PA0*%
%TO.N,/PA0*%
X136212500Y-92837500D03*
%TO.P,U2,11,PA1*%
%TO.N,/PA1*%
X136212500Y-93337500D03*
%TO.P,U2,12,PA2*%
%TO.N,/PA2*%
X136212500Y-93837500D03*
D36*
%TO.P,U2,13,PA3*%
%TO.N,/PA3*%
X137625000Y-95250000D03*
%TO.P,U2,14,PA4*%
%TO.N,/CS*%
X138125000Y-95250000D03*
%TO.P,U2,15,PA5*%
%TO.N,/SCLK*%
X138625000Y-95250000D03*
%TO.P,U2,16,PA6*%
%TO.N,/MISO*%
X139125000Y-95250000D03*
%TO.P,U2,17,PA7*%
%TO.N,/MOSI*%
X139625000Y-95250000D03*
%TO.P,U2,18,PB0*%
%TO.N,/PB0*%
X140125000Y-95250000D03*
%TO.P,U2,19,PB1*%
%TO.N,/PB1*%
X140625000Y-95250000D03*
%TO.P,U2,20,PB2*%
%TO.N,/PB2*%
X141125000Y-95250000D03*
%TO.P,U2,21,PB10*%
%TO.N,/PB10*%
X141625000Y-95250000D03*
%TO.P,U2,22,PB11*%
%TO.N,/PB11*%
X142125000Y-95250000D03*
%TO.P,U2,23,VSS*%
%TO.N,GND*%
X142625000Y-95250000D03*
%TO.P,U2,24,VDD*%
%TO.N,+3.3V*%
X143125000Y-95250000D03*
D35*
%TO.P,U2,25,PB12*%
%TO.N,/PB12*%
X144537500Y-93837500D03*
%TO.P,U2,26,PB13*%
%TO.N,/PB13*%
X144537500Y-93337500D03*
%TO.P,U2,27,PB14*%
%TO.N,/PB14*%
X144537500Y-92837500D03*
%TO.P,U2,28,PB15*%
%TO.N,/PB15*%
X144537500Y-92337500D03*
%TO.P,U2,29,PA8*%
%TO.N,/PA8*%
X144537500Y-91837500D03*
%TO.P,U2,30,PA9*%
%TO.N,/PA9*%
X144537500Y-91337500D03*
%TO.P,U2,31,PA10*%
%TO.N,/PA10*%
X144537500Y-90837500D03*
%TO.P,U2,32,PA11*%
%TO.N,/PA11*%
X144537500Y-90337500D03*
%TO.P,U2,33,PA12*%
%TO.N,/PA12*%
X144537500Y-89837500D03*
%TO.P,U2,34,PA13*%
%TO.N,/SWDIO*%
X144537500Y-89337500D03*
%TO.P,U2,35,VSS*%
%TO.N,GND*%
X144537500Y-88837500D03*
%TO.P,U2,36,VDDIO2*%
%TO.N,+3.3V*%
X144537500Y-88337500D03*
D36*
%TO.P,U2,37,PA14*%
%TO.N,/SWCLK*%
X143125000Y-86925000D03*
%TO.P,U2,38,PA15*%
%TO.N,/PA15*%
X142625000Y-86925000D03*
%TO.P,U2,39,PB3*%
%TO.N,/PB3*%
X142125000Y-86925000D03*
%TO.P,U2,40,PB4*%
%TO.N,/PB4*%
X141625000Y-86925000D03*
%TO.P,U2,41,PB5*%
%TO.N,/PB5*%
X141125000Y-86925000D03*
%TO.P,U2,42,PB6*%
%TO.N,/PB6*%
X140625000Y-86925000D03*
%TO.P,U2,43,PB7*%
%TO.N,/PB7*%
X140125000Y-86925000D03*
%TO.P,U2,44,BOOT0*%
%TO.N,/BOOT*%
X139625000Y-86925000D03*
%TO.P,U2,45,PB8*%
%TO.N,/PB8*%
X139125000Y-86925000D03*
%TO.P,U2,46,PB9*%
%TO.N,/PB9*%
X138625000Y-86925000D03*
%TO.P,U2,47,VSS*%
%TO.N,GND*%
X138125000Y-86925000D03*
%TO.P,U2,48,VDD*%
%TO.N,+3.3V*%
X137625000Y-86925000D03*
%TD*%
D37*
%TO.N,GND*%
X142150000Y-90650000D03*
X136300000Y-67400000D03*
X136450000Y-100600000D03*
X144450000Y-106050000D03*
X142800000Y-107900000D03*
X141500000Y-77600000D03*
X158600000Y-99600000D03*
X140050000Y-70150000D03*
X127700000Y-91900000D03*
X125050000Y-87250000D03*
X162900000Y-109000000D03*
X147000000Y-109000000D03*
X144900000Y-77600000D03*
X140225000Y-102650000D03*
X135050000Y-103450000D03*
X125750000Y-109000000D03*
X143000000Y-97800000D03*
X142100000Y-99650000D03*
X143150000Y-78950000D03*
X145900000Y-72200000D03*
X140150000Y-72250000D03*
X133450000Y-109000000D03*
X161100000Y-109000000D03*
X127750000Y-109000000D03*
X156950000Y-89500000D03*
X138200000Y-98300000D03*
X157000000Y-86850000D03*
X139350000Y-90650000D03*
X153400000Y-109000000D03*
X136500000Y-106400000D03*
X157250000Y-109000000D03*
X159100000Y-109000000D03*
X127050000Y-89150000D03*
X123500000Y-109000000D03*
X137250000Y-109000000D03*
X144750000Y-108950000D03*
X121350000Y-109000000D03*
X135050000Y-101700000D03*
X119100000Y-108950000D03*
X147200000Y-88460000D03*
X143150000Y-104050000D03*
X155350000Y-109000000D03*
X158750000Y-94500000D03*
X135450000Y-109000000D03*
X145150000Y-104850000D03*
X149150000Y-109000000D03*
X131600000Y-109000000D03*
X134020000Y-86420000D03*
X158600000Y-97050000D03*
X133450000Y-91150000D03*
X145800000Y-103650000D03*
X127650000Y-87500000D03*
X130950000Y-104300000D03*
X129700000Y-109000000D03*
X140700000Y-90650000D03*
X137300000Y-108000000D03*
X145100000Y-101550000D03*
X158800000Y-92050000D03*
X143800000Y-67500000D03*
X146100000Y-70200000D03*
X117150000Y-108950000D03*
X142800000Y-108950000D03*
X151400000Y-109000000D03*
%TO.N,+3.3V*%
X142800000Y-106900000D03*
X135450000Y-83700000D03*
X133400000Y-91950000D03*
X136200000Y-85200000D03*
X136500000Y-105450000D03*
X145100000Y-102500000D03*
X136650000Y-104000000D03*
X139070000Y-98250000D03*
X144300000Y-97000000D03*
X135450000Y-87350000D03*
X146300000Y-86650000D03*
%TO.N,/PB0*%
X138250000Y-92450000D03*
%TO.N,/PB10*%
X141434620Y-92665380D03*
%TO.N,/PB11*%
X142400000Y-92700000D03*
%TO.N,/PB12*%
X146130930Y-94453396D03*
%TO.N,/PB13*%
X146825700Y-94056787D03*
%TO.N,/PB2*%
X140384620Y-92665380D03*
%TO.N,/PB1*%
X139459620Y-92740380D03*
%TO.N,/PB9*%
X138400000Y-88600000D03*
%TO.N,/PB7*%
X140350000Y-88617623D03*
%TO.N,/PB8*%
X139322236Y-88591476D03*
%TO.N,/PB6*%
X140500000Y-85350000D03*
%TO.N,/PA15*%
X142650000Y-88700000D03*
%TO.N,/PB3*%
X142650000Y-85550000D03*
%TO.N,/PB4*%
X141896604Y-85280930D03*
%TO.N,/PB5*%
X141425000Y-88625000D03*
%TO.N,/SCLK*%
X139725000Y-97023527D03*
X138525000Y-96950000D03*
%TD*%
D38*
%TO.N,/RF_1*%
X140225000Y-104537500D02*
X140225000Y-105475000D01*
D39*
X140550000Y-105800000D02*
X141000000Y-106250000D01*
X141000000Y-106250000D02*
X141000000Y-106444000D01*
D38*
X140225000Y-105475000D02*
X140550000Y-105800000D01*
%TO.N,/RF_2*%
X139725000Y-104537500D02*
X139725000Y-105475000D01*
D39*
X139400000Y-105800000D02*
X138900000Y-106300000D01*
D38*
X138850000Y-107394000D02*
X138956000Y-107394000D01*
X139725000Y-105475000D02*
X139400000Y-105800000D01*
D39*
X138900000Y-106300000D02*
X138900000Y-106444000D01*
D40*
%TO.N,GND*%
X142900000Y-97800000D02*
X142420000Y-97320000D01*
D38*
X137490000Y-106400000D02*
X137500000Y-106410000D01*
X135700000Y-103350000D02*
X135150000Y-103350000D01*
X144970000Y-103650000D02*
X145800000Y-103650000D01*
D40*
X144400000Y-106100000D02*
X144450000Y-106050000D01*
X144537500Y-88837500D02*
X145922500Y-88837500D01*
X128400000Y-87500000D02*
X127650000Y-87500000D01*
D39*
X136300000Y-67400000D02*
X136750000Y-66950000D01*
D38*
X143420000Y-102150000D02*
X142112500Y-102150000D01*
D39*
X143150000Y-78950000D02*
X143150000Y-77600000D01*
D38*
X136400000Y-100550000D02*
X136450000Y-100600000D01*
D40*
X145922500Y-88837500D02*
X146300000Y-88460000D01*
D38*
X135050000Y-101700000D02*
X135000000Y-101700000D01*
X132150000Y-104300000D02*
X132150000Y-105850000D01*
D40*
X135237500Y-91837500D02*
X134500000Y-91100000D01*
D39*
X143150000Y-77600000D02*
X141500000Y-77600000D01*
D40*
X142112500Y-103650000D02*
X142750000Y-103650000D01*
D38*
X144000000Y-101570000D02*
X143420000Y-102150000D01*
D40*
X134020000Y-86420000D02*
X134000000Y-86400000D01*
D39*
X143150000Y-66850000D02*
X143150000Y-65950000D01*
D40*
X142625000Y-96795000D02*
X142420000Y-97000000D01*
X143000000Y-97800000D02*
X142900000Y-97800000D01*
X134700000Y-86420000D02*
X134020000Y-86420000D01*
X138500000Y-99100000D02*
X138500000Y-98600000D01*
D39*
X144850000Y-70200000D02*
X146100000Y-70200000D01*
X143150000Y-77600000D02*
X144900000Y-77600000D01*
D40*
X134500000Y-91100000D02*
X134300000Y-91100000D01*
X144255000Y-104875000D02*
X145125000Y-104875000D01*
D38*
X132150000Y-105850000D02*
X132600000Y-106300000D01*
D40*
X133450000Y-91150000D02*
X133565380Y-91034620D01*
X143480000Y-106100000D02*
X144400000Y-106100000D01*
D38*
X133850000Y-102100000D02*
X133850000Y-100270000D01*
X134600000Y-102100000D02*
X133850000Y-102100000D01*
D40*
X138125000Y-85245000D02*
X138080000Y-85200000D01*
X147200000Y-88460000D02*
X146300000Y-88460000D01*
D38*
X136450000Y-106400000D02*
X136500000Y-106400000D01*
D40*
X138080000Y-83755000D02*
X138025000Y-83700000D01*
X142750000Y-103650000D02*
X143150000Y-104050000D01*
X136212500Y-91837500D02*
X135237500Y-91837500D01*
X138080000Y-85200000D02*
X138080000Y-83755000D01*
X136500000Y-106400000D02*
X137490000Y-106400000D01*
D39*
X145900000Y-73500000D02*
X145900000Y-72200000D01*
D38*
X136400000Y-99800000D02*
X136400000Y-100550000D01*
D39*
X136750000Y-66950000D02*
X136750000Y-65950000D01*
D40*
X142420000Y-97320000D02*
X142420000Y-97000000D01*
D38*
X132150000Y-104300000D02*
X130950000Y-104300000D01*
D40*
X133565380Y-91034620D02*
X134234620Y-91034620D01*
X128520000Y-91900000D02*
X127700000Y-91900000D01*
D39*
X143800000Y-67500000D02*
X143150000Y-66850000D01*
D40*
X138125000Y-86925000D02*
X138125000Y-85245000D01*
D38*
X145080000Y-101570000D02*
X145100000Y-101550000D01*
X144000000Y-101570000D02*
X145080000Y-101570000D01*
X135150000Y-103350000D02*
X135050000Y-103450000D01*
X135000000Y-101700000D02*
X134600000Y-102100000D01*
D40*
X134234620Y-91034620D02*
X134300000Y-91100000D01*
X142625000Y-95250000D02*
X142625000Y-96795000D01*
D38*
X133850000Y-100270000D02*
X133580000Y-100000000D01*
D40*
X138500000Y-98600000D02*
X138200000Y-98300000D01*
X145125000Y-104875000D02*
X145150000Y-104850000D01*
D38*
%TO.N,+3.3V*%
X140725000Y-104537500D02*
X140725000Y-105025000D01*
D40*
X137625000Y-86225000D02*
X137120000Y-85720000D01*
D38*
X142520000Y-106100000D02*
X142520000Y-106620000D01*
D40*
X145362500Y-88337500D02*
X146200000Y-87500000D01*
X136212500Y-92337500D02*
X134577500Y-92337500D01*
X143125000Y-95250000D02*
X143125000Y-96745000D01*
X135037500Y-88337500D02*
X134700000Y-88000000D01*
D38*
X142800000Y-106900000D02*
X142800000Y-107050000D01*
D40*
X136475000Y-83700000D02*
X135450000Y-83700000D01*
X144537500Y-88337500D02*
X145362500Y-88337500D01*
D38*
X136660000Y-103350000D02*
X136860000Y-103150000D01*
D40*
X134700000Y-87380000D02*
X135420000Y-87380000D01*
D38*
X145070000Y-102530000D02*
X145100000Y-102500000D01*
D40*
X146200000Y-87500000D02*
X146300000Y-87500000D01*
D38*
X141225000Y-104537500D02*
X141687500Y-105000000D01*
D40*
X137400000Y-105450000D02*
X136500000Y-105450000D01*
D38*
X138750000Y-105450000D02*
X139225000Y-104975000D01*
X139725000Y-100762500D02*
X139725000Y-99365000D01*
D40*
X134700000Y-88000000D02*
X134700000Y-87380000D01*
X143125000Y-96745000D02*
X143380000Y-97000000D01*
D38*
X142520000Y-106100000D02*
X142520000Y-105650000D01*
D40*
X144300000Y-97000000D02*
X143380000Y-97000000D01*
D38*
X140725000Y-105025000D02*
X141800000Y-106100000D01*
D40*
X137120000Y-85200000D02*
X137120000Y-84345000D01*
D38*
X143880000Y-102650000D02*
X142112500Y-102650000D01*
X139225000Y-104975000D02*
X139225000Y-104537500D01*
D40*
X137120000Y-84345000D02*
X136475000Y-83700000D01*
D38*
X141800000Y-106100000D02*
X142520000Y-106100000D01*
D40*
X137120000Y-85720000D02*
X137120000Y-85200000D01*
X133510000Y-92060000D02*
X134300000Y-92060000D01*
D38*
X142520000Y-105650000D02*
X143295000Y-104875000D01*
X144000000Y-102530000D02*
X145070000Y-102530000D01*
X136650000Y-104000000D02*
X136650000Y-103725735D01*
X142520000Y-106620000D02*
X142800000Y-106900000D01*
X137500000Y-105450000D02*
X138750000Y-105450000D01*
D40*
X146300000Y-87500000D02*
X146300000Y-86650000D01*
D38*
X136660000Y-103715735D02*
X136660000Y-103350000D01*
X144000000Y-102530000D02*
X143880000Y-102650000D01*
D40*
X137120000Y-85200000D02*
X136200000Y-85200000D01*
X134577500Y-92337500D02*
X134300000Y-92060000D01*
X139460000Y-98640000D02*
X139460000Y-99100000D01*
D38*
X143170000Y-105000000D02*
X143295000Y-104875000D01*
X136860000Y-103150000D02*
X138337500Y-103150000D01*
X139725000Y-99365000D02*
X139460000Y-99100000D01*
D40*
X139050000Y-98250000D02*
X139070000Y-98250000D01*
X135420000Y-87380000D02*
X135450000Y-87350000D01*
D38*
X141225000Y-104537500D02*
X141225000Y-104555000D01*
X136650000Y-103725735D02*
X136660000Y-103715735D01*
D40*
X136212500Y-88337500D02*
X135037500Y-88337500D01*
D38*
X141687500Y-105000000D02*
X143170000Y-105000000D01*
D40*
X139070000Y-98250000D02*
X139460000Y-98640000D01*
X137625000Y-86925000D02*
X137625000Y-86225000D01*
X133400000Y-91950000D02*
X133510000Y-92060000D01*
D39*
%TO.N,VCC*%
X143250000Y-75400000D02*
X143150000Y-75300000D01*
X136850000Y-75300000D02*
X136850000Y-73650000D01*
%TO.N,VBUS*%
X142350000Y-67050000D02*
X142100000Y-67300000D01*
X137550000Y-65950000D02*
X137550000Y-67250000D01*
X143150000Y-70400000D02*
X142950000Y-70200000D01*
X142950000Y-70200000D02*
X142950000Y-72800000D01*
X142350000Y-65950000D02*
X142350000Y-67050000D01*
X137550000Y-67250000D02*
X137700000Y-67400000D01*
X142950000Y-72800000D02*
X143150000Y-73000000D01*
D38*
%TO.N,/XOSC_Q2*%
X134250000Y-104700000D02*
X133850000Y-104300000D01*
X133850000Y-106010000D02*
X133560000Y-106300000D01*
X138337500Y-103650000D02*
X137950000Y-103650000D01*
X133850000Y-104300000D02*
X133850000Y-106010000D01*
X137950000Y-103650000D02*
X136900000Y-104700000D01*
X136900000Y-104700000D02*
X134250000Y-104700000D01*
%TO.N,/XOSC_Q1*%
X134886160Y-102650000D02*
X134435160Y-103101000D01*
X138337500Y-102650000D02*
X134886160Y-102650000D01*
X134435160Y-103101000D02*
X133264840Y-103101000D01*
X133264840Y-103101000D02*
X132263840Y-102100000D01*
X132263840Y-102100000D02*
X132150000Y-102100000D01*
X132150000Y-100470000D02*
X132620000Y-100000000D01*
X132150000Y-102100000D02*
X132150000Y-100470000D01*
D40*
%TO.N,/LSE_IN*%
X129360000Y-87500000D02*
X130023046Y-87500000D01*
X130023046Y-87500000D02*
X130900000Y-88376954D01*
X130900000Y-88584754D02*
X130900000Y-88607800D01*
X133637500Y-89337500D02*
X132041000Y-87741000D01*
X131535954Y-87741000D02*
X130900000Y-88376954D01*
X130900000Y-88336500D02*
X130900000Y-88400000D01*
X132041000Y-87741000D02*
X131535954Y-87741000D01*
X136212500Y-89337500D02*
X133637500Y-89337500D01*
X130900000Y-88376954D02*
X130900000Y-88400000D01*
%TO.N,/LSE_OUT*%
X130900000Y-91080000D02*
X130900000Y-90792200D01*
X130900000Y-90792200D02*
X130900000Y-90815246D01*
X129759999Y-91900000D02*
X130900000Y-90759999D01*
X133562500Y-89837500D02*
X132156600Y-91243400D01*
X131535954Y-91243400D02*
X130900000Y-90607446D01*
X136212500Y-89837500D02*
X133562500Y-89837500D01*
X130900000Y-90759999D02*
X130900000Y-90584400D01*
X130900000Y-90607446D02*
X130900000Y-90584400D01*
X129480000Y-91900000D02*
X129759999Y-91900000D01*
X132156600Y-91243400D02*
X131535954Y-91243400D01*
%TO.N,/NRST*%
X136212500Y-91337500D02*
X137162500Y-91337500D01*
X131880000Y-81005000D02*
X131275000Y-80400000D01*
X132100000Y-82800000D02*
X131880000Y-82800000D01*
X137700000Y-88400000D02*
X132100000Y-82800000D01*
X131880000Y-82800000D02*
X131880000Y-81005000D01*
X137700000Y-90800000D02*
X137700000Y-88400000D01*
X137162500Y-91337500D02*
X137700000Y-90800000D01*
%TO.N,/BOOT*%
X138200000Y-81200000D02*
X135200000Y-81200000D01*
X133510000Y-79510000D02*
X133510000Y-76800000D01*
X139625000Y-86925000D02*
X139625000Y-82625000D01*
X139625000Y-82625000D02*
X138200000Y-81200000D01*
X135200000Y-81200000D02*
X133510000Y-79510000D01*
D41*
%TO.N,+BATT*%
X131600000Y-64460000D02*
X127665000Y-64460000D01*
X127665000Y-64460000D02*
X127600000Y-64525000D01*
D40*
%TO.N,/SWCLK*%
X143125000Y-86925000D02*
X143125000Y-86275000D01*
X143125000Y-86275000D02*
X146100000Y-83300000D01*
X146100000Y-83300000D02*
X146130000Y-83300000D01*
%TO.N,/SWDIO*%
X147762500Y-89337500D02*
X148670000Y-88430000D01*
X144537500Y-89337500D02*
X147762500Y-89337500D01*
X148670000Y-88430000D02*
X148670000Y-83300000D01*
%TO.N,/PB0*%
X138250000Y-92450000D02*
X140125000Y-94325000D01*
X140125000Y-94325000D02*
X140125000Y-95250000D01*
%TO.N,/PB14*%
X157420000Y-100820000D02*
X161200000Y-100820000D01*
X144537500Y-92837500D02*
X149437500Y-92837500D01*
X149437500Y-92837500D02*
X157420000Y-100820000D01*
%TO.N,/PA3*%
X137425000Y-95450000D02*
X124450000Y-95450000D01*
X120850000Y-91850000D02*
X120850000Y-79200000D01*
X120850000Y-79200000D02*
X119610000Y-77960000D01*
X119610000Y-77960000D02*
X118550000Y-77960000D01*
X124450000Y-95450000D02*
X120850000Y-91850000D01*
X137625000Y-95250000D02*
X137425000Y-95450000D01*
%TO.N,/PB10*%
X141625000Y-92855760D02*
X141434620Y-92665380D01*
X141625000Y-95250000D02*
X141625000Y-92855760D01*
%TO.N,/PB15*%
X157400000Y-98300000D02*
X157420000Y-98280000D01*
X157420000Y-98280000D02*
X161200000Y-98280000D01*
X151437500Y-92337500D02*
X157400000Y-98300000D01*
X144537500Y-92337500D02*
X151437500Y-92337500D01*
%TO.N,/PA2*%
X133950000Y-94700000D02*
X125650000Y-94700000D01*
X121500000Y-76300000D02*
X120620000Y-75420000D01*
X136212500Y-93837500D02*
X134812500Y-93837500D01*
X134812500Y-93837500D02*
X133950000Y-94700000D01*
X125650000Y-94700000D02*
X121500000Y-90550000D01*
X120620000Y-75420000D02*
X118550000Y-75420000D01*
X121500000Y-90550000D02*
X121500000Y-76300000D01*
%TO.N,/PB11*%
X142125000Y-92975000D02*
X142400000Y-92700000D01*
X142125000Y-95250000D02*
X142125000Y-92975000D01*
%TO.N,/PB12*%
X146130930Y-94380930D02*
X145587500Y-93837500D01*
X145587500Y-93837500D02*
X144537500Y-93837500D01*
X146130930Y-94453396D02*
X146130930Y-94380930D01*
%TO.N,/PB13*%
X146756787Y-94056787D02*
X146037500Y-93337500D01*
X146037500Y-93337500D02*
X144537500Y-93337500D01*
X146825700Y-94056787D02*
X146756787Y-94056787D01*
%TO.N,/PB2*%
X140384620Y-92665380D02*
X140515380Y-92665380D01*
X140515380Y-92665380D02*
X141125000Y-93275000D01*
X118840000Y-86100000D02*
X118600000Y-85860000D01*
X141125000Y-93275000D02*
X141125000Y-95250000D01*
%TO.N,/PA1*%
X122200000Y-74200000D02*
X120880000Y-72880000D01*
X133500000Y-93750000D02*
X126400000Y-93750000D01*
X136212500Y-93337500D02*
X133912500Y-93337500D01*
X120880000Y-72880000D02*
X118550000Y-72880000D01*
X133912500Y-93337500D02*
X133500000Y-93750000D01*
X126400000Y-93750000D02*
X122200000Y-89550000D01*
X122200000Y-89550000D02*
X122200000Y-74200000D01*
%TO.N,/PB1*%
X139459620Y-92740380D02*
X139540380Y-92740380D01*
X139540380Y-92740380D02*
X140625000Y-93825000D01*
X118680000Y-83400000D02*
X118600000Y-83320000D01*
X140625000Y-93825000D02*
X140625000Y-95250000D01*
%TO.N,/PC13*%
X123600000Y-68650000D02*
X122750000Y-67800000D01*
X123600000Y-83000000D02*
X123600000Y-68650000D01*
X122750000Y-67800000D02*
X118550000Y-67800000D01*
X126050000Y-85450000D02*
X123600000Y-83000000D01*
X136212500Y-88837500D02*
X134537500Y-88837500D01*
X134537500Y-88837500D02*
X131150000Y-85450000D01*
X131150000Y-85450000D02*
X126050000Y-85450000D01*
%TO.N,/PA0*%
X120090000Y-70340000D02*
X118550000Y-70340000D01*
X122900000Y-88800000D02*
X122900000Y-71650000D01*
X126937500Y-92837500D02*
X122900000Y-88800000D01*
X121600000Y-70350000D02*
X120100000Y-70350000D01*
X122900000Y-71650000D02*
X121600000Y-70350000D01*
X136212500Y-92837500D02*
X126937500Y-92837500D01*
X120100000Y-70350000D02*
X120090000Y-70340000D01*
%TO.N,/PB9*%
X138625000Y-88375000D02*
X138400000Y-88600000D01*
X138625000Y-86925000D02*
X138625000Y-88375000D01*
%TO.N,/PA10*%
X161022500Y-90837500D02*
X161200000Y-90660000D01*
X144537500Y-90837500D02*
X161022500Y-90837500D01*
%TO.N,/PB7*%
X140350000Y-88617623D02*
X140267623Y-88617623D01*
X140367756Y-88617623D02*
X140350000Y-88617623D01*
X140267623Y-88617623D02*
X140125000Y-88475000D01*
X140125000Y-88475000D02*
X140125000Y-86925000D01*
%TO.N,/PB8*%
X139322236Y-88591476D02*
X139125000Y-88394239D01*
X139322236Y-88591476D02*
X139250000Y-88519239D01*
X139125000Y-88394239D02*
X139125000Y-86925000D01*
%TO.N,/PB6*%
X140625000Y-85525000D02*
X140500000Y-85400000D01*
X140625000Y-86925000D02*
X140625000Y-85525000D01*
%TO.N,/PA11*%
X144537500Y-90337500D02*
X151462500Y-90337500D01*
X153680000Y-88120000D02*
X161200000Y-88120000D01*
X151462500Y-90337500D02*
X153680000Y-88120000D01*
%TO.N,/PA15*%
X142625000Y-88425000D02*
X142625000Y-86925000D01*
X142650000Y-88700000D02*
X142650000Y-88450000D01*
X142650000Y-88450000D02*
X142625000Y-88425000D01*
%TO.N,/PA8*%
X144537500Y-91837500D02*
X153737500Y-91837500D01*
X153737500Y-91837500D02*
X157640000Y-95740000D01*
X157640000Y-95740000D02*
X161200000Y-95740000D01*
%TO.N,/PA12*%
X153520000Y-85580000D02*
X161200000Y-85580000D01*
X149262500Y-89837500D02*
X153520000Y-85580000D01*
X144537500Y-89837500D02*
X149262500Y-89837500D01*
%TO.N,/PB3*%
X142650000Y-85550000D02*
X142125000Y-86075000D01*
X142125000Y-86075000D02*
X142125000Y-86925000D01*
%TO.N,/PB4*%
X141896604Y-85280930D02*
X141625000Y-85552534D01*
X141625000Y-85552534D02*
X141625000Y-86925000D01*
%TO.N,/PA9*%
X155837500Y-91337500D02*
X157700000Y-93200000D01*
X157700000Y-93200000D02*
X161200000Y-93200000D01*
X144537500Y-91337500D02*
X155837500Y-91337500D01*
%TO.N,/PB5*%
X141125000Y-88425000D02*
X141125000Y-86925000D01*
X141450000Y-88650000D02*
X141350000Y-88650000D01*
X141350000Y-88650000D02*
X141125000Y-88425000D01*
%TO.N,Net-(R2-Pad1)*%
X126690000Y-82800000D02*
X126690000Y-80835000D01*
X126690000Y-80835000D02*
X127125000Y-80400000D01*
D38*
%TO.N,/CS*%
X135500000Y-100850000D02*
X135500000Y-99050000D01*
X135500000Y-99050000D02*
X138125000Y-96425000D01*
X138125000Y-96425000D02*
X138125000Y-95250000D01*
X136800000Y-102150000D02*
X135500000Y-100850000D01*
X138337500Y-102150000D02*
X136800000Y-102150000D01*
%TO.N,/SCLK*%
X138525000Y-96873528D02*
X138600000Y-96798528D01*
X141225000Y-100762500D02*
X141225000Y-98523527D01*
X138600000Y-96798528D02*
X138600000Y-95275000D01*
X138600000Y-95275000D02*
X138625000Y-95250000D01*
X141225000Y-98523527D02*
X139725000Y-97023527D01*
%TO.N,/MISO*%
X139125000Y-97475000D02*
X140725000Y-99075000D01*
X139125000Y-95250000D02*
X139125000Y-97475000D01*
X140725000Y-99075000D02*
X140725000Y-100762500D01*
%TO.N,/MOSI*%
X143000000Y-101400000D02*
X143000000Y-99450000D01*
X139625000Y-96075000D02*
X139625000Y-95250000D01*
X142750000Y-101650000D02*
X143000000Y-101400000D01*
X142112500Y-101650000D02*
X142750000Y-101650000D01*
X143000000Y-99450000D02*
X139625000Y-96075000D01*
%TO.N,/RBIAS*%
X143450000Y-103150000D02*
X143950000Y-103650000D01*
X142112500Y-103150000D02*
X143450000Y-103150000D01*
%TO.N,/DCOUPL*%
X139225000Y-100125000D02*
X138900000Y-99800000D01*
X139225000Y-100762500D02*
X139225000Y-100125000D01*
X138900000Y-99800000D02*
X137360000Y-99800000D01*
D40*
%TO.N,Net-(J7-Pin_2)*%
X132490000Y-76230000D02*
X129860000Y-73600000D01*
X132490000Y-76800000D02*
X132490000Y-76230000D01*
%TD*%
%TA.AperFunction,Conductor*%
%TO.N,VBUS*%
G36*
X142342792Y-66866848D02*
G01*
X142392198Y-66916253D01*
X142404984Y-66951489D01*
X142428340Y-67068907D01*
X142428343Y-67068917D01*
X142484914Y-67205492D01*
X142517812Y-67254727D01*
X142517813Y-67254730D01*
X142567046Y-67328414D01*
X142567052Y-67328421D01*
X143321584Y-68082952D01*
X143321586Y-68082954D01*
X143358598Y-68107683D01*
X143377105Y-68120049D01*
X143444505Y-68165084D01*
X143581087Y-68221658D01*
X143624567Y-68230306D01*
X143627111Y-68230813D01*
X143689022Y-68263198D01*
X143695599Y-68270049D01*
X143868679Y-68464764D01*
X143898505Y-68527946D01*
X143900000Y-68547144D01*
X143900000Y-69431484D01*
X143893706Y-69470488D01*
X143860001Y-69572203D01*
X143860000Y-69572204D01*
X143849500Y-69674983D01*
X143849500Y-70725001D01*
X143849501Y-70725019D01*
X143860000Y-70827796D01*
X143872357Y-70865084D01*
X143893706Y-70929513D01*
X143900000Y-70968515D01*
X143900000Y-71500000D01*
X144363681Y-71963681D01*
X144397166Y-72025004D01*
X144400000Y-72051362D01*
X144400000Y-73265653D01*
X144382329Y-73329451D01*
X144177873Y-73670210D01*
X144126502Y-73717568D01*
X144057682Y-73729635D01*
X144054664Y-73729184D01*
X144051665Y-73728843D01*
X143981870Y-73725921D01*
X143981863Y-73725921D01*
X143869356Y-73737318D01*
X143838722Y-73740422D01*
X143838720Y-73740422D01*
X143838714Y-73740423D01*
X143835058Y-73741333D01*
X143805129Y-73744999D01*
X142494874Y-73744999D01*
X142469305Y-73742334D01*
X142467107Y-73741870D01*
X142351439Y-73713106D01*
X142290886Y-73701912D01*
X142260966Y-73698248D01*
X142259742Y-73698173D01*
X142253676Y-73696895D01*
X142227406Y-73682772D01*
X142200023Y-73670953D01*
X142193986Y-73664804D01*
X142192136Y-73663810D01*
X142191002Y-73661766D01*
X142182420Y-73653025D01*
X141927172Y-73333965D01*
X141900664Y-73269319D01*
X141900000Y-73256503D01*
X141900000Y-69299999D01*
X140800000Y-68100000D01*
X138041333Y-68100000D01*
X137974294Y-68080315D01*
X137966933Y-68075200D01*
X137349442Y-67612081D01*
X137307623Y-67556113D01*
X137302702Y-67486417D01*
X137324467Y-67438720D01*
X137329819Y-67431547D01*
X137332951Y-67428416D01*
X137337944Y-67420943D01*
X137415084Y-67305495D01*
X137471658Y-67168913D01*
X137500500Y-67023918D01*
X137501097Y-67017858D01*
X137502269Y-67017973D01*
X137503050Y-67015314D01*
X137501762Y-67006353D01*
X137512740Y-66982312D01*
X137520185Y-66956961D01*
X137527025Y-66951033D01*
X137530787Y-66942797D01*
X137553021Y-66928507D01*
X137572989Y-66911206D01*
X137583503Y-66908918D01*
X137589565Y-66905023D01*
X137624500Y-66900000D01*
X137681178Y-66900000D01*
X137748217Y-66919685D01*
X137755475Y-66924724D01*
X137798539Y-66956961D01*
X137807668Y-66963795D01*
X137807671Y-66963797D01*
X137852618Y-66980561D01*
X137942517Y-67014091D01*
X138002127Y-67020500D01*
X138397872Y-67020499D01*
X138397873Y-67020498D01*
X138397885Y-67020498D01*
X138436744Y-67016320D01*
X138463252Y-67016320D01*
X138502127Y-67020500D01*
X138897872Y-67020499D01*
X138897873Y-67020498D01*
X138897885Y-67020498D01*
X138936744Y-67016320D01*
X138963252Y-67016320D01*
X139002127Y-67020500D01*
X139397872Y-67020499D01*
X139397873Y-67020498D01*
X139397885Y-67020498D01*
X139436744Y-67016320D01*
X139463252Y-67016320D01*
X139502127Y-67020500D01*
X139897872Y-67020499D01*
X139897873Y-67020498D01*
X139897885Y-67020498D01*
X139936744Y-67016320D01*
X139963252Y-67016320D01*
X140002127Y-67020500D01*
X140397872Y-67020499D01*
X140397873Y-67020498D01*
X140397885Y-67020498D01*
X140436744Y-67016320D01*
X140463252Y-67016320D01*
X140502127Y-67020500D01*
X140897872Y-67020499D01*
X140897873Y-67020498D01*
X140897885Y-67020498D01*
X140936744Y-67016320D01*
X140963252Y-67016320D01*
X141002127Y-67020500D01*
X141397872Y-67020499D01*
X141397873Y-67020498D01*
X141397885Y-67020498D01*
X141436744Y-67016320D01*
X141463252Y-67016320D01*
X141502127Y-67020500D01*
X141897872Y-67020499D01*
X141957483Y-67014091D01*
X142092331Y-66963796D01*
X142207546Y-66877546D01*
X142207548Y-66877542D01*
X142209055Y-66876415D01*
X142274519Y-66851997D01*
X142342792Y-66866848D01*
G37*
%TD.AperFunction*%
%TD*%
%TA.AperFunction,Conductor*%
%TO.N,GND*%
G36*
X163142539Y-59020185D02*
G01*
X163188294Y-59072989D01*
X163199500Y-59124500D01*
X163199500Y-109476000D01*
X163179815Y-109543039D01*
X163127011Y-109588794D01*
X163075500Y-109600000D01*
X141929500Y-109600000D01*
X141862461Y-109580315D01*
X141816706Y-109527511D01*
X141805500Y-109476000D01*
X141805500Y-107046225D01*
X141815218Y-107013127D01*
X141825092Y-106979329D01*
X141825160Y-106979269D01*
X141825185Y-106979186D01*
X141851095Y-106956734D01*
X141877833Y-106933502D01*
X141877921Y-106933489D01*
X141877989Y-106933431D01*
X141912501Y-106928468D01*
X141946978Y-106923463D01*
X141947058Y-106923499D01*
X141947147Y-106923487D01*
X141978803Y-106937943D01*
X142010574Y-106952400D01*
X142010644Y-106952485D01*
X142010703Y-106952512D01*
X142033723Y-106979042D01*
X142035369Y-106981596D01*
X142039480Y-106988716D01*
X142040827Y-106990063D01*
X142045226Y-106996887D01*
X142049122Y-107010090D01*
X142062620Y-107039878D01*
X142078340Y-107118907D01*
X142078342Y-107118915D01*
X142134912Y-107255488D01*
X142134919Y-107255501D01*
X142217048Y-107378415D01*
X142217051Y-107378419D01*
X142321580Y-107482948D01*
X142321584Y-107482951D01*
X142444498Y-107565080D01*
X142444511Y-107565087D01*
X142581082Y-107621656D01*
X142581087Y-107621658D01*
X142706134Y-107646532D01*
X142720943Y-107650500D01*
X142726082Y-107650500D01*
X142873918Y-107650500D01*
X142879057Y-107650500D01*
X142893865Y-107646532D01*
X143018913Y-107621658D01*
X143155495Y-107565084D01*
X143278416Y-107482951D01*
X143382951Y-107378416D01*
X143465084Y-107255495D01*
X143521658Y-107118913D01*
X143536117Y-107046225D01*
X143550500Y-106973920D01*
X143550500Y-106826079D01*
X143521659Y-106681092D01*
X143521658Y-106681091D01*
X143521658Y-106681087D01*
X143521656Y-106681082D01*
X143465087Y-106544511D01*
X143465080Y-106544498D01*
X143382951Y-106421584D01*
X143382948Y-106421580D01*
X143336819Y-106375451D01*
X143303334Y-106314128D01*
X143300500Y-106287770D01*
X143300500Y-105865317D01*
X143300499Y-105865302D01*
X143297146Y-105822690D01*
X143299121Y-105822534D01*
X143305473Y-105762284D01*
X143349202Y-105707790D01*
X143415450Y-105685588D01*
X143420132Y-105685500D01*
X143499682Y-105685500D01*
X143499690Y-105685500D01*
X143535993Y-105682643D01*
X143535995Y-105682642D01*
X143535997Y-105682642D01*
X143583272Y-105668907D01*
X143691395Y-105637494D01*
X143830687Y-105555117D01*
X143945117Y-105440687D01*
X144027494Y-105301395D01*
X144072643Y-105145993D01*
X144075500Y-105109690D01*
X144075500Y-104640310D01*
X144072643Y-104604007D01*
X144072642Y-104604004D01*
X144072400Y-104600927D01*
X144086764Y-104532550D01*
X144135815Y-104482792D01*
X144179139Y-104469735D01*
X144178969Y-104468804D01*
X144185200Y-104467665D01*
X144185204Y-104467665D01*
X144339393Y-104422869D01*
X144477598Y-104341135D01*
X144591135Y-104227598D01*
X144672869Y-104089393D01*
X144717665Y-103935204D01*
X144720500Y-103899181D01*
X144720499Y-103400820D01*
X144717665Y-103364796D01*
X144717662Y-103364786D01*
X144716913Y-103360680D01*
X144724229Y-103291195D01*
X144767951Y-103236696D01*
X144834197Y-103214486D01*
X144874688Y-103221773D01*
X144875260Y-103219890D01*
X144881082Y-103221656D01*
X144881087Y-103221658D01*
X144881091Y-103221658D01*
X144881092Y-103221659D01*
X145026079Y-103250500D01*
X145026082Y-103250500D01*
X145173920Y-103250500D01*
X145271462Y-103231096D01*
X145318913Y-103221658D01*
X145455495Y-103165084D01*
X145578416Y-103082951D01*
X145682951Y-102978416D01*
X145765084Y-102855495D01*
X145821658Y-102718913D01*
X145845308Y-102600019D01*
X145850500Y-102573920D01*
X145850500Y-102426079D01*
X145821659Y-102281092D01*
X145821658Y-102281091D01*
X145821658Y-102281087D01*
X145803572Y-102237424D01*
X145765087Y-102144511D01*
X145765080Y-102144498D01*
X145682951Y-102021584D01*
X145682948Y-102021580D01*
X145578419Y-101917051D01*
X145578415Y-101917048D01*
X145455501Y-101834919D01*
X145455488Y-101834912D01*
X145318917Y-101778343D01*
X145318907Y-101778340D01*
X145173920Y-101749500D01*
X145173918Y-101749500D01*
X145026082Y-101749500D01*
X145026080Y-101749500D01*
X144881092Y-101778340D01*
X144881082Y-101778343D01*
X144744511Y-101834912D01*
X144744498Y-101834919D01*
X144689710Y-101871528D01*
X144623032Y-101892406D01*
X144557698Y-101875158D01*
X144426393Y-101797505D01*
X144426390Y-101797504D01*
X144270997Y-101752357D01*
X144270991Y-101752356D01*
X144234697Y-101749500D01*
X144234690Y-101749500D01*
X143765310Y-101749500D01*
X143765302Y-101749500D01*
X143729008Y-101752356D01*
X143729002Y-101752357D01*
X143721559Y-101754520D01*
X143651690Y-101754317D01*
X143593022Y-101716372D01*
X143564181Y-101652733D01*
X143567194Y-101603354D01*
X143600500Y-101479057D01*
X143600500Y-99539060D01*
X143600501Y-99539047D01*
X143600501Y-99370944D01*
X143586819Y-99319883D01*
X143559577Y-99218216D01*
X143559573Y-99218209D01*
X143480524Y-99081290D01*
X143480518Y-99081282D01*
X141098917Y-96699681D01*
X141090925Y-96685046D01*
X141078914Y-96673482D01*
X141074528Y-96655016D01*
X141065432Y-96638358D01*
X141066621Y-96621726D01*
X141062768Y-96605503D01*
X141069062Y-96587596D01*
X141070416Y-96568666D01*
X141080408Y-96555318D01*
X141085938Y-96539587D01*
X141100914Y-96527925D01*
X141112288Y-96512733D01*
X141128339Y-96506571D01*
X141141067Y-96496662D01*
X141167021Y-96491724D01*
X141175406Y-96488506D01*
X141180989Y-96488000D01*
X141237720Y-96488000D01*
X141350236Y-96473187D01*
X141351861Y-96472513D01*
X141363808Y-96471431D01*
X141382813Y-96475189D01*
X141391302Y-96475189D01*
X141391705Y-96472126D01*
X141399763Y-96473186D01*
X141399764Y-96473187D01*
X141512280Y-96488000D01*
X141512287Y-96488000D01*
X141737713Y-96488000D01*
X141737720Y-96488000D01*
X141850236Y-96473187D01*
X141850236Y-96473186D01*
X141858295Y-96472126D01*
X141858698Y-96475189D01*
X141891302Y-96475189D01*
X141891705Y-96472126D01*
X141899763Y-96473186D01*
X141899764Y-96473187D01*
X142012280Y-96488000D01*
X142012287Y-96488000D01*
X142237713Y-96488000D01*
X142237720Y-96488000D01*
X142334317Y-96475282D01*
X142403349Y-96486047D01*
X142455605Y-96532426D01*
X142474500Y-96598221D01*
X142474500Y-96809069D01*
X142493686Y-96905520D01*
X142497776Y-96926082D01*
X142499499Y-96934744D01*
X142548534Y-97053126D01*
X142578602Y-97098125D01*
X142599480Y-97164802D01*
X142599500Y-97167016D01*
X142599500Y-97234697D01*
X142602356Y-97270991D01*
X142602357Y-97270997D01*
X142647504Y-97426390D01*
X142647505Y-97426393D01*
X142647506Y-97426395D01*
X142678271Y-97478415D01*
X142729881Y-97565684D01*
X142729887Y-97565692D01*
X142844307Y-97680112D01*
X142844311Y-97680115D01*
X142844313Y-97680117D01*
X142983605Y-97762494D01*
X142983612Y-97762496D01*
X143139002Y-97807642D01*
X143139005Y-97807642D01*
X143139007Y-97807643D01*
X143175310Y-97810500D01*
X143175318Y-97810500D01*
X143584682Y-97810500D01*
X143584690Y-97810500D01*
X143620993Y-97807643D01*
X143620995Y-97807642D01*
X143620997Y-97807642D01*
X143776389Y-97762496D01*
X143776389Y-97762495D01*
X143776395Y-97762494D01*
X143889179Y-97695793D01*
X143956898Y-97678612D01*
X143999745Y-97687965D01*
X144081087Y-97721658D01*
X144081091Y-97721658D01*
X144081092Y-97721659D01*
X144226079Y-97750500D01*
X144226082Y-97750500D01*
X144373920Y-97750500D01*
X144471462Y-97731096D01*
X144518913Y-97721658D01*
X144655495Y-97665084D01*
X144778416Y-97582951D01*
X144882951Y-97478416D01*
X144965084Y-97355495D01*
X145021658Y-97218913D01*
X145045685Y-97098125D01*
X145050500Y-97073920D01*
X145050500Y-96926079D01*
X145021659Y-96781092D01*
X145021658Y-96781091D01*
X145021658Y-96781087D01*
X144969438Y-96655016D01*
X144965087Y-96644511D01*
X144965080Y-96644498D01*
X144882951Y-96521584D01*
X144882948Y-96521580D01*
X144778419Y-96417051D01*
X144778415Y-96417048D01*
X144655501Y-96334919D01*
X144655488Y-96334912D01*
X144518917Y-96278343D01*
X144518907Y-96278340D01*
X144373920Y-96249500D01*
X144373918Y-96249500D01*
X144226082Y-96249500D01*
X144226080Y-96249500D01*
X144081092Y-96278340D01*
X144081087Y-96278342D01*
X143999747Y-96312033D01*
X143995296Y-96312511D01*
X143991624Y-96315069D01*
X143960872Y-96316211D01*
X143930278Y-96319500D01*
X143925020Y-96317543D01*
X143921802Y-96317663D01*
X143889176Y-96304203D01*
X143836380Y-96272980D01*
X143788696Y-96221912D01*
X143775500Y-96166248D01*
X143775500Y-94612000D01*
X143795185Y-94544961D01*
X143847989Y-94499206D01*
X143899500Y-94488000D01*
X144473431Y-94488000D01*
X145266692Y-94488000D01*
X145333731Y-94507685D01*
X145354373Y-94524319D01*
X145359558Y-94529504D01*
X145393043Y-94590827D01*
X145393494Y-94592993D01*
X145409270Y-94672303D01*
X145409272Y-94672311D01*
X145465842Y-94808884D01*
X145465849Y-94808897D01*
X145547978Y-94931811D01*
X145547981Y-94931815D01*
X145652510Y-95036344D01*
X145652514Y-95036347D01*
X145775428Y-95118476D01*
X145775441Y-95118483D01*
X145912012Y-95175052D01*
X145912017Y-95175054D01*
X145912021Y-95175054D01*
X145912022Y-95175055D01*
X146057009Y-95203896D01*
X146057012Y-95203896D01*
X146204850Y-95203896D01*
X146302392Y-95184492D01*
X146349843Y-95175054D01*
X146486425Y-95118480D01*
X146609346Y-95036347D01*
X146713881Y-94931812D01*
X146760263Y-94862396D01*
X146813874Y-94817591D01*
X146863365Y-94807287D01*
X146899620Y-94807287D01*
X147018652Y-94783609D01*
X147044613Y-94778445D01*
X147181195Y-94721871D01*
X147304116Y-94639738D01*
X147408651Y-94535203D01*
X147490784Y-94412282D01*
X147492769Y-94407491D01*
X147547356Y-94275704D01*
X147547358Y-94275700D01*
X147576200Y-94130705D01*
X147576200Y-93982869D01*
X147576200Y-93982866D01*
X147547359Y-93837879D01*
X147547358Y-93837878D01*
X147547358Y-93837874D01*
X147547356Y-93837869D01*
X147490787Y-93701298D01*
X147490780Y-93701285D01*
X147477153Y-93680891D01*
X147456275Y-93614214D01*
X147474759Y-93546834D01*
X147526738Y-93500143D01*
X147580255Y-93488000D01*
X149116692Y-93488000D01*
X149183731Y-93507685D01*
X149204373Y-93524319D01*
X157005325Y-101325272D01*
X157005326Y-101325273D01*
X157005329Y-101325275D01*
X157005331Y-101325277D01*
X157111873Y-101396465D01*
X157230256Y-101445501D01*
X157230260Y-101445501D01*
X157230261Y-101445502D01*
X157355928Y-101470500D01*
X157355931Y-101470500D01*
X157484069Y-101470500D01*
X159725501Y-101470500D01*
X159792540Y-101490185D01*
X159838295Y-101542989D01*
X159849501Y-101594500D01*
X159849501Y-101717876D01*
X159855908Y-101777483D01*
X159906202Y-101912328D01*
X159906206Y-101912335D01*
X159992452Y-102027544D01*
X159992455Y-102027547D01*
X160107664Y-102113793D01*
X160107671Y-102113797D01*
X160242517Y-102164091D01*
X160242516Y-102164091D01*
X160249444Y-102164835D01*
X160302127Y-102170500D01*
X162097872Y-102170499D01*
X162157483Y-102164091D01*
X162292331Y-102113796D01*
X162407546Y-102027546D01*
X162493796Y-101912331D01*
X162544091Y-101777483D01*
X162550500Y-101717873D01*
X162550499Y-99922128D01*
X162544091Y-99862517D01*
X162494295Y-99729008D01*
X162493797Y-99727671D01*
X162493793Y-99727664D01*
X162407547Y-99612455D01*
X162407544Y-99612452D01*
X162292335Y-99526206D01*
X162292328Y-99526202D01*
X162160917Y-99477189D01*
X162104983Y-99435318D01*
X162080566Y-99369853D01*
X162095418Y-99301580D01*
X162116563Y-99273332D01*
X162230104Y-99159792D01*
X162259097Y-99119887D01*
X162351752Y-98992357D01*
X162355051Y-98987816D01*
X162451557Y-98798412D01*
X162517246Y-98596243D01*
X162550500Y-98386287D01*
X162550500Y-98173713D01*
X162517246Y-97963757D01*
X162451557Y-97761588D01*
X162355051Y-97572184D01*
X162355049Y-97572181D01*
X162355048Y-97572179D01*
X162230109Y-97400213D01*
X162079786Y-97249890D01*
X161907820Y-97124951D01*
X161907115Y-97124591D01*
X161899054Y-97120485D01*
X161848259Y-97072512D01*
X161831463Y-97004692D01*
X161853999Y-96938556D01*
X161899054Y-96899515D01*
X161907816Y-96895051D01*
X162026161Y-96809069D01*
X162079786Y-96770109D01*
X162079788Y-96770106D01*
X162079792Y-96770104D01*
X162230104Y-96619792D01*
X162230106Y-96619788D01*
X162230109Y-96619786D01*
X162355048Y-96447820D01*
X162355047Y-96447820D01*
X162355051Y-96447816D01*
X162451557Y-96258412D01*
X162517246Y-96056243D01*
X162550500Y-95846287D01*
X162550500Y-95633713D01*
X162517246Y-95423757D01*
X162451557Y-95221588D01*
X162355051Y-95032184D01*
X162355049Y-95032181D01*
X162355048Y-95032179D01*
X162230109Y-94860213D01*
X162079786Y-94709890D01*
X161907820Y-94584951D01*
X161907115Y-94584591D01*
X161899054Y-94580485D01*
X161848259Y-94532512D01*
X161831463Y-94464692D01*
X161853999Y-94398556D01*
X161899054Y-94359515D01*
X161907816Y-94355051D01*
X162017029Y-94275704D01*
X162079786Y-94230109D01*
X162079788Y-94230106D01*
X162079792Y-94230104D01*
X162230104Y-94079792D01*
X162230106Y-94079788D01*
X162230109Y-94079786D01*
X162355048Y-93907820D01*
X162355047Y-93907820D01*
X162355051Y-93907816D01*
X162451557Y-93718412D01*
X162517246Y-93516243D01*
X162550500Y-93306287D01*
X162550500Y-93093713D01*
X162517246Y-92883757D01*
X162451557Y-92681588D01*
X162355051Y-92492184D01*
X162355049Y-92492181D01*
X162355048Y-92492179D01*
X162230109Y-92320213D01*
X162079786Y-92169890D01*
X161907820Y-92044951D01*
X161907115Y-92044591D01*
X161899054Y-92040485D01*
X161848259Y-91992512D01*
X161831463Y-91924692D01*
X161853999Y-91858556D01*
X161899054Y-91819515D01*
X161907816Y-91815051D01*
X161933901Y-91796099D01*
X162079786Y-91690109D01*
X162079788Y-91690106D01*
X162079792Y-91690104D01*
X162230104Y-91539792D01*
X162230106Y-91539788D01*
X162230109Y-91539786D01*
X162349500Y-91375456D01*
X162355051Y-91367816D01*
X162451557Y-91178412D01*
X162517246Y-90976243D01*
X162550500Y-90766287D01*
X162550500Y-90553713D01*
X162517246Y-90343757D01*
X162451557Y-90141588D01*
X162355051Y-89952184D01*
X162355049Y-89952181D01*
X162355048Y-89952179D01*
X162230109Y-89780213D01*
X162079786Y-89629890D01*
X161907820Y-89504951D01*
X161907115Y-89504591D01*
X161899054Y-89500485D01*
X161848259Y-89452512D01*
X161831463Y-89384692D01*
X161853999Y-89318556D01*
X161899054Y-89279515D01*
X161907816Y-89275051D01*
X161933263Y-89256563D01*
X162079786Y-89150109D01*
X162079788Y-89150106D01*
X162079792Y-89150104D01*
X162230104Y-88999792D01*
X162230106Y-88999788D01*
X162230109Y-88999786D01*
X162355048Y-88827820D01*
X162355047Y-88827820D01*
X162355051Y-88827816D01*
X162451557Y-88638412D01*
X162517246Y-88436243D01*
X162550500Y-88226287D01*
X162550500Y-88013713D01*
X162517246Y-87803757D01*
X162451557Y-87601588D01*
X162355051Y-87412184D01*
X162355049Y-87412181D01*
X162355048Y-87412179D01*
X162230109Y-87240213D01*
X162079786Y-87089890D01*
X161907820Y-86964951D01*
X161907115Y-86964591D01*
X161899054Y-86960485D01*
X161848259Y-86912512D01*
X161831463Y-86844692D01*
X161853999Y-86778556D01*
X161899054Y-86739515D01*
X161907816Y-86735051D01*
X161970512Y-86689500D01*
X162079786Y-86610109D01*
X162079788Y-86610106D01*
X162079792Y-86610104D01*
X162230104Y-86459792D01*
X162230106Y-86459788D01*
X162230109Y-86459786D01*
X162355048Y-86287820D01*
X162355047Y-86287820D01*
X162355051Y-86287816D01*
X162451557Y-86098412D01*
X162517246Y-85896243D01*
X162550500Y-85686287D01*
X162550500Y-85473713D01*
X162517246Y-85263757D01*
X162451557Y-85061588D01*
X162355051Y-84872184D01*
X162355049Y-84872181D01*
X162355048Y-84872179D01*
X162230109Y-84700213D01*
X162079786Y-84549890D01*
X161907820Y-84424951D01*
X161907115Y-84424591D01*
X161899054Y-84420485D01*
X161848259Y-84372512D01*
X161831463Y-84304692D01*
X161853999Y-84238556D01*
X161899054Y-84199515D01*
X161907816Y-84195051D01*
X162034834Y-84102768D01*
X162079786Y-84070109D01*
X162079788Y-84070106D01*
X162079792Y-84070104D01*
X162230104Y-83919792D01*
X162230106Y-83919788D01*
X162230109Y-83919786D01*
X162355048Y-83747820D01*
X162355047Y-83747820D01*
X162355051Y-83747816D01*
X162451557Y-83558412D01*
X162517246Y-83356243D01*
X162550500Y-83146287D01*
X162550500Y-82933713D01*
X162517246Y-82723757D01*
X162451557Y-82521588D01*
X162355051Y-82332184D01*
X162355049Y-82332181D01*
X162355048Y-82332179D01*
X162230109Y-82160213D01*
X162079786Y-82009890D01*
X161907820Y-81884951D01*
X161907115Y-81884591D01*
X161899054Y-81880485D01*
X161848259Y-81832512D01*
X161831463Y-81764692D01*
X161853999Y-81698556D01*
X161899054Y-81659515D01*
X161907816Y-81655051D01*
X161957117Y-81619232D01*
X162079786Y-81530109D01*
X162079788Y-81530106D01*
X162079792Y-81530104D01*
X162230104Y-81379792D01*
X162230106Y-81379788D01*
X162230109Y-81379786D01*
X162355048Y-81207820D01*
X162355047Y-81207820D01*
X162355051Y-81207816D01*
X162451557Y-81018412D01*
X162517246Y-80816243D01*
X162550500Y-80606287D01*
X162550500Y-80393713D01*
X162517246Y-80183757D01*
X162451557Y-79981588D01*
X162355051Y-79792184D01*
X162355049Y-79792181D01*
X162355048Y-79792179D01*
X162230109Y-79620213D01*
X162079786Y-79469890D01*
X161907820Y-79344951D01*
X161907115Y-79344591D01*
X161899054Y-79340485D01*
X161848259Y-79292512D01*
X161831463Y-79224692D01*
X161853999Y-79158556D01*
X161899054Y-79119515D01*
X161907816Y-79115051D01*
X161988813Y-79056204D01*
X162079786Y-78990109D01*
X162079788Y-78990106D01*
X162079792Y-78990104D01*
X162230104Y-78839792D01*
X162230106Y-78839788D01*
X162230109Y-78839786D01*
X162355048Y-78667820D01*
X162355047Y-78667820D01*
X162355051Y-78667816D01*
X162451557Y-78478412D01*
X162517246Y-78276243D01*
X162550500Y-78066287D01*
X162550500Y-77853713D01*
X162517246Y-77643757D01*
X162451557Y-77441588D01*
X162355051Y-77252184D01*
X162355049Y-77252181D01*
X162355048Y-77252179D01*
X162230109Y-77080213D01*
X162079786Y-76929890D01*
X161907820Y-76804951D01*
X161907115Y-76804591D01*
X161899054Y-76800485D01*
X161848259Y-76752512D01*
X161831463Y-76684692D01*
X161853999Y-76618556D01*
X161899054Y-76579515D01*
X161907816Y-76575051D01*
X161985527Y-76518591D01*
X162079786Y-76450109D01*
X162079788Y-76450106D01*
X162079792Y-76450104D01*
X162230104Y-76299792D01*
X162230106Y-76299788D01*
X162230109Y-76299786D01*
X162355048Y-76127820D01*
X162355047Y-76127820D01*
X162355051Y-76127816D01*
X162451557Y-75938412D01*
X162517246Y-75736243D01*
X162550500Y-75526287D01*
X162550500Y-75313713D01*
X162517246Y-75103757D01*
X162451557Y-74901588D01*
X162355051Y-74712184D01*
X162355049Y-74712181D01*
X162355048Y-74712179D01*
X162230109Y-74540213D01*
X162079786Y-74389890D01*
X161907820Y-74264951D01*
X161907115Y-74264591D01*
X161899054Y-74260485D01*
X161848259Y-74212512D01*
X161831463Y-74144692D01*
X161853999Y-74078556D01*
X161899054Y-74039515D01*
X161907816Y-74035051D01*
X161959131Y-73997769D01*
X162079786Y-73910109D01*
X162079788Y-73910106D01*
X162079792Y-73910104D01*
X162230104Y-73759792D01*
X162230106Y-73759788D01*
X162230109Y-73759786D01*
X162355048Y-73587820D01*
X162355047Y-73587820D01*
X162355051Y-73587816D01*
X162451557Y-73398412D01*
X162517246Y-73196243D01*
X162550500Y-72986287D01*
X162550500Y-72773713D01*
X162517246Y-72563757D01*
X162451557Y-72361588D01*
X162355051Y-72172184D01*
X162355049Y-72172181D01*
X162355048Y-72172179D01*
X162230109Y-72000213D01*
X162079786Y-71849890D01*
X161907820Y-71724951D01*
X161907115Y-71724591D01*
X161899054Y-71720485D01*
X161848259Y-71672512D01*
X161831463Y-71604692D01*
X161853999Y-71538556D01*
X161899054Y-71499515D01*
X161907816Y-71495051D01*
X161929789Y-71479086D01*
X162079786Y-71370109D01*
X162079788Y-71370106D01*
X162079792Y-71370104D01*
X162230104Y-71219792D01*
X162230106Y-71219788D01*
X162230109Y-71219786D01*
X162339086Y-71069789D01*
X162355051Y-71047816D01*
X162451557Y-70858412D01*
X162517246Y-70656243D01*
X162550500Y-70446287D01*
X162550500Y-70233713D01*
X162517246Y-70023757D01*
X162451557Y-69821588D01*
X162355051Y-69632184D01*
X162355049Y-69632181D01*
X162355048Y-69632179D01*
X162230109Y-69460213D01*
X162079786Y-69309890D01*
X161907820Y-69184951D01*
X161907115Y-69184591D01*
X161899054Y-69180485D01*
X161848259Y-69132512D01*
X161831463Y-69064692D01*
X161853999Y-68998556D01*
X161899054Y-68959515D01*
X161907816Y-68955051D01*
X161949179Y-68924999D01*
X162079786Y-68830109D01*
X162079788Y-68830106D01*
X162079792Y-68830104D01*
X162230104Y-68679792D01*
X162230106Y-68679788D01*
X162230109Y-68679786D01*
X162355048Y-68507820D01*
X162355047Y-68507820D01*
X162355051Y-68507816D01*
X162451557Y-68318412D01*
X162517246Y-68116243D01*
X162550500Y-67906287D01*
X162550500Y-67693713D01*
X162517246Y-67483757D01*
X162451557Y-67281588D01*
X162355051Y-67092184D01*
X162355049Y-67092181D01*
X162355048Y-67092179D01*
X162230109Y-66920213D01*
X162079786Y-66769890D01*
X161907820Y-66644951D01*
X161907115Y-66644591D01*
X161899054Y-66640485D01*
X161848259Y-66592512D01*
X161831463Y-66524692D01*
X161853999Y-66458556D01*
X161899054Y-66419515D01*
X161907816Y-66415051D01*
X161969510Y-66370228D01*
X162079786Y-66290109D01*
X162079788Y-66290106D01*
X162079792Y-66290104D01*
X162230104Y-66139792D01*
X162230106Y-66139788D01*
X162230109Y-66139786D01*
X162355048Y-65967820D01*
X162355047Y-65967820D01*
X162355051Y-65967816D01*
X162451557Y-65778412D01*
X162517246Y-65576243D01*
X162550500Y-65366287D01*
X162550500Y-65153713D01*
X162517246Y-64943757D01*
X162451557Y-64741588D01*
X162355051Y-64552184D01*
X162355049Y-64552181D01*
X162355048Y-64552179D01*
X162230109Y-64380213D01*
X162079786Y-64229890D01*
X161907820Y-64104951D01*
X161718414Y-64008444D01*
X161718413Y-64008443D01*
X161718412Y-64008443D01*
X161516243Y-63942754D01*
X161516241Y-63942753D01*
X161516240Y-63942753D01*
X161354957Y-63917208D01*
X161306287Y-63909500D01*
X161093713Y-63909500D01*
X161045042Y-63917208D01*
X160883760Y-63942753D01*
X160681585Y-64008444D01*
X160492179Y-64104951D01*
X160320213Y-64229890D01*
X160169890Y-64380213D01*
X160044951Y-64552179D01*
X159948444Y-64741585D01*
X159882753Y-64943760D01*
X159849500Y-65153713D01*
X159849500Y-65366286D01*
X159878966Y-65552331D01*
X159882754Y-65576243D01*
X159933540Y-65732547D01*
X159948444Y-65778414D01*
X160044951Y-65967820D01*
X160169890Y-66139786D01*
X160320213Y-66290109D01*
X160492182Y-66415050D01*
X160500946Y-66419516D01*
X160551742Y-66467491D01*
X160568536Y-66535312D01*
X160545998Y-66601447D01*
X160500946Y-66640484D01*
X160492182Y-66644949D01*
X160320213Y-66769890D01*
X160169890Y-66920213D01*
X160044951Y-67092179D01*
X159948444Y-67281585D01*
X159882753Y-67483760D01*
X159865653Y-67591728D01*
X159849500Y-67693713D01*
X159849500Y-67906287D01*
X159859534Y-67969644D01*
X159879299Y-68094434D01*
X159882754Y-68116243D01*
X159946411Y-68312159D01*
X159948444Y-68318414D01*
X160044951Y-68507820D01*
X160169890Y-68679786D01*
X160320213Y-68830109D01*
X160492182Y-68955050D01*
X160500946Y-68959516D01*
X160551742Y-69007491D01*
X160568536Y-69075312D01*
X160545998Y-69141447D01*
X160500946Y-69180484D01*
X160492182Y-69184949D01*
X160320213Y-69309890D01*
X160169890Y-69460213D01*
X160044951Y-69632179D01*
X159948444Y-69821585D01*
X159882753Y-70023760D01*
X159849500Y-70233713D01*
X159849500Y-70446286D01*
X159876138Y-70614476D01*
X159882754Y-70656243D01*
X159932737Y-70810075D01*
X159948444Y-70858414D01*
X160044951Y-71047820D01*
X160169890Y-71219786D01*
X160320213Y-71370109D01*
X160492182Y-71495050D01*
X160500946Y-71499516D01*
X160551742Y-71547491D01*
X160568536Y-71615312D01*
X160545998Y-71681447D01*
X160500946Y-71720484D01*
X160492182Y-71724949D01*
X160320213Y-71849890D01*
X160169890Y-72000213D01*
X160044951Y-72172179D01*
X159948444Y-72361585D01*
X159882753Y-72563760D01*
X159849500Y-72773713D01*
X159849500Y-72986286D01*
X159875893Y-73152929D01*
X159882754Y-73196243D01*
X159914996Y-73295474D01*
X159948444Y-73398414D01*
X160044951Y-73587820D01*
X160169890Y-73759786D01*
X160320213Y-73910109D01*
X160492182Y-74035050D01*
X160500946Y-74039516D01*
X160551742Y-74087491D01*
X160568536Y-74155312D01*
X160545998Y-74221447D01*
X160500946Y-74260484D01*
X160492182Y-74264949D01*
X160320213Y-74389890D01*
X160169890Y-74540213D01*
X160044951Y-74712179D01*
X159948444Y-74901585D01*
X159882753Y-75103760D01*
X159878567Y-75130191D01*
X159849500Y-75313713D01*
X159849500Y-75526287D01*
X159882754Y-75736243D01*
X159944806Y-75927220D01*
X159948444Y-75938414D01*
X160044951Y-76127820D01*
X160169890Y-76299786D01*
X160320213Y-76450109D01*
X160492182Y-76575050D01*
X160500946Y-76579516D01*
X160551742Y-76627491D01*
X160568536Y-76695312D01*
X160545998Y-76761447D01*
X160500946Y-76800484D01*
X160492182Y-76804949D01*
X160320213Y-76929890D01*
X160169890Y-77080213D01*
X160044951Y-77252179D01*
X159948444Y-77441585D01*
X159882753Y-77643760D01*
X159865340Y-77753705D01*
X159849500Y-77853713D01*
X159849500Y-78066287D01*
X159853729Y-78092985D01*
X159882753Y-78276239D01*
X159948444Y-78478414D01*
X160044951Y-78667820D01*
X160169890Y-78839786D01*
X160320213Y-78990109D01*
X160492182Y-79115050D01*
X160500946Y-79119516D01*
X160551742Y-79167491D01*
X160568536Y-79235312D01*
X160545998Y-79301447D01*
X160500946Y-79340484D01*
X160492182Y-79344949D01*
X160320213Y-79469890D01*
X160169890Y-79620213D01*
X160044951Y-79792179D01*
X159948444Y-79981585D01*
X159882753Y-80183760D01*
X159849500Y-80393713D01*
X159849500Y-80606286D01*
X159882753Y-80816239D01*
X159948444Y-81018414D01*
X160044951Y-81207820D01*
X160169890Y-81379786D01*
X160320213Y-81530109D01*
X160492182Y-81655050D01*
X160500946Y-81659516D01*
X160551742Y-81707491D01*
X160568536Y-81775312D01*
X160545998Y-81841447D01*
X160500946Y-81880484D01*
X160492182Y-81884949D01*
X160320213Y-82009890D01*
X160169890Y-82160213D01*
X160044951Y-82332179D01*
X159948444Y-82521585D01*
X159882753Y-82723760D01*
X159849500Y-82933713D01*
X159849500Y-83146286D01*
X159880895Y-83344511D01*
X159882754Y-83356243D01*
X159926583Y-83491135D01*
X159948444Y-83558414D01*
X160044951Y-83747820D01*
X160169890Y-83919786D01*
X160320213Y-84070109D01*
X160492182Y-84195050D01*
X160500946Y-84199516D01*
X160551742Y-84247491D01*
X160568536Y-84315312D01*
X160545998Y-84381447D01*
X160500946Y-84420484D01*
X160492182Y-84424949D01*
X160320213Y-84549890D01*
X160169890Y-84700213D01*
X160042085Y-84876125D01*
X160040740Y-84875148D01*
X159994295Y-84917166D01*
X159940382Y-84929500D01*
X153455929Y-84929500D01*
X153330261Y-84954497D01*
X153330255Y-84954499D01*
X153211870Y-85003535D01*
X153105331Y-85074722D01*
X153105324Y-85074728D01*
X149518794Y-88661259D01*
X149457471Y-88694744D01*
X149387779Y-88689760D01*
X149331846Y-88647888D01*
X149307429Y-88582424D01*
X149309495Y-88549390D01*
X149320500Y-88494069D01*
X149320500Y-84559617D01*
X149340185Y-84492578D01*
X149374592Y-84458902D01*
X149373874Y-84457914D01*
X149377811Y-84455053D01*
X149377816Y-84455051D01*
X149549792Y-84330104D01*
X149663329Y-84216566D01*
X149724648Y-84183084D01*
X149794340Y-84188068D01*
X149850274Y-84229939D01*
X149867189Y-84260917D01*
X149916202Y-84392328D01*
X149916206Y-84392335D01*
X150002452Y-84507544D01*
X150002455Y-84507547D01*
X150117664Y-84593793D01*
X150117671Y-84593797D01*
X150252517Y-84644091D01*
X150252516Y-84644091D01*
X150259444Y-84644835D01*
X150312127Y-84650500D01*
X152107872Y-84650499D01*
X152167483Y-84644091D01*
X152302331Y-84593796D01*
X152417546Y-84507546D01*
X152503796Y-84392331D01*
X152554091Y-84257483D01*
X152560500Y-84197873D01*
X152560499Y-82402128D01*
X152554091Y-82342517D01*
X152552810Y-82339083D01*
X152503797Y-82207671D01*
X152503793Y-82207664D01*
X152417547Y-82092455D01*
X152417544Y-82092452D01*
X152302335Y-82006206D01*
X152302328Y-82006202D01*
X152167482Y-81955908D01*
X152167483Y-81955908D01*
X152107883Y-81949501D01*
X152107881Y-81949500D01*
X152107873Y-81949500D01*
X152107864Y-81949500D01*
X150312129Y-81949500D01*
X150312123Y-81949501D01*
X150252516Y-81955908D01*
X150117671Y-82006202D01*
X150117664Y-82006206D01*
X150002455Y-82092452D01*
X150002452Y-82092455D01*
X149916206Y-82207664D01*
X149916203Y-82207669D01*
X149867189Y-82339083D01*
X149825317Y-82395016D01*
X149759853Y-82419433D01*
X149691580Y-82404581D01*
X149663326Y-82383430D01*
X149549786Y-82269890D01*
X149377820Y-82144951D01*
X149188414Y-82048444D01*
X149188413Y-82048443D01*
X149188412Y-82048443D01*
X148986243Y-81982754D01*
X148986241Y-81982753D01*
X148986240Y-81982753D01*
X148824957Y-81957208D01*
X148776287Y-81949500D01*
X148563713Y-81949500D01*
X148515042Y-81957208D01*
X148353760Y-81982753D01*
X148151585Y-82048444D01*
X147962179Y-82144951D01*
X147790213Y-82269890D01*
X147639890Y-82420213D01*
X147514949Y-82592182D01*
X147510484Y-82600946D01*
X147462509Y-82651742D01*
X147394688Y-82668536D01*
X147328553Y-82645998D01*
X147289516Y-82600946D01*
X147285050Y-82592182D01*
X147160109Y-82420213D01*
X147009786Y-82269890D01*
X146837820Y-82144951D01*
X146648414Y-82048444D01*
X146648413Y-82048443D01*
X146648412Y-82048443D01*
X146446243Y-81982754D01*
X146446241Y-81982753D01*
X146446240Y-81982753D01*
X146284957Y-81957208D01*
X146236287Y-81949500D01*
X146023713Y-81949500D01*
X145975042Y-81957208D01*
X145813760Y-81982753D01*
X145611585Y-82048444D01*
X145422179Y-82144951D01*
X145250213Y-82269890D01*
X145099890Y-82420213D01*
X144974951Y-82592179D01*
X144878444Y-82781585D01*
X144812753Y-82983760D01*
X144779500Y-83193713D01*
X144779500Y-83406287D01*
X144779499Y-83406287D01*
X144809850Y-83597916D01*
X144800895Y-83667209D01*
X144775058Y-83704994D01*
X143408391Y-85071661D01*
X143347068Y-85105146D01*
X143277376Y-85100162D01*
X143233029Y-85071661D01*
X143128419Y-84967051D01*
X143128415Y-84967048D01*
X143005501Y-84884919D01*
X143005488Y-84884912D01*
X142868917Y-84828343D01*
X142868907Y-84828340D01*
X142723920Y-84799500D01*
X142723918Y-84799500D01*
X142576082Y-84799500D01*
X142576075Y-84799500D01*
X142558056Y-84803084D01*
X142488465Y-84796854D01*
X142446189Y-84769147D01*
X142375023Y-84697981D01*
X142375019Y-84697978D01*
X142252105Y-84615849D01*
X142252092Y-84615842D01*
X142115521Y-84559273D01*
X142115511Y-84559270D01*
X141970524Y-84530430D01*
X141970522Y-84530430D01*
X141822686Y-84530430D01*
X141822684Y-84530430D01*
X141677696Y-84559270D01*
X141677686Y-84559273D01*
X141541115Y-84615842D01*
X141541102Y-84615849D01*
X141418188Y-84697978D01*
X141418184Y-84697981D01*
X141313655Y-84802510D01*
X141313650Y-84802516D01*
X141277523Y-84856584D01*
X141223911Y-84901388D01*
X141154586Y-84910095D01*
X141091559Y-84879940D01*
X141086741Y-84875373D01*
X140978419Y-84767051D01*
X140978415Y-84767048D01*
X140855501Y-84684919D01*
X140855488Y-84684912D01*
X140718917Y-84628343D01*
X140718907Y-84628340D01*
X140573920Y-84599500D01*
X140573918Y-84599500D01*
X140426082Y-84599500D01*
X140426077Y-84599500D01*
X140423679Y-84599977D01*
X140422399Y-84599862D01*
X140420017Y-84600097D01*
X140419972Y-84599644D01*
X140354088Y-84593742D01*
X140298915Y-84550873D01*
X140275677Y-84484981D01*
X140275500Y-84478357D01*
X140275500Y-82560928D01*
X140250502Y-82435261D01*
X140250501Y-82435260D01*
X140250501Y-82435256D01*
X140201465Y-82316873D01*
X140170076Y-82269896D01*
X140130276Y-82210330D01*
X140130274Y-82210328D01*
X140130272Y-82210325D01*
X138614673Y-80694726D01*
X138614669Y-80694723D01*
X138508127Y-80623535D01*
X138466484Y-80606286D01*
X138389744Y-80574499D01*
X138389738Y-80574497D01*
X138264071Y-80549500D01*
X138264069Y-80549500D01*
X135520808Y-80549500D01*
X135453769Y-80529815D01*
X135433127Y-80513181D01*
X134196819Y-79276873D01*
X134163334Y-79215550D01*
X134160500Y-79189192D01*
X134160500Y-77395684D01*
X134177768Y-77332563D01*
X134232869Y-77239393D01*
X134277665Y-77085204D01*
X134280500Y-77049181D01*
X134280499Y-76550820D01*
X134277665Y-76514796D01*
X134232869Y-76360607D01*
X134151135Y-76222402D01*
X134151133Y-76222400D01*
X134151130Y-76222396D01*
X134037603Y-76108869D01*
X134037595Y-76108863D01*
X133899393Y-76027131D01*
X133899388Y-76027129D01*
X133745208Y-75982335D01*
X133745202Y-75982334D01*
X133709181Y-75979500D01*
X133310830Y-75979500D01*
X133310808Y-75979501D01*
X133274799Y-75982334D01*
X133274796Y-75982335D01*
X133217847Y-75998879D01*
X133147980Y-75998680D01*
X133089310Y-75960737D01*
X133068682Y-75927226D01*
X133067875Y-75925276D01*
X133066466Y-75921874D01*
X132995277Y-75815331D01*
X132995275Y-75815328D01*
X132995272Y-75815325D01*
X131210657Y-74030711D01*
X131177172Y-73969388D01*
X131177689Y-73921245D01*
X131176484Y-73921055D01*
X131193105Y-73816111D01*
X131210500Y-73706287D01*
X131210500Y-73493713D01*
X131177246Y-73283757D01*
X131111557Y-73081588D01*
X131015051Y-72892184D01*
X131015049Y-72892181D01*
X131015048Y-72892179D01*
X130890109Y-72720213D01*
X130739786Y-72569890D01*
X130567820Y-72444951D01*
X130378414Y-72348444D01*
X130378413Y-72348443D01*
X130378412Y-72348443D01*
X130176243Y-72282754D01*
X130176241Y-72282753D01*
X130176240Y-72282753D01*
X130014957Y-72257208D01*
X129966287Y-72249500D01*
X129753713Y-72249500D01*
X129705042Y-72257208D01*
X129543760Y-72282753D01*
X129341585Y-72348444D01*
X129152179Y-72444951D01*
X128980215Y-72569889D01*
X128866673Y-72683431D01*
X128805350Y-72716915D01*
X128735658Y-72711931D01*
X128679725Y-72670059D01*
X128662810Y-72639082D01*
X128613797Y-72507671D01*
X128613793Y-72507664D01*
X128527547Y-72392455D01*
X128527544Y-72392452D01*
X128412335Y-72306206D01*
X128412328Y-72306202D01*
X128277482Y-72255908D01*
X128277483Y-72255908D01*
X128217883Y-72249501D01*
X128217881Y-72249500D01*
X128217873Y-72249500D01*
X128217864Y-72249500D01*
X126422129Y-72249500D01*
X126422123Y-72249501D01*
X126362516Y-72255908D01*
X126227671Y-72306202D01*
X126227664Y-72306206D01*
X126112455Y-72392452D01*
X126112452Y-72392455D01*
X126026206Y-72507664D01*
X126026202Y-72507671D01*
X125975908Y-72642517D01*
X125969501Y-72702116D01*
X125969500Y-72702135D01*
X125969500Y-74497870D01*
X125969501Y-74497876D01*
X125975908Y-74557483D01*
X126026202Y-74692328D01*
X126026206Y-74692335D01*
X126112452Y-74807544D01*
X126112455Y-74807547D01*
X126227664Y-74893793D01*
X126227671Y-74893797D01*
X126362517Y-74944091D01*
X126362516Y-74944091D01*
X126369444Y-74944835D01*
X126422127Y-74950500D01*
X128217872Y-74950499D01*
X128277483Y-74944091D01*
X128412331Y-74893796D01*
X128527546Y-74807546D01*
X128613796Y-74692331D01*
X128662810Y-74560916D01*
X128704681Y-74504984D01*
X128770145Y-74480566D01*
X128838418Y-74495417D01*
X128866673Y-74516569D01*
X128980213Y-74630109D01*
X129152179Y-74755048D01*
X129152181Y-74755049D01*
X129152184Y-74755051D01*
X129341588Y-74851557D01*
X129543757Y-74917246D01*
X129753713Y-74950500D01*
X129753714Y-74950500D01*
X129966286Y-74950500D01*
X129966287Y-74950500D01*
X130076111Y-74933105D01*
X130181055Y-74916484D01*
X130181315Y-74918128D01*
X130243852Y-74921250D01*
X130290711Y-74950657D01*
X131700312Y-76360258D01*
X131733797Y-76421581D01*
X131731708Y-76482532D01*
X131722336Y-76514792D01*
X131722334Y-76514802D01*
X131719500Y-76550811D01*
X131719500Y-77049169D01*
X131719501Y-77049191D01*
X131722335Y-77085205D01*
X131767129Y-77239388D01*
X131767131Y-77239393D01*
X131848863Y-77377595D01*
X131848869Y-77377603D01*
X131962396Y-77491130D01*
X131962400Y-77491133D01*
X131962402Y-77491135D01*
X132100607Y-77572869D01*
X132141268Y-77584682D01*
X132254791Y-77617664D01*
X132254794Y-77617664D01*
X132254796Y-77617665D01*
X132290819Y-77620500D01*
X132689180Y-77620499D01*
X132725204Y-77617665D01*
X132725204Y-77617664D01*
X132725774Y-77617620D01*
X132794151Y-77631986D01*
X132843907Y-77681038D01*
X132859500Y-77741238D01*
X132859500Y-79574069D01*
X132859500Y-79574071D01*
X132859499Y-79574071D01*
X132884497Y-79699738D01*
X132884499Y-79699744D01*
X132933534Y-79818125D01*
X133004726Y-79924673D01*
X134785328Y-81705275D01*
X134785331Y-81705277D01*
X134842980Y-81743796D01*
X134891873Y-81776465D01*
X135010256Y-81825501D01*
X135010260Y-81825501D01*
X135010261Y-81825502D01*
X135135928Y-81850500D01*
X135135931Y-81850500D01*
X137879192Y-81850500D01*
X137946231Y-81870185D01*
X137966873Y-81886819D01*
X138938181Y-82858127D01*
X138971666Y-82919450D01*
X138974500Y-82945808D01*
X138974500Y-85576778D01*
X138954815Y-85643817D01*
X138902011Y-85689572D01*
X138834314Y-85699716D01*
X138819323Y-85697743D01*
X138737727Y-85687000D01*
X138737720Y-85687000D01*
X138512280Y-85687000D01*
X138512272Y-85687000D01*
X138399764Y-85701813D01*
X138399763Y-85701813D01*
X138259765Y-85759802D01*
X138244177Y-85771763D01*
X138243462Y-85772039D01*
X138243004Y-85772652D01*
X138210931Y-85784614D01*
X138179008Y-85796955D01*
X138178258Y-85796801D01*
X138177540Y-85797069D01*
X138144089Y-85789792D01*
X138110563Y-85782915D01*
X138109765Y-85782325D01*
X138109267Y-85782217D01*
X138081013Y-85761066D01*
X137925476Y-85605529D01*
X137891991Y-85544206D01*
X137894082Y-85483250D01*
X137897642Y-85470996D01*
X137897643Y-85470991D01*
X137900499Y-85434697D01*
X137900500Y-85434690D01*
X137900500Y-84965310D01*
X137897643Y-84929007D01*
X137896605Y-84925435D01*
X137864400Y-84814587D01*
X137852494Y-84773605D01*
X137821729Y-84721584D01*
X137787768Y-84664157D01*
X137770500Y-84601037D01*
X137770500Y-84280928D01*
X137745502Y-84155261D01*
X137745501Y-84155260D01*
X137745501Y-84155256D01*
X137696465Y-84036873D01*
X137625277Y-83930331D01*
X137625275Y-83930329D01*
X137625273Y-83930326D01*
X137461818Y-83766871D01*
X137428333Y-83705548D01*
X137425499Y-83679190D01*
X137425499Y-83401662D01*
X137425498Y-83401644D01*
X137415349Y-83302292D01*
X137415348Y-83302289D01*
X137362003Y-83141303D01*
X137361999Y-83141297D01*
X137361998Y-83141294D01*
X137272970Y-82996959D01*
X137272967Y-82996955D01*
X137153044Y-82877032D01*
X137153040Y-82877029D01*
X137008705Y-82788001D01*
X137008699Y-82787998D01*
X137008697Y-82787997D01*
X136989347Y-82781585D01*
X136847709Y-82734651D01*
X136748346Y-82724500D01*
X136201662Y-82724500D01*
X136201644Y-82724501D01*
X136102292Y-82734650D01*
X136102289Y-82734651D01*
X135941305Y-82787996D01*
X135941294Y-82788001D01*
X135796959Y-82877029D01*
X135738075Y-82935912D01*
X135676751Y-82969396D01*
X135626203Y-82969846D01*
X135523920Y-82949500D01*
X135523918Y-82949500D01*
X135376082Y-82949500D01*
X135376080Y-82949500D01*
X135231092Y-82978340D01*
X135231082Y-82978343D01*
X135094511Y-83034912D01*
X135094498Y-83034919D01*
X134971584Y-83117048D01*
X134971580Y-83117051D01*
X134867051Y-83221580D01*
X134867048Y-83221584D01*
X134784919Y-83344498D01*
X134784912Y-83344511D01*
X134728343Y-83481082D01*
X134728340Y-83481092D01*
X134699500Y-83626079D01*
X134699500Y-83626082D01*
X134699500Y-83773918D01*
X134699500Y-83773920D01*
X134699499Y-83773920D01*
X134728340Y-83918907D01*
X134728343Y-83918917D01*
X134784912Y-84055488D01*
X134784919Y-84055501D01*
X134867048Y-84178415D01*
X134867051Y-84178419D01*
X134971580Y-84282948D01*
X134971584Y-84282951D01*
X135094498Y-84365080D01*
X135094511Y-84365087D01*
X135231082Y-84421656D01*
X135231087Y-84421658D01*
X135231091Y-84421658D01*
X135231092Y-84421659D01*
X135376079Y-84450500D01*
X135376082Y-84450500D01*
X135523919Y-84450500D01*
X135546344Y-84446039D01*
X135577648Y-84439812D01*
X135647239Y-84446039D01*
X135702417Y-84488901D01*
X135725662Y-84554790D01*
X135709595Y-84622787D01*
X135689522Y-84649110D01*
X135617048Y-84721584D01*
X135534919Y-84844498D01*
X135534912Y-84844511D01*
X135478343Y-84981082D01*
X135478340Y-84981094D01*
X135477590Y-84984864D01*
X135476653Y-84986654D01*
X135476573Y-84986919D01*
X135476522Y-84986903D01*
X135445201Y-85046774D01*
X135384483Y-85081344D01*
X135314714Y-85077600D01*
X135268293Y-85048347D01*
X132642764Y-82422818D01*
X132622547Y-82396243D01*
X132615409Y-82383639D01*
X132612494Y-82373605D01*
X132547191Y-82263184D01*
X132546602Y-82262143D01*
X132542984Y-82246670D01*
X132530500Y-82201037D01*
X132530500Y-80940928D01*
X132505502Y-80815261D01*
X132505501Y-80815260D01*
X132505501Y-80815256D01*
X132459937Y-80705257D01*
X132450499Y-80657805D01*
X132450499Y-79452129D01*
X132450498Y-79452123D01*
X132450497Y-79452116D01*
X132444091Y-79392517D01*
X132426349Y-79344949D01*
X132393797Y-79257671D01*
X132393793Y-79257664D01*
X132307547Y-79142455D01*
X132307544Y-79142452D01*
X132192335Y-79056206D01*
X132192328Y-79056202D01*
X132057482Y-79005908D01*
X132057483Y-79005908D01*
X131997883Y-78999501D01*
X131997881Y-78999500D01*
X131997873Y-78999500D01*
X131997864Y-78999500D01*
X130552129Y-78999500D01*
X130552123Y-78999501D01*
X130492516Y-79005908D01*
X130357671Y-79056202D01*
X130357664Y-79056206D01*
X130242455Y-79142452D01*
X130242452Y-79142455D01*
X130156206Y-79257664D01*
X130156202Y-79257671D01*
X130105908Y-79392517D01*
X130099501Y-79452116D01*
X130099501Y-79452123D01*
X130099500Y-79452135D01*
X130099500Y-81347870D01*
X130099501Y-81347876D01*
X130105908Y-81407483D01*
X130156202Y-81542328D01*
X130156206Y-81542335D01*
X130242452Y-81657544D01*
X130242455Y-81657547D01*
X130357664Y-81743793D01*
X130357671Y-81743797D01*
X130378477Y-81751557D01*
X130492517Y-81794091D01*
X130552127Y-81800500D01*
X131105500Y-81800499D01*
X131172539Y-81820183D01*
X131218294Y-81872987D01*
X131229500Y-81924499D01*
X131229500Y-82201037D01*
X131212232Y-82264157D01*
X131147507Y-82373602D01*
X131147504Y-82373609D01*
X131102357Y-82529002D01*
X131102356Y-82529008D01*
X131099500Y-82565302D01*
X131099500Y-83034697D01*
X131102356Y-83070991D01*
X131102357Y-83070997D01*
X131147504Y-83226390D01*
X131147505Y-83226393D01*
X131229881Y-83365684D01*
X131229887Y-83365692D01*
X131344307Y-83480112D01*
X131344311Y-83480115D01*
X131344313Y-83480117D01*
X131483605Y-83562494D01*
X131519312Y-83572868D01*
X131639002Y-83607642D01*
X131639005Y-83607642D01*
X131639007Y-83607643D01*
X131675310Y-83610500D01*
X131939192Y-83610500D01*
X132006231Y-83630185D01*
X132026873Y-83646819D01*
X134767873Y-86387819D01*
X134801358Y-86449142D01*
X134796374Y-86518834D01*
X134754502Y-86574767D01*
X134689038Y-86599184D01*
X134680192Y-86599500D01*
X134465302Y-86599500D01*
X134429008Y-86602356D01*
X134429002Y-86602357D01*
X134273609Y-86647504D01*
X134273606Y-86647505D01*
X134134315Y-86729881D01*
X134134307Y-86729887D01*
X134019887Y-86844307D01*
X134019881Y-86844315D01*
X133937505Y-86983606D01*
X133937503Y-86983609D01*
X133920821Y-87041032D01*
X133883215Y-87099918D01*
X133819742Y-87129124D01*
X133750555Y-87119378D01*
X133714064Y-87094118D01*
X131564674Y-84944727D01*
X131564673Y-84944726D01*
X131564669Y-84944723D01*
X131458127Y-84873535D01*
X131454865Y-84872184D01*
X131388057Y-84844511D01*
X131339744Y-84824499D01*
X131339742Y-84824498D01*
X131339741Y-84824498D01*
X131334903Y-84823536D01*
X131334898Y-84823535D01*
X131214071Y-84799500D01*
X131214069Y-84799500D01*
X126370807Y-84799500D01*
X126303768Y-84779815D01*
X126283126Y-84763181D01*
X124286819Y-82766873D01*
X124272115Y-82739945D01*
X124255523Y-82714127D01*
X124254631Y-82707926D01*
X124253334Y-82705550D01*
X124250500Y-82679192D01*
X124250500Y-82550811D01*
X125919500Y-82550811D01*
X125919500Y-83049169D01*
X125919501Y-83049191D01*
X125922335Y-83085205D01*
X125967129Y-83239388D01*
X125967131Y-83239393D01*
X126048863Y-83377595D01*
X126048869Y-83377603D01*
X126162396Y-83491130D01*
X126162400Y-83491133D01*
X126162402Y-83491135D01*
X126300607Y-83572869D01*
X126341268Y-83584682D01*
X126454791Y-83617664D01*
X126454794Y-83617664D01*
X126454796Y-83617665D01*
X126490819Y-83620500D01*
X126889180Y-83620499D01*
X126925204Y-83617665D01*
X127079393Y-83572869D01*
X127217598Y-83491135D01*
X127331135Y-83377598D01*
X127412869Y-83239393D01*
X127448413Y-83117049D01*
X127457664Y-83085208D01*
X127457664Y-83085206D01*
X127457665Y-83085204D01*
X127460500Y-83049181D01*
X127460499Y-82550820D01*
X127457665Y-82514796D01*
X127412869Y-82360607D01*
X127396057Y-82332179D01*
X127357768Y-82267434D01*
X127340500Y-82204314D01*
X127340500Y-81924499D01*
X127360185Y-81857460D01*
X127412989Y-81811705D01*
X127464500Y-81800499D01*
X127847871Y-81800499D01*
X127847872Y-81800499D01*
X127907483Y-81794091D01*
X128042331Y-81743796D01*
X128157546Y-81657546D01*
X128243796Y-81542331D01*
X128294091Y-81407483D01*
X128300500Y-81347873D01*
X128300499Y-79452128D01*
X128294091Y-79392517D01*
X128276349Y-79344949D01*
X128243797Y-79257671D01*
X128243793Y-79257664D01*
X128157547Y-79142455D01*
X128157544Y-79142452D01*
X128042335Y-79056206D01*
X128042328Y-79056202D01*
X127907482Y-79005908D01*
X127907483Y-79005908D01*
X127847883Y-78999501D01*
X127847881Y-78999500D01*
X127847873Y-78999500D01*
X127847864Y-78999500D01*
X126402129Y-78999500D01*
X126402123Y-78999501D01*
X126342516Y-79005908D01*
X126207671Y-79056202D01*
X126207664Y-79056206D01*
X126092455Y-79142452D01*
X126092452Y-79142455D01*
X126006206Y-79257664D01*
X126006202Y-79257671D01*
X125955908Y-79392517D01*
X125949501Y-79452116D01*
X125949501Y-79452123D01*
X125949500Y-79452135D01*
X125949500Y-81347870D01*
X125949501Y-81347876D01*
X125955908Y-81407483D01*
X126006203Y-81542329D01*
X126014766Y-81553768D01*
X126039184Y-81619232D01*
X126039500Y-81628080D01*
X126039500Y-82204314D01*
X126022232Y-82267434D01*
X125967133Y-82360602D01*
X125967129Y-82360611D01*
X125922335Y-82514791D01*
X125922334Y-82514797D01*
X125919500Y-82550811D01*
X124250500Y-82550811D01*
X124250500Y-68585928D01*
X124225502Y-68460261D01*
X124225501Y-68460260D01*
X124225501Y-68460256D01*
X124190794Y-68376465D01*
X124176466Y-68341874D01*
X124176465Y-68341872D01*
X124176464Y-68341870D01*
X124105278Y-68235332D01*
X124105272Y-68235325D01*
X123164673Y-67294726D01*
X123164669Y-67294723D01*
X123058127Y-67223535D01*
X122939744Y-67174499D01*
X122939738Y-67174497D01*
X122814071Y-67149500D01*
X122814069Y-67149500D01*
X119809618Y-67149500D01*
X119742579Y-67129815D01*
X119708900Y-67095408D01*
X119707915Y-67096125D01*
X119580109Y-66920213D01*
X119429786Y-66769890D01*
X119257820Y-66644951D01*
X119068414Y-66548444D01*
X119068413Y-66548443D01*
X119068412Y-66548443D01*
X118866243Y-66482754D01*
X118866241Y-66482753D01*
X118866240Y-66482753D01*
X118704957Y-66457208D01*
X118656287Y-66449500D01*
X118443713Y-66449500D01*
X118395042Y-66457208D01*
X118233760Y-66482753D01*
X118031585Y-66548444D01*
X117842179Y-66644951D01*
X117670213Y-66769890D01*
X117519890Y-66920213D01*
X117394951Y-67092179D01*
X117298444Y-67281585D01*
X117232753Y-67483760D01*
X117215653Y-67591728D01*
X117199500Y-67693713D01*
X117199500Y-67906287D01*
X117209534Y-67969644D01*
X117229299Y-68094434D01*
X117232754Y-68116243D01*
X117296411Y-68312159D01*
X117298444Y-68318414D01*
X117394951Y-68507820D01*
X117519890Y-68679786D01*
X117670213Y-68830109D01*
X117842182Y-68955050D01*
X117850946Y-68959516D01*
X117901742Y-69007491D01*
X117918536Y-69075312D01*
X117895998Y-69141447D01*
X117850946Y-69180484D01*
X117842182Y-69184949D01*
X117670213Y-69309890D01*
X117519890Y-69460213D01*
X117394951Y-69632179D01*
X117298444Y-69821585D01*
X117232753Y-70023760D01*
X117199500Y-70233713D01*
X117199500Y-70446286D01*
X117226138Y-70614476D01*
X117232754Y-70656243D01*
X117282737Y-70810075D01*
X117298444Y-70858414D01*
X117394951Y-71047820D01*
X117519890Y-71219786D01*
X117670213Y-71370109D01*
X117842182Y-71495050D01*
X117850946Y-71499516D01*
X117901742Y-71547491D01*
X117918536Y-71615312D01*
X117895998Y-71681447D01*
X117850946Y-71720484D01*
X117842182Y-71724949D01*
X117670213Y-71849890D01*
X117519890Y-72000213D01*
X117394951Y-72172179D01*
X117298444Y-72361585D01*
X117232753Y-72563760D01*
X117199500Y-72773713D01*
X117199500Y-72986286D01*
X117225893Y-73152929D01*
X117232754Y-73196243D01*
X117264996Y-73295474D01*
X117298444Y-73398414D01*
X117394951Y-73587820D01*
X117519890Y-73759786D01*
X117670213Y-73910109D01*
X117842182Y-74035050D01*
X117850946Y-74039516D01*
X117901742Y-74087491D01*
X117918536Y-74155312D01*
X117895998Y-74221447D01*
X117850946Y-74260484D01*
X117842182Y-74264949D01*
X117670213Y-74389890D01*
X117519890Y-74540213D01*
X117394951Y-74712179D01*
X117298444Y-74901585D01*
X117232753Y-75103760D01*
X117228567Y-75130191D01*
X117199500Y-75313713D01*
X117199500Y-75526287D01*
X117232754Y-75736243D01*
X117294806Y-75927220D01*
X117298444Y-75938414D01*
X117394951Y-76127820D01*
X117519890Y-76299786D01*
X117670213Y-76450109D01*
X117842182Y-76575050D01*
X117850946Y-76579516D01*
X117901742Y-76627491D01*
X117918536Y-76695312D01*
X117895998Y-76761447D01*
X117850946Y-76800484D01*
X117842182Y-76804949D01*
X117670213Y-76929890D01*
X117519890Y-77080213D01*
X117394951Y-77252179D01*
X117298444Y-77441585D01*
X117232753Y-77643760D01*
X117215340Y-77753705D01*
X117199500Y-77853713D01*
X117199500Y-78066287D01*
X117203729Y-78092985D01*
X117232753Y-78276239D01*
X117298444Y-78478414D01*
X117394951Y-78667820D01*
X117519890Y-78839786D01*
X117670213Y-78990109D01*
X117842182Y-79115050D01*
X117850946Y-79119516D01*
X117901742Y-79167491D01*
X117918536Y-79235312D01*
X117895998Y-79301447D01*
X117850946Y-79340484D01*
X117842182Y-79344949D01*
X117670213Y-79469890D01*
X117519890Y-79620213D01*
X117394951Y-79792179D01*
X117298444Y-79981585D01*
X117232753Y-80183760D01*
X117199500Y-80393713D01*
X117199500Y-80606286D01*
X117232753Y-80816239D01*
X117298444Y-81018414D01*
X117394951Y-81207820D01*
X117519890Y-81379786D01*
X117670213Y-81530109D01*
X117842182Y-81655050D01*
X117850946Y-81659516D01*
X117901742Y-81707491D01*
X117918536Y-81775312D01*
X117895998Y-81841447D01*
X117850946Y-81880484D01*
X117842182Y-81884949D01*
X117670213Y-82009890D01*
X117519890Y-82160213D01*
X117394951Y-82332179D01*
X117298444Y-82521585D01*
X117232753Y-82723760D01*
X117199500Y-82933713D01*
X117199500Y-83146286D01*
X117230895Y-83344511D01*
X117232754Y-83356243D01*
X117276583Y-83491135D01*
X117298444Y-83558414D01*
X117394951Y-83747820D01*
X117519890Y-83919786D01*
X117670213Y-84070109D01*
X117842182Y-84195050D01*
X117850946Y-84199516D01*
X117901742Y-84247491D01*
X117918536Y-84315312D01*
X117895998Y-84381447D01*
X117850946Y-84420484D01*
X117842182Y-84424949D01*
X117670213Y-84549890D01*
X117519890Y-84700213D01*
X117394951Y-84872179D01*
X117298444Y-85061585D01*
X117298443Y-85061587D01*
X117298443Y-85061588D01*
X117284290Y-85105146D01*
X117232753Y-85263760D01*
X117199500Y-85473713D01*
X117199500Y-85686286D01*
X117224259Y-85842612D01*
X117232754Y-85896243D01*
X117290998Y-86075500D01*
X117298444Y-86098414D01*
X117394951Y-86287820D01*
X117519890Y-86459786D01*
X117670213Y-86610109D01*
X117842182Y-86735050D01*
X117850946Y-86739516D01*
X117901742Y-86787491D01*
X117918536Y-86855312D01*
X117895998Y-86921447D01*
X117850946Y-86960484D01*
X117842182Y-86964949D01*
X117670213Y-87089890D01*
X117519890Y-87240213D01*
X117394951Y-87412179D01*
X117298444Y-87601585D01*
X117232753Y-87803760D01*
X117199500Y-88013713D01*
X117199500Y-88226286D01*
X117231574Y-88428798D01*
X117232754Y-88436243D01*
X117292377Y-88619744D01*
X117298444Y-88638414D01*
X117394951Y-88827820D01*
X117519890Y-88999786D01*
X117670213Y-89150109D01*
X117842182Y-89275050D01*
X117850946Y-89279516D01*
X117901742Y-89327491D01*
X117918536Y-89395312D01*
X117895998Y-89461447D01*
X117850946Y-89500484D01*
X117842182Y-89504949D01*
X117670213Y-89629890D01*
X117519890Y-89780213D01*
X117394951Y-89952179D01*
X117298444Y-90141585D01*
X117232753Y-90343760D01*
X117199500Y-90553713D01*
X117199500Y-90766286D01*
X117231183Y-90966328D01*
X117232754Y-90976243D01*
X117285151Y-91137505D01*
X117298444Y-91178414D01*
X117394951Y-91367820D01*
X117519890Y-91539786D01*
X117670213Y-91690109D01*
X117842182Y-91815050D01*
X117850946Y-91819516D01*
X117901742Y-91867491D01*
X117918536Y-91935312D01*
X117895998Y-92001447D01*
X117850946Y-92040484D01*
X117842182Y-92044949D01*
X117670213Y-92169890D01*
X117519890Y-92320213D01*
X117394951Y-92492179D01*
X117298444Y-92681585D01*
X117232753Y-92883760D01*
X117212326Y-93012733D01*
X117199500Y-93093713D01*
X117199500Y-93306287D01*
X117209534Y-93369644D01*
X117231398Y-93507685D01*
X117232754Y-93516243D01*
X117294175Y-93705277D01*
X117298444Y-93718414D01*
X117394951Y-93907820D01*
X117519890Y-94079786D01*
X117670213Y-94230109D01*
X117842182Y-94355050D01*
X117850946Y-94359516D01*
X117901742Y-94407491D01*
X117918536Y-94475312D01*
X117895998Y-94541447D01*
X117850946Y-94580484D01*
X117842182Y-94584949D01*
X117670213Y-94709890D01*
X117519890Y-94860213D01*
X117394951Y-95032179D01*
X117298444Y-95221585D01*
X117232753Y-95423760D01*
X117199500Y-95633713D01*
X117199500Y-95846286D01*
X117228037Y-96026465D01*
X117232754Y-96056243D01*
X117295547Y-96249500D01*
X117298444Y-96258414D01*
X117394951Y-96447820D01*
X117519890Y-96619786D01*
X117670213Y-96770109D01*
X117842182Y-96895050D01*
X117850946Y-96899516D01*
X117901742Y-96947491D01*
X117918536Y-97015312D01*
X117895998Y-97081447D01*
X117850946Y-97120484D01*
X117842182Y-97124949D01*
X117670213Y-97249890D01*
X117519890Y-97400213D01*
X117394951Y-97572179D01*
X117298444Y-97761585D01*
X117232753Y-97963760D01*
X117222090Y-98031087D01*
X117199500Y-98173713D01*
X117199500Y-98386287D01*
X117232754Y-98596243D01*
X117284427Y-98755276D01*
X117298444Y-98798414D01*
X117394951Y-98987820D01*
X117519890Y-99159786D01*
X117670213Y-99310109D01*
X117842179Y-99435048D01*
X117842181Y-99435049D01*
X117842184Y-99435051D01*
X118031588Y-99531557D01*
X118233757Y-99597246D01*
X118443713Y-99630500D01*
X118443714Y-99630500D01*
X118656286Y-99630500D01*
X118656287Y-99630500D01*
X118866243Y-99597246D01*
X119068412Y-99531557D01*
X119257816Y-99435051D01*
X119300085Y-99404341D01*
X119429786Y-99310109D01*
X119429788Y-99310106D01*
X119429792Y-99310104D01*
X119580104Y-99159792D01*
X119580106Y-99159788D01*
X119580109Y-99159786D01*
X119701752Y-98992357D01*
X119705051Y-98987816D01*
X119801557Y-98798412D01*
X119867246Y-98596243D01*
X119900500Y-98386287D01*
X119900500Y-98173713D01*
X119867246Y-97963757D01*
X119801557Y-97761588D01*
X119705051Y-97572184D01*
X119705049Y-97572181D01*
X119705048Y-97572179D01*
X119580109Y-97400213D01*
X119429786Y-97249890D01*
X119257820Y-97124951D01*
X119257115Y-97124591D01*
X119249054Y-97120485D01*
X119198259Y-97072512D01*
X119181463Y-97004692D01*
X119203999Y-96938556D01*
X119249054Y-96899515D01*
X119257816Y-96895051D01*
X119376161Y-96809069D01*
X119429786Y-96770109D01*
X119429788Y-96770106D01*
X119429792Y-96770104D01*
X119580104Y-96619792D01*
X119580106Y-96619788D01*
X119580109Y-96619786D01*
X119705048Y-96447820D01*
X119705047Y-96447820D01*
X119705051Y-96447816D01*
X119801557Y-96258412D01*
X119867246Y-96056243D01*
X119900500Y-95846287D01*
X119900500Y-95633713D01*
X119867246Y-95423757D01*
X119801557Y-95221588D01*
X119705051Y-95032184D01*
X119705049Y-95032181D01*
X119705048Y-95032179D01*
X119580109Y-94860213D01*
X119429786Y-94709890D01*
X119257820Y-94584951D01*
X119257115Y-94584591D01*
X119249054Y-94580485D01*
X119198259Y-94532512D01*
X119181463Y-94464692D01*
X119203999Y-94398556D01*
X119249054Y-94359515D01*
X119257816Y-94355051D01*
X119367029Y-94275704D01*
X119429786Y-94230109D01*
X119429788Y-94230106D01*
X119429792Y-94230104D01*
X119580104Y-94079792D01*
X119580106Y-94079788D01*
X119580109Y-94079786D01*
X119705048Y-93907820D01*
X119705047Y-93907820D01*
X119705051Y-93907816D01*
X119801557Y-93718412D01*
X119867246Y-93516243D01*
X119900500Y-93306287D01*
X119900500Y-93093713D01*
X119867246Y-92883757D01*
X119801557Y-92681588D01*
X119705051Y-92492184D01*
X119705049Y-92492181D01*
X119705048Y-92492179D01*
X119580109Y-92320213D01*
X119429786Y-92169890D01*
X119257820Y-92044951D01*
X119257115Y-92044591D01*
X119249054Y-92040485D01*
X119198259Y-91992512D01*
X119181463Y-91924692D01*
X119203999Y-91858556D01*
X119249054Y-91819515D01*
X119257816Y-91815051D01*
X119283901Y-91796099D01*
X119429786Y-91690109D01*
X119429788Y-91690106D01*
X119429792Y-91690104D01*
X119580104Y-91539792D01*
X119580106Y-91539788D01*
X119580109Y-91539786D01*
X119699500Y-91375456D01*
X119705051Y-91367816D01*
X119801557Y-91178412D01*
X119867246Y-90976243D01*
X119900500Y-90766287D01*
X119900500Y-90553713D01*
X119867246Y-90343757D01*
X119801557Y-90141588D01*
X119705051Y-89952184D01*
X119705049Y-89952181D01*
X119705048Y-89952179D01*
X119580109Y-89780213D01*
X119429786Y-89629890D01*
X119257820Y-89504951D01*
X119257115Y-89504591D01*
X119249054Y-89500485D01*
X119198259Y-89452512D01*
X119181463Y-89384692D01*
X119203999Y-89318556D01*
X119249054Y-89279515D01*
X119257816Y-89275051D01*
X119283263Y-89256563D01*
X119429786Y-89150109D01*
X119429788Y-89150106D01*
X119429792Y-89150104D01*
X119580104Y-88999792D01*
X119580106Y-88999788D01*
X119580109Y-88999786D01*
X119705048Y-88827820D01*
X119705047Y-88827820D01*
X119705051Y-88827816D01*
X119801557Y-88638412D01*
X119867246Y-88436243D01*
X119900500Y-88226287D01*
X119900500Y-88013713D01*
X119867246Y-87803757D01*
X119801557Y-87601588D01*
X119705051Y-87412184D01*
X119705049Y-87412181D01*
X119705048Y-87412179D01*
X119580109Y-87240213D01*
X119429786Y-87089890D01*
X119257820Y-86964951D01*
X119257115Y-86964591D01*
X119249054Y-86960485D01*
X119198259Y-86912512D01*
X119181463Y-86844692D01*
X119203999Y-86778556D01*
X119249054Y-86739515D01*
X119257816Y-86735051D01*
X119320512Y-86689500D01*
X119429786Y-86610109D01*
X119429788Y-86610106D01*
X119429792Y-86610104D01*
X119580104Y-86459792D01*
X119580106Y-86459788D01*
X119580109Y-86459786D01*
X119705048Y-86287820D01*
X119705047Y-86287820D01*
X119705051Y-86287816D01*
X119801557Y-86098412D01*
X119867246Y-85896243D01*
X119900500Y-85686287D01*
X119900500Y-85473713D01*
X119867246Y-85263757D01*
X119801557Y-85061588D01*
X119705051Y-84872184D01*
X119705049Y-84872181D01*
X119705048Y-84872179D01*
X119580109Y-84700213D01*
X119429786Y-84549890D01*
X119257820Y-84424951D01*
X119257115Y-84424591D01*
X119249054Y-84420485D01*
X119198259Y-84372512D01*
X119181463Y-84304692D01*
X119203999Y-84238556D01*
X119249054Y-84199515D01*
X119257816Y-84195051D01*
X119384834Y-84102768D01*
X119429786Y-84070109D01*
X119429788Y-84070106D01*
X119429792Y-84070104D01*
X119580104Y-83919792D01*
X119580106Y-83919788D01*
X119580109Y-83919786D01*
X119705048Y-83747820D01*
X119705047Y-83747820D01*
X119705051Y-83747816D01*
X119801557Y-83558412D01*
X119867246Y-83356243D01*
X119900500Y-83146287D01*
X119900500Y-82933713D01*
X119867246Y-82723757D01*
X119801557Y-82521588D01*
X119705051Y-82332184D01*
X119705049Y-82332181D01*
X119705048Y-82332179D01*
X119580109Y-82160213D01*
X119429786Y-82009890D01*
X119257820Y-81884951D01*
X119257115Y-81884591D01*
X119249054Y-81880485D01*
X119198259Y-81832512D01*
X119181463Y-81764692D01*
X119203999Y-81698556D01*
X119249054Y-81659515D01*
X119257816Y-81655051D01*
X119307117Y-81619232D01*
X119429786Y-81530109D01*
X119429788Y-81530106D01*
X119429792Y-81530104D01*
X119580104Y-81379792D01*
X119580106Y-81379788D01*
X119580109Y-81379786D01*
X119705048Y-81207820D01*
X119705047Y-81207820D01*
X119705051Y-81207816D01*
X119801557Y-81018412D01*
X119867246Y-80816243D01*
X119900500Y-80606287D01*
X119900500Y-80393713D01*
X119867246Y-80183757D01*
X119801557Y-79981588D01*
X119705051Y-79792184D01*
X119705049Y-79792181D01*
X119705048Y-79792179D01*
X119580109Y-79620213D01*
X119429786Y-79469890D01*
X119257820Y-79344951D01*
X119257115Y-79344591D01*
X119249054Y-79340485D01*
X119198259Y-79292512D01*
X119181463Y-79224692D01*
X119203999Y-79158556D01*
X119249054Y-79119515D01*
X119257816Y-79115051D01*
X119338813Y-79056204D01*
X119429786Y-78990109D01*
X119429788Y-78990106D01*
X119429792Y-78990104D01*
X119487294Y-78932602D01*
X119548617Y-78899117D01*
X119618309Y-78904101D01*
X119662656Y-78932602D01*
X120163181Y-79433127D01*
X120196666Y-79494450D01*
X120199500Y-79520808D01*
X120199500Y-91914071D01*
X120211684Y-91975319D01*
X120221351Y-92023918D01*
X120223539Y-92034916D01*
X120224499Y-92039744D01*
X120261900Y-92130039D01*
X120273535Y-92158127D01*
X120322285Y-92231087D01*
X120344726Y-92264673D01*
X124035326Y-95955273D01*
X124035329Y-95955275D01*
X124035331Y-95955277D01*
X124141873Y-96026465D01*
X124260256Y-96075501D01*
X124260260Y-96075501D01*
X124260261Y-96075502D01*
X124385928Y-96100500D01*
X124385931Y-96100500D01*
X136922101Y-96100500D01*
X136989140Y-96120185D01*
X137034895Y-96172989D01*
X137036662Y-96177047D01*
X137047302Y-96202733D01*
X137139549Y-96322951D01*
X137162189Y-96340323D01*
X137203391Y-96396749D01*
X137207546Y-96466495D01*
X137174383Y-96526379D01*
X135131286Y-98569478D01*
X135019481Y-98681282D01*
X135019480Y-98681284D01*
X134976761Y-98755276D01*
X134940423Y-98818215D01*
X134899499Y-98970943D01*
X134899499Y-98970945D01*
X134899499Y-99139046D01*
X134899500Y-99139059D01*
X134899500Y-100763330D01*
X134899499Y-100763348D01*
X134899499Y-100929054D01*
X134899498Y-100929054D01*
X134928955Y-101038988D01*
X134940423Y-101081785D01*
X134948468Y-101095719D01*
X134948469Y-101095721D01*
X135019477Y-101218712D01*
X135019481Y-101218717D01*
X135138349Y-101337585D01*
X135138355Y-101337590D01*
X135638583Y-101837819D01*
X135672068Y-101899142D01*
X135667084Y-101968834D01*
X135625212Y-102024767D01*
X135559748Y-102049184D01*
X135550902Y-102049500D01*
X134965217Y-102049500D01*
X134807102Y-102049500D01*
X134654375Y-102090423D01*
X134654374Y-102090423D01*
X134654372Y-102090424D01*
X134654369Y-102090425D01*
X134613893Y-102113795D01*
X134613891Y-102113796D01*
X134517450Y-102169475D01*
X134517442Y-102169481D01*
X134461438Y-102225486D01*
X134405640Y-102281284D01*
X134405638Y-102281286D01*
X134308850Y-102378075D01*
X134222744Y-102464181D01*
X134161421Y-102497666D01*
X134135063Y-102500500D01*
X133564938Y-102500500D01*
X133497899Y-102480815D01*
X133477257Y-102464181D01*
X133286818Y-102273742D01*
X133253333Y-102212419D01*
X133250499Y-102186061D01*
X133250499Y-101599998D01*
X133250498Y-101599981D01*
X133239999Y-101497203D01*
X133239998Y-101497200D01*
X133222867Y-101445502D01*
X133184814Y-101330666D01*
X133092712Y-101181344D01*
X132968656Y-101057288D01*
X132968655Y-101057287D01*
X132896829Y-101012985D01*
X132850104Y-100961037D01*
X132838881Y-100892075D01*
X132866725Y-100827992D01*
X132924793Y-100789136D01*
X132927262Y-100788389D01*
X133016395Y-100762494D01*
X133155687Y-100680117D01*
X133270117Y-100565687D01*
X133352494Y-100426395D01*
X133397643Y-100270993D01*
X133400500Y-100234690D01*
X133400500Y-99765310D01*
X133397643Y-99729007D01*
X133397254Y-99727669D01*
X133352495Y-99573609D01*
X133352494Y-99573606D01*
X133352494Y-99573605D01*
X133270117Y-99434313D01*
X133270115Y-99434311D01*
X133270112Y-99434307D01*
X133155692Y-99319887D01*
X133155684Y-99319881D01*
X133076962Y-99273325D01*
X133016395Y-99237506D01*
X133016394Y-99237505D01*
X133016393Y-99237505D01*
X133016390Y-99237504D01*
X132860997Y-99192357D01*
X132860991Y-99192356D01*
X132824697Y-99189500D01*
X132824690Y-99189500D01*
X132415310Y-99189500D01*
X132415302Y-99189500D01*
X132379008Y-99192356D01*
X132379002Y-99192357D01*
X132223609Y-99237504D01*
X132223606Y-99237505D01*
X132084315Y-99319881D01*
X132084307Y-99319887D01*
X131969887Y-99434307D01*
X131969881Y-99434315D01*
X131887505Y-99573606D01*
X131887504Y-99573609D01*
X131842357Y-99729002D01*
X131842356Y-99729008D01*
X131839500Y-99765302D01*
X131839500Y-99879901D01*
X131830856Y-99909335D01*
X131824334Y-99939325D01*
X131820577Y-99944342D01*
X131819815Y-99946940D01*
X131803183Y-99967580D01*
X131781286Y-99989478D01*
X131781284Y-99989480D01*
X131669481Y-100101282D01*
X131669479Y-100101284D01*
X131641797Y-100149232D01*
X131630096Y-100169500D01*
X131590423Y-100238215D01*
X131549499Y-100390943D01*
X131549499Y-100390945D01*
X131549499Y-100559046D01*
X131549500Y-100559059D01*
X131549500Y-100854091D01*
X131529815Y-100921130D01*
X131485731Y-100959641D01*
X131486813Y-100961395D01*
X131480667Y-100965185D01*
X131480666Y-100965186D01*
X131416417Y-101004815D01*
X131331342Y-101057289D01*
X131207289Y-101181342D01*
X131115187Y-101330663D01*
X131115185Y-101330668D01*
X131093382Y-101396465D01*
X131060001Y-101497203D01*
X131060001Y-101497204D01*
X131060000Y-101497204D01*
X131049500Y-101599983D01*
X131049500Y-102600001D01*
X131049501Y-102600019D01*
X131060000Y-102702796D01*
X131060001Y-102702799D01*
X131110598Y-102855488D01*
X131115186Y-102869334D01*
X131207288Y-103018656D01*
X131331344Y-103142712D01*
X131480666Y-103234814D01*
X131647203Y-103289999D01*
X131749991Y-103300500D01*
X132550008Y-103300499D01*
X132550425Y-103300456D01*
X132550514Y-103300472D01*
X132553165Y-103300338D01*
X132553173Y-103300512D01*
X132554208Y-103300127D01*
X132586557Y-103307164D01*
X132619118Y-103313209D01*
X132621164Y-103314692D01*
X132622481Y-103314979D01*
X132650731Y-103336126D01*
X132768591Y-103453987D01*
X132802075Y-103515309D01*
X132798615Y-103580670D01*
X132760001Y-103697200D01*
X132760000Y-103697204D01*
X132749500Y-103799983D01*
X132749500Y-104800001D01*
X132749501Y-104800019D01*
X132760000Y-104902796D01*
X132760001Y-104902799D01*
X132815185Y-105069331D01*
X132815186Y-105069334D01*
X132907288Y-105218656D01*
X133031344Y-105342712D01*
X133082586Y-105374318D01*
X133129310Y-105426264D01*
X133140533Y-105495226D01*
X133112690Y-105559309D01*
X133080611Y-105586587D01*
X133024318Y-105619878D01*
X133024307Y-105619887D01*
X132909887Y-105734307D01*
X132909881Y-105734315D01*
X132827505Y-105873606D01*
X132827504Y-105873609D01*
X132782357Y-106029002D01*
X132782356Y-106029008D01*
X132779500Y-106065302D01*
X132779500Y-106534697D01*
X132782356Y-106570991D01*
X132782357Y-106570997D01*
X132827504Y-106726390D01*
X132827505Y-106726393D01*
X132909881Y-106865684D01*
X132909887Y-106865692D01*
X133024307Y-106980112D01*
X133024311Y-106980115D01*
X133024313Y-106980117D01*
X133163605Y-107062494D01*
X133204587Y-107074400D01*
X133319002Y-107107642D01*
X133319005Y-107107642D01*
X133319007Y-107107643D01*
X133355310Y-107110500D01*
X133355318Y-107110500D01*
X133764682Y-107110500D01*
X133764690Y-107110500D01*
X133800993Y-107107643D01*
X133800995Y-107107642D01*
X133800997Y-107107642D01*
X133841975Y-107095736D01*
X133956395Y-107062494D01*
X134095687Y-106980117D01*
X134210117Y-106865687D01*
X134292494Y-106726395D01*
X134337643Y-106570993D01*
X134340500Y-106534690D01*
X134340500Y-106394654D01*
X134344650Y-106379163D01*
X134343996Y-106365419D01*
X134357110Y-106332658D01*
X134388428Y-106278416D01*
X134409577Y-106241785D01*
X134450501Y-106089057D01*
X134450501Y-105930943D01*
X134450501Y-105923348D01*
X134450500Y-105923330D01*
X134450500Y-105545908D01*
X134453000Y-105537393D01*
X134451712Y-105528613D01*
X134462692Y-105504386D01*
X134470185Y-105478869D01*
X134477650Y-105471381D01*
X134480555Y-105464974D01*
X134494766Y-105454216D01*
X134507162Y-105441785D01*
X134516477Y-105435760D01*
X134519334Y-105434814D01*
X134668656Y-105342712D01*
X134683849Y-105327518D01*
X134694892Y-105320377D01*
X134716286Y-105314028D01*
X134735872Y-105303334D01*
X134761678Y-105300559D01*
X134761875Y-105300501D01*
X134761968Y-105300528D01*
X134762230Y-105300500D01*
X135625500Y-105300500D01*
X135692539Y-105320185D01*
X135738294Y-105372989D01*
X135749500Y-105424500D01*
X135749500Y-105523918D01*
X135749500Y-105523920D01*
X135749499Y-105523920D01*
X135778340Y-105668907D01*
X135778343Y-105668917D01*
X135834912Y-105805488D01*
X135834919Y-105805501D01*
X135917048Y-105928415D01*
X135917051Y-105928419D01*
X136021580Y-106032948D01*
X136021584Y-106032951D01*
X136144498Y-106115080D01*
X136144511Y-106115087D01*
X136254929Y-106160823D01*
X136281087Y-106171658D01*
X136281091Y-106171658D01*
X136281092Y-106171659D01*
X136426079Y-106200500D01*
X136426082Y-106200500D01*
X136573920Y-106200500D01*
X136671462Y-106181096D01*
X136718913Y-106171658D01*
X136800680Y-106137788D01*
X136870147Y-106130320D01*
X136911250Y-106145617D01*
X136973605Y-106182494D01*
X136973612Y-106182496D01*
X137129002Y-106227642D01*
X137129005Y-106227642D01*
X137129007Y-106227643D01*
X137165310Y-106230500D01*
X137165318Y-106230500D01*
X137634682Y-106230500D01*
X137634690Y-106230500D01*
X137670993Y-106227643D01*
X137670995Y-106227642D01*
X137670997Y-106227642D01*
X137826389Y-106182496D01*
X137826389Y-106182495D01*
X137826395Y-106182494D01*
X137963551Y-106101379D01*
X137971584Y-106099341D01*
X137977984Y-106094070D01*
X138004947Y-106090876D01*
X138031271Y-106084198D01*
X138039135Y-106086828D01*
X138047369Y-106085853D01*
X138071780Y-106097745D01*
X138097534Y-106106358D01*
X138102727Y-106112821D01*
X138110182Y-106116453D01*
X138124287Y-106139653D01*
X138141298Y-106160823D01*
X138143111Y-106170613D01*
X138146480Y-106176154D01*
X138148318Y-106198725D01*
X138150630Y-106211203D01*
X138150367Y-106221718D01*
X138149500Y-106226082D01*
X138149500Y-106256538D01*
X138149461Y-106258103D01*
X138147494Y-106264230D01*
X138138294Y-106306525D01*
X138114976Y-106357581D01*
X138114975Y-106357585D01*
X138094500Y-106499999D01*
X138094500Y-109476000D01*
X138074815Y-109543039D01*
X138022011Y-109588794D01*
X137970500Y-109600000D01*
X116374500Y-109600000D01*
X116307461Y-109580315D01*
X116261706Y-109527511D01*
X116250500Y-109476000D01*
X116250500Y-61822135D01*
X117199500Y-61822135D01*
X117199500Y-63617870D01*
X117199501Y-63617876D01*
X117205908Y-63677483D01*
X117256202Y-63812328D01*
X117256206Y-63812335D01*
X117342452Y-63927544D01*
X117342455Y-63927547D01*
X117457664Y-64013793D01*
X117457671Y-64013797D01*
X117592517Y-64064091D01*
X117592516Y-64064091D01*
X117599444Y-64064835D01*
X117652127Y-64070500D01*
X119447872Y-64070499D01*
X119507483Y-64064091D01*
X119642331Y-64013796D01*
X119757546Y-63927546D01*
X119843796Y-63812331D01*
X119894091Y-63677483D01*
X119899504Y-63627135D01*
X126249500Y-63627135D01*
X126249500Y-65422870D01*
X126249501Y-65422876D01*
X126255908Y-65482483D01*
X126306202Y-65617328D01*
X126306206Y-65617335D01*
X126392452Y-65732544D01*
X126392455Y-65732547D01*
X126507664Y-65818793D01*
X126507671Y-65818797D01*
X126642517Y-65869091D01*
X126642516Y-65869091D01*
X126649444Y-65869835D01*
X126702127Y-65875500D01*
X128497872Y-65875499D01*
X128557483Y-65869091D01*
X128692331Y-65818796D01*
X128807546Y-65732546D01*
X128893796Y-65617331D01*
X128922203Y-65541168D01*
X128964073Y-65485234D01*
X129029537Y-65460816D01*
X129038385Y-65460500D01*
X130185859Y-65460500D01*
X130252898Y-65480185D01*
X130298653Y-65532989D01*
X130302030Y-65541140D01*
X130306204Y-65552331D01*
X130306205Y-65552332D01*
X130306206Y-65552335D01*
X130392452Y-65667544D01*
X130392455Y-65667547D01*
X130507664Y-65753793D01*
X130507671Y-65753797D01*
X130639082Y-65802810D01*
X130695016Y-65844681D01*
X130719433Y-65910145D01*
X130704582Y-65978418D01*
X130683431Y-66006673D01*
X130569889Y-66120215D01*
X130444951Y-66292179D01*
X130348444Y-66481585D01*
X130348443Y-66481587D01*
X130348443Y-66481588D01*
X130320407Y-66567873D01*
X130282753Y-66683760D01*
X130269111Y-66769896D01*
X130249500Y-66893713D01*
X130249500Y-67106287D01*
X130255340Y-67143156D01*
X130279345Y-67294723D01*
X130282754Y-67316243D01*
X130306611Y-67389668D01*
X130348444Y-67518414D01*
X130444951Y-67707820D01*
X130569890Y-67879786D01*
X130720213Y-68030109D01*
X130892184Y-68155051D01*
X130896336Y-68157596D01*
X130895393Y-68159133D01*
X130940567Y-68201781D01*
X130957375Y-68269598D01*
X130934851Y-68335738D01*
X130880144Y-68379200D01*
X130867561Y-68383539D01*
X130851054Y-68388256D01*
X130814990Y-68400041D01*
X130797545Y-68406476D01*
X130762495Y-68420920D01*
X130762492Y-68420922D01*
X130641462Y-68498703D01*
X130641451Y-68498712D01*
X130588659Y-68544456D01*
X130494433Y-68653197D01*
X130494430Y-68653201D01*
X130434664Y-68784067D01*
X130414977Y-68851111D01*
X130414972Y-68851137D01*
X130409908Y-68886355D01*
X130397656Y-68924999D01*
X130348441Y-69021589D01*
X130348441Y-69021591D01*
X130282753Y-69223759D01*
X130249853Y-69431484D01*
X130249500Y-69433713D01*
X130249500Y-69646287D01*
X130254627Y-69678656D01*
X130282753Y-69856239D01*
X130348444Y-70058414D01*
X130380985Y-70122279D01*
X130394500Y-70178574D01*
X130394500Y-70208403D01*
X130395566Y-70241234D01*
X130396611Y-70257303D01*
X130399803Y-70289952D01*
X130438553Y-70428514D01*
X130438557Y-70428523D01*
X130463337Y-70484693D01*
X130465297Y-70490108D01*
X130529551Y-70592985D01*
X130542975Y-70614477D01*
X130650488Y-70710094D01*
X130687013Y-70734239D01*
X130707255Y-70747620D01*
X130708626Y-70748555D01*
X130708775Y-70748625D01*
X130708776Y-70748626D01*
X130838872Y-70810079D01*
X132033519Y-71177663D01*
X132107020Y-71194398D01*
X132143487Y-71199881D01*
X132218647Y-71205500D01*
X133956630Y-71205500D01*
X134023669Y-71225185D01*
X134040039Y-71237746D01*
X134445371Y-71606228D01*
X134753911Y-71886718D01*
X134790275Y-71946379D01*
X134794500Y-71978471D01*
X134794500Y-76658658D01*
X134794829Y-76676921D01*
X134794830Y-76676937D01*
X134795110Y-76684692D01*
X134795154Y-76685891D01*
X134796145Y-76704144D01*
X134796145Y-76704146D01*
X134826854Y-76844697D01*
X134826860Y-76844719D01*
X134851329Y-76910142D01*
X134851330Y-76910144D01*
X134920396Y-77036359D01*
X134920399Y-77036365D01*
X135189400Y-77395033D01*
X135358499Y-77620499D01*
X135458404Y-77753705D01*
X135458408Y-77753710D01*
X135518510Y-77820527D01*
X135518513Y-77820530D01*
X135518516Y-77820533D01*
X135550677Y-77850448D01*
X135621664Y-77905567D01*
X135752541Y-77965338D01*
X135819580Y-77985023D01*
X135819584Y-77985024D01*
X135962000Y-78005500D01*
X135962003Y-78005500D01*
X137560907Y-78005500D01*
X137560912Y-78005500D01*
X137570917Y-78005401D01*
X137575817Y-78005304D01*
X137575820Y-78005303D01*
X137575866Y-78005303D01*
X137581422Y-78005137D01*
X137585786Y-78005008D01*
X137727281Y-77978921D01*
X137793490Y-77956603D01*
X137793492Y-77956602D01*
X137921906Y-77891707D01*
X138876454Y-77223522D01*
X138881822Y-77219968D01*
X139514818Y-76824347D01*
X139580538Y-76805500D01*
X143770730Y-76805500D01*
X143797776Y-76802350D01*
X143886871Y-76791977D01*
X143942324Y-76778886D01*
X144052247Y-76739042D01*
X144493150Y-76518591D01*
X144548604Y-76505500D01*
X146365650Y-76505500D01*
X146365655Y-76505500D01*
X146500596Y-76487156D01*
X146500603Y-76487154D01*
X146500604Y-76487154D01*
X146564381Y-76469488D01*
X146564383Y-76469487D01*
X146564391Y-76469485D01*
X146689527Y-76415792D01*
X147099874Y-76169584D01*
X147191698Y-76099020D01*
X147232216Y-76059730D01*
X147305567Y-75970128D01*
X147365338Y-75839251D01*
X147385023Y-75772212D01*
X147385024Y-75772208D01*
X147405500Y-75629792D01*
X147405500Y-75059597D01*
X147405500Y-75059588D01*
X147398847Y-74977860D01*
X147398846Y-74977847D01*
X147392360Y-74938269D01*
X147386944Y-74916484D01*
X147372573Y-74858674D01*
X147372573Y-74858673D01*
X147307712Y-74730242D01*
X147295078Y-74712184D01*
X147267661Y-74672994D01*
X147267658Y-74672991D01*
X147227447Y-74630109D01*
X147169246Y-74568041D01*
X147081535Y-74497872D01*
X146749750Y-74232443D01*
X146728862Y-74216604D01*
X146718453Y-74209127D01*
X146696842Y-74194435D01*
X146696841Y-74194434D01*
X146696839Y-74194433D01*
X146599547Y-74150000D01*
X146565965Y-74134663D01*
X146555387Y-74131557D01*
X146498923Y-74114977D01*
X146498925Y-74114977D01*
X146498920Y-74114976D01*
X146451447Y-74108150D01*
X146356503Y-74094500D01*
X146356501Y-74094500D01*
X144731815Y-74094500D01*
X144664776Y-74074815D01*
X144619021Y-74022011D01*
X144609077Y-73952853D01*
X144625485Y-73906704D01*
X144815791Y-73589529D01*
X144869487Y-73464386D01*
X144887158Y-73400588D01*
X144905500Y-73265653D01*
X144905500Y-72051362D01*
X144902603Y-71997322D01*
X144899769Y-71970964D01*
X144891114Y-71917552D01*
X144840832Y-71782743D01*
X144807347Y-71721420D01*
X144721123Y-71606239D01*
X144721118Y-71606234D01*
X144721113Y-71606228D01*
X144441819Y-71326934D01*
X144408334Y-71265611D01*
X144405500Y-71239253D01*
X144405500Y-70968507D01*
X144405499Y-70968504D01*
X144404777Y-70959496D01*
X144399044Y-70887981D01*
X144392750Y-70848979D01*
X144383230Y-70810074D01*
X144373551Y-70770520D01*
X144366296Y-70748626D01*
X144361526Y-70734231D01*
X144355871Y-70707792D01*
X144355635Y-70705477D01*
X144355000Y-70692942D01*
X144355000Y-69707057D01*
X144355639Y-69694489D01*
X144355872Y-69692202D01*
X144361528Y-69665763D01*
X144371588Y-69635408D01*
X144373547Y-69629495D01*
X144392750Y-69551018D01*
X144399044Y-69512014D01*
X144403197Y-69460213D01*
X144405500Y-69431493D01*
X144405500Y-68547133D01*
X144403975Y-68507914D01*
X144403968Y-68507820D01*
X144402479Y-68488700D01*
X144401413Y-68479600D01*
X144397910Y-68449682D01*
X144397909Y-68449676D01*
X144355632Y-68312159D01*
X144355631Y-68312158D01*
X144355630Y-68312153D01*
X144325804Y-68248971D01*
X144316793Y-68235332D01*
X144246495Y-68128929D01*
X144127002Y-67994500D01*
X144073414Y-67934213D01*
X144060259Y-67919973D01*
X144060222Y-67919934D01*
X144053688Y-67913127D01*
X144040032Y-67899437D01*
X144040031Y-67899436D01*
X144040027Y-67899432D01*
X143923324Y-67815278D01*
X143923315Y-67815273D01*
X143923307Y-67815268D01*
X143861425Y-67782898D01*
X143861412Y-67782892D01*
X143738267Y-67739424D01*
X143732090Y-67737057D01*
X143695231Y-67721789D01*
X143673797Y-67710332D01*
X143656375Y-67698691D01*
X143656375Y-67698690D01*
X143656358Y-67698680D01*
X143653971Y-67697085D01*
X143635182Y-67681665D01*
X143136819Y-67183302D01*
X143103334Y-67121979D01*
X143100500Y-67095621D01*
X143100500Y-66766728D01*
X143108318Y-66723394D01*
X143144091Y-66627483D01*
X143150500Y-66567873D01*
X143150499Y-66312380D01*
X143170183Y-66245344D01*
X143222987Y-66199589D01*
X143292146Y-66189645D01*
X143355701Y-66218670D01*
X143389060Y-66264930D01*
X143432676Y-66370227D01*
X143432681Y-66370237D01*
X143536697Y-66525907D01*
X143536700Y-66525911D01*
X143669088Y-66658299D01*
X143669092Y-66658302D01*
X143824762Y-66762318D01*
X143824771Y-66762323D01*
X143843054Y-66769896D01*
X143997749Y-66833973D01*
X144181379Y-66870499D01*
X144181383Y-66870500D01*
X144181384Y-66870500D01*
X144368617Y-66870500D01*
X144368618Y-66870499D01*
X144552251Y-66833973D01*
X144725231Y-66762322D01*
X144880908Y-66658302D01*
X145013302Y-66525908D01*
X145117322Y-66370231D01*
X145188973Y-66197251D01*
X145225500Y-66013616D01*
X145225500Y-64726384D01*
X145188973Y-64542749D01*
X145121646Y-64380208D01*
X145117323Y-64369771D01*
X145117318Y-64369762D01*
X145013302Y-64214092D01*
X145013299Y-64214088D01*
X144880911Y-64081700D01*
X144880907Y-64081697D01*
X144725237Y-63977681D01*
X144725228Y-63977676D01*
X144552251Y-63906027D01*
X144552243Y-63906025D01*
X144368620Y-63869500D01*
X144368616Y-63869500D01*
X144181384Y-63869500D01*
X144181379Y-63869500D01*
X143997756Y-63906025D01*
X143997748Y-63906027D01*
X143824771Y-63977676D01*
X143824762Y-63977681D01*
X143669092Y-64081697D01*
X143669088Y-64081700D01*
X143536700Y-64214088D01*
X143536697Y-64214092D01*
X143432681Y-64369762D01*
X143432677Y-64369770D01*
X143429394Y-64377696D01*
X143385550Y-64432097D01*
X143319254Y-64454158D01*
X143251556Y-64436875D01*
X143227154Y-64417918D01*
X143208717Y-64399481D01*
X143208709Y-64399475D01*
X143071790Y-64320426D01*
X143071786Y-64320424D01*
X143071784Y-64320423D01*
X142919057Y-64279500D01*
X142760943Y-64279500D01*
X142608216Y-64320423D01*
X142608209Y-64320426D01*
X142471290Y-64399475D01*
X142471282Y-64399481D01*
X142359481Y-64511282D01*
X142359475Y-64511290D01*
X142280426Y-64648209D01*
X142280423Y-64648214D01*
X142243077Y-64787594D01*
X142229461Y-64809932D01*
X142219268Y-64834028D01*
X142211566Y-64839290D01*
X142206712Y-64847254D01*
X142183181Y-64858684D01*
X142161578Y-64873445D01*
X142148553Y-64875505D01*
X142143865Y-64877783D01*
X142126799Y-64879451D01*
X142125045Y-64879500D01*
X142002128Y-64879501D01*
X141958392Y-64884201D01*
X141953499Y-64884340D01*
X141950988Y-64883679D01*
X141936748Y-64883679D01*
X141897874Y-64879500D01*
X141502130Y-64879500D01*
X141502119Y-64879501D01*
X141463253Y-64883679D01*
X141436748Y-64883679D01*
X141397874Y-64879500D01*
X141002130Y-64879500D01*
X141002119Y-64879501D01*
X140963253Y-64883679D01*
X140936748Y-64883679D01*
X140897874Y-64879500D01*
X140502130Y-64879500D01*
X140502119Y-64879501D01*
X140463253Y-64883679D01*
X140436748Y-64883679D01*
X140397874Y-64879500D01*
X140002130Y-64879500D01*
X140002119Y-64879501D01*
X139963253Y-64883679D01*
X139936748Y-64883679D01*
X139897874Y-64879500D01*
X139502130Y-64879500D01*
X139502119Y-64879501D01*
X139463253Y-64883679D01*
X139436748Y-64883679D01*
X139397874Y-64879500D01*
X139002130Y-64879500D01*
X139002119Y-64879501D01*
X138963253Y-64883679D01*
X138936748Y-64883679D01*
X138897874Y-64879500D01*
X138502130Y-64879500D01*
X138502119Y-64879501D01*
X138463253Y-64883679D01*
X138436748Y-64883679D01*
X138397874Y-64879500D01*
X138002130Y-64879500D01*
X138002119Y-64879501D01*
X137963253Y-64883679D01*
X137946505Y-64884340D01*
X137941608Y-64884201D01*
X137897873Y-64879500D01*
X137774937Y-64879500D01*
X137773200Y-64879451D01*
X137741560Y-64869182D01*
X137709658Y-64859815D01*
X137708469Y-64858443D01*
X137706743Y-64857883D01*
X137685678Y-64832140D01*
X137663903Y-64807011D01*
X137662953Y-64804370D01*
X137662495Y-64803810D01*
X137662373Y-64802757D01*
X137656925Y-64787602D01*
X137619577Y-64648216D01*
X137575302Y-64571529D01*
X137540524Y-64511290D01*
X137540518Y-64511282D01*
X137428717Y-64399481D01*
X137428709Y-64399475D01*
X137291790Y-64320426D01*
X137291786Y-64320424D01*
X137291784Y-64320423D01*
X137139057Y-64279500D01*
X136980943Y-64279500D01*
X136828216Y-64320423D01*
X136828209Y-64320426D01*
X136691290Y-64399475D01*
X136691281Y-64399482D01*
X136672843Y-64417920D01*
X136611520Y-64451404D01*
X136541828Y-64446418D01*
X136485895Y-64404545D01*
X136470602Y-64377688D01*
X136467322Y-64369769D01*
X136467318Y-64369762D01*
X136363302Y-64214092D01*
X136363299Y-64214088D01*
X136230911Y-64081700D01*
X136230907Y-64081697D01*
X136075237Y-63977681D01*
X136075228Y-63977676D01*
X135902251Y-63906027D01*
X135902243Y-63906025D01*
X135718620Y-63869500D01*
X135718616Y-63869500D01*
X135531384Y-63869500D01*
X135531379Y-63869500D01*
X135347756Y-63906025D01*
X135347748Y-63906027D01*
X135174771Y-63977676D01*
X135174762Y-63977681D01*
X135019092Y-64081697D01*
X135019088Y-64081700D01*
X134886700Y-64214088D01*
X134886697Y-64214092D01*
X134782681Y-64369762D01*
X134782676Y-64369771D01*
X134711027Y-64542748D01*
X134711025Y-64542756D01*
X134674500Y-64726379D01*
X134674500Y-66013620D01*
X134711025Y-66197243D01*
X134711027Y-66197251D01*
X134782676Y-66370228D01*
X134782681Y-66370237D01*
X134886697Y-66525907D01*
X134886700Y-66525911D01*
X135019088Y-66658299D01*
X135019092Y-66658302D01*
X135174762Y-66762318D01*
X135174771Y-66762323D01*
X135193054Y-66769896D01*
X135347749Y-66833973D01*
X135531379Y-66870499D01*
X135531383Y-66870500D01*
X135531384Y-66870500D01*
X135718617Y-66870500D01*
X135718618Y-66870499D01*
X135902251Y-66833973D01*
X136075231Y-66762322D01*
X136230908Y-66658302D01*
X136363302Y-66525908D01*
X136467322Y-66370231D01*
X136467324Y-66370227D01*
X136467325Y-66370225D01*
X136485472Y-66326412D01*
X136510940Y-66264927D01*
X136554779Y-66210525D01*
X136621073Y-66188460D01*
X136688773Y-66205739D01*
X136736383Y-66256876D01*
X136749500Y-66312381D01*
X136749500Y-66567869D01*
X136749501Y-66567876D01*
X136755908Y-66627483D01*
X136791682Y-66723395D01*
X136799500Y-66766728D01*
X136799500Y-67323916D01*
X136805985Y-67356520D01*
X136808043Y-67389668D01*
X136798457Y-67522017D01*
X136798456Y-67522020D01*
X136803378Y-67591722D01*
X136803379Y-67591724D01*
X136833837Y-67732343D01*
X136861383Y-67782898D01*
X136902679Y-67858688D01*
X136902681Y-67858691D01*
X136944493Y-67914650D01*
X136944495Y-67914652D01*
X137046141Y-68016480D01*
X137046141Y-68016481D01*
X137337943Y-68235332D01*
X137663633Y-68479600D01*
X137678476Y-68490318D01*
X137685837Y-68495433D01*
X137700997Y-68505567D01*
X137831874Y-68565338D01*
X137898913Y-68585023D01*
X137898917Y-68585024D01*
X138041333Y-68605500D01*
X140523082Y-68605500D01*
X140590121Y-68625185D01*
X140614489Y-68645710D01*
X141361907Y-69461074D01*
X141392697Y-69523794D01*
X141394500Y-69544864D01*
X141394500Y-73256522D01*
X141395175Y-73282637D01*
X141395841Y-73295482D01*
X141397871Y-73321565D01*
X141432957Y-73461102D01*
X141440231Y-73478841D01*
X141458525Y-73523457D01*
X141465745Y-73592953D01*
X141434247Y-73655320D01*
X141374031Y-73690757D01*
X141343795Y-73694500D01*
X139844865Y-73694500D01*
X139777826Y-73674815D01*
X139761075Y-73661907D01*
X138945710Y-72914488D01*
X138909593Y-72854677D01*
X138905500Y-72823081D01*
X138905500Y-71054188D01*
X138905500Y-71054177D01*
X138901473Y-70990496D01*
X138897537Y-70959501D01*
X138885516Y-70896823D01*
X138865544Y-70848979D01*
X138830091Y-70764047D01*
X138830089Y-70764043D01*
X138804595Y-70721344D01*
X138794274Y-70704057D01*
X138703688Y-70592276D01*
X136079096Y-68162098D01*
X136058047Y-68144260D01*
X136045201Y-68133374D01*
X136033733Y-68124492D01*
X136027997Y-68120049D01*
X136006725Y-68105018D01*
X135991746Y-68094434D01*
X135860870Y-68034663D01*
X135793825Y-68014976D01*
X135746352Y-68008150D01*
X135651408Y-67994500D01*
X135651406Y-67994500D01*
X132790128Y-67994500D01*
X132723089Y-67974815D01*
X132677334Y-67922011D01*
X132667390Y-67852853D01*
X132689809Y-67797615D01*
X132710361Y-67769326D01*
X132755051Y-67707816D01*
X132851557Y-67518412D01*
X132917246Y-67316243D01*
X132950500Y-67106287D01*
X132950500Y-66893713D01*
X132917246Y-66683757D01*
X132851557Y-66481588D01*
X132755051Y-66292184D01*
X132755049Y-66292181D01*
X132755048Y-66292179D01*
X132630109Y-66120213D01*
X132516569Y-66006673D01*
X132483084Y-65945350D01*
X132488068Y-65875658D01*
X132529940Y-65819725D01*
X132560915Y-65802810D01*
X132692331Y-65753796D01*
X132807546Y-65667546D01*
X132893796Y-65552331D01*
X132944091Y-65417483D01*
X132950500Y-65357873D01*
X132950499Y-63562128D01*
X132944091Y-63502517D01*
X132918039Y-63432669D01*
X132893797Y-63367671D01*
X132893793Y-63367664D01*
X132807547Y-63252455D01*
X132807544Y-63252452D01*
X132692335Y-63166206D01*
X132692328Y-63166202D01*
X132557482Y-63115908D01*
X132557483Y-63115908D01*
X132497883Y-63109501D01*
X132497881Y-63109500D01*
X132497873Y-63109500D01*
X132497864Y-63109500D01*
X130702129Y-63109500D01*
X130702123Y-63109501D01*
X130642516Y-63115908D01*
X130507671Y-63166202D01*
X130507664Y-63166206D01*
X130392455Y-63252452D01*
X130392452Y-63252455D01*
X130306206Y-63367664D01*
X130306204Y-63367668D01*
X130306204Y-63367669D01*
X130302039Y-63378834D01*
X130260171Y-63434766D01*
X130194707Y-63459184D01*
X130185859Y-63459500D01*
X128975951Y-63459500D01*
X128908912Y-63439815D01*
X128876684Y-63409811D01*
X128807546Y-63317454D01*
X128784709Y-63300358D01*
X128692335Y-63231206D01*
X128692328Y-63231202D01*
X128557482Y-63180908D01*
X128557483Y-63180908D01*
X128497883Y-63174501D01*
X128497881Y-63174500D01*
X128497873Y-63174500D01*
X128497864Y-63174500D01*
X126702129Y-63174500D01*
X126702123Y-63174501D01*
X126642516Y-63180908D01*
X126507671Y-63231202D01*
X126507664Y-63231206D01*
X126392455Y-63317452D01*
X126392452Y-63317455D01*
X126306206Y-63432664D01*
X126306202Y-63432671D01*
X126255908Y-63567517D01*
X126249501Y-63627116D01*
X126249500Y-63627135D01*
X119899504Y-63627135D01*
X119900500Y-63617873D01*
X119900499Y-61822128D01*
X119894091Y-61762517D01*
X119843796Y-61627669D01*
X119843795Y-61627668D01*
X119843793Y-61627664D01*
X119757547Y-61512455D01*
X119757544Y-61512452D01*
X119642335Y-61426206D01*
X119642328Y-61426202D01*
X119507482Y-61375908D01*
X119507483Y-61375908D01*
X119447883Y-61369501D01*
X119447881Y-61369500D01*
X119447873Y-61369500D01*
X119447864Y-61369500D01*
X117652129Y-61369500D01*
X117652123Y-61369501D01*
X117592516Y-61375908D01*
X117457671Y-61426202D01*
X117457664Y-61426206D01*
X117342455Y-61512452D01*
X117342452Y-61512455D01*
X117256206Y-61627664D01*
X117256202Y-61627671D01*
X117205908Y-61762517D01*
X117199501Y-61822116D01*
X117199501Y-61822123D01*
X117199500Y-61822135D01*
X116250500Y-61822135D01*
X116250500Y-60706379D01*
X134674500Y-60706379D01*
X134674500Y-61693620D01*
X134711025Y-61877243D01*
X134711027Y-61877251D01*
X134782676Y-62050228D01*
X134782681Y-62050237D01*
X134886697Y-62205907D01*
X134886700Y-62205911D01*
X135019088Y-62338299D01*
X135019092Y-62338302D01*
X135174762Y-62442318D01*
X135174768Y-62442321D01*
X135174769Y-62442322D01*
X135347749Y-62513973D01*
X135531379Y-62550499D01*
X135531383Y-62550500D01*
X135531384Y-62550500D01*
X135718617Y-62550500D01*
X135718618Y-62550499D01*
X135902251Y-62513973D01*
X136075231Y-62442322D01*
X136230908Y-62338302D01*
X136363302Y-62205908D01*
X136467322Y-62050231D01*
X136538973Y-61877251D01*
X136575500Y-61693616D01*
X136575500Y-60706384D01*
X136575499Y-60706379D01*
X143324500Y-60706379D01*
X143324500Y-61693620D01*
X143361025Y-61877243D01*
X143361027Y-61877251D01*
X143432676Y-62050228D01*
X143432681Y-62050237D01*
X143536697Y-62205907D01*
X143536700Y-62205911D01*
X143669088Y-62338299D01*
X143669092Y-62338302D01*
X143824762Y-62442318D01*
X143824768Y-62442321D01*
X143824769Y-62442322D01*
X143997749Y-62513973D01*
X144181379Y-62550499D01*
X144181383Y-62550500D01*
X144181384Y-62550500D01*
X144368617Y-62550500D01*
X144368618Y-62550499D01*
X144552251Y-62513973D01*
X144725231Y-62442322D01*
X144880908Y-62338302D01*
X145013302Y-62205908D01*
X145117322Y-62050231D01*
X145188973Y-61877251D01*
X145225500Y-61693616D01*
X145225500Y-60706384D01*
X145188973Y-60522749D01*
X145117322Y-60349769D01*
X145117321Y-60349768D01*
X145117318Y-60349762D01*
X145013302Y-60194092D01*
X145013299Y-60194088D01*
X144880911Y-60061700D01*
X144880907Y-60061697D01*
X144725237Y-59957681D01*
X144725228Y-59957676D01*
X144552251Y-59886027D01*
X144552243Y-59886025D01*
X144368620Y-59849500D01*
X144368616Y-59849500D01*
X144181384Y-59849500D01*
X144181379Y-59849500D01*
X143997756Y-59886025D01*
X143997748Y-59886027D01*
X143824771Y-59957676D01*
X143824762Y-59957681D01*
X143669092Y-60061697D01*
X143669088Y-60061700D01*
X143536700Y-60194088D01*
X143536697Y-60194092D01*
X143432681Y-60349762D01*
X143432676Y-60349771D01*
X143361027Y-60522748D01*
X143361025Y-60522756D01*
X143324500Y-60706379D01*
X136575499Y-60706379D01*
X136538973Y-60522749D01*
X136467322Y-60349769D01*
X136467321Y-60349768D01*
X136467318Y-60349762D01*
X136363302Y-60194092D01*
X136363299Y-60194088D01*
X136230911Y-60061700D01*
X136230907Y-60061697D01*
X136075237Y-59957681D01*
X136075228Y-59957676D01*
X135902251Y-59886027D01*
X135902243Y-59886025D01*
X135718620Y-59849500D01*
X135718616Y-59849500D01*
X135531384Y-59849500D01*
X135531379Y-59849500D01*
X135347756Y-59886025D01*
X135347748Y-59886027D01*
X135174771Y-59957676D01*
X135174762Y-59957681D01*
X135019092Y-60061697D01*
X135019088Y-60061700D01*
X134886700Y-60194088D01*
X134886697Y-60194092D01*
X134782681Y-60349762D01*
X134782676Y-60349771D01*
X134711027Y-60522748D01*
X134711025Y-60522756D01*
X134674500Y-60706379D01*
X116250500Y-60706379D01*
X116250500Y-59124500D01*
X116270185Y-59057461D01*
X116322989Y-59011706D01*
X116374500Y-59000500D01*
X163075500Y-59000500D01*
X163142539Y-59020185D01*
G37*
%TD.AperFunction*%
%TA.AperFunction,Conductor*%
G36*
X143064186Y-103753050D02*
G01*
X143073148Y-103751762D01*
X143097188Y-103762740D01*
X143122540Y-103770185D01*
X143128467Y-103777025D01*
X143136704Y-103780787D01*
X143150993Y-103803021D01*
X143168295Y-103822989D01*
X143170582Y-103833503D01*
X143174478Y-103839565D01*
X143179501Y-103874500D01*
X143179501Y-103899193D01*
X143182153Y-103932891D01*
X143167787Y-104001268D01*
X143118734Y-104051023D01*
X143068269Y-104066233D01*
X143054016Y-104067355D01*
X143054002Y-104067357D01*
X142898609Y-104112504D01*
X142898606Y-104112505D01*
X142759315Y-104194881D01*
X142759307Y-104194887D01*
X142644887Y-104309307D01*
X142644880Y-104309316D01*
X142627550Y-104338621D01*
X142576481Y-104386305D01*
X142520818Y-104399500D01*
X141987598Y-104399500D01*
X141958157Y-104390855D01*
X141928171Y-104384332D01*
X141923155Y-104380577D01*
X141920559Y-104379815D01*
X141899917Y-104363181D01*
X141886818Y-104350082D01*
X141853333Y-104288759D01*
X141850499Y-104262401D01*
X141850499Y-104075596D01*
X141836011Y-103965536D01*
X141836009Y-103965531D01*
X141836009Y-103965528D01*
X141828313Y-103946950D01*
X141820845Y-103877483D01*
X141852119Y-103815004D01*
X141912208Y-103779351D01*
X141942875Y-103775499D01*
X142574403Y-103775499D01*
X142684463Y-103761011D01*
X142684466Y-103761009D01*
X142684472Y-103761009D01*
X142687058Y-103759938D01*
X142734508Y-103750500D01*
X143055501Y-103750500D01*
X143064186Y-103753050D01*
G37*
%TD.AperFunction*%
%TA.AperFunction,Conductor*%
G36*
X135822539Y-103270185D02*
G01*
X135868294Y-103322989D01*
X135879500Y-103374500D01*
X135879500Y-103584697D01*
X135882356Y-103620991D01*
X135882357Y-103620997D01*
X135920106Y-103750926D01*
X135920848Y-103760861D01*
X135923600Y-103766743D01*
X135923070Y-103790604D01*
X135923925Y-103802036D01*
X135923404Y-103805908D01*
X135899500Y-103926082D01*
X135899500Y-103983792D01*
X135898395Y-103992015D01*
X135887415Y-104016656D01*
X135879815Y-104042539D01*
X135873408Y-104048090D01*
X135869957Y-104055836D01*
X135847394Y-104070631D01*
X135827011Y-104088294D01*
X135817208Y-104090426D01*
X135811530Y-104094150D01*
X135799586Y-104094260D01*
X135775500Y-104099500D01*
X135074499Y-104099500D01*
X135007460Y-104079815D01*
X134961705Y-104027011D01*
X134950499Y-103975500D01*
X134950499Y-103799998D01*
X134950498Y-103799981D01*
X134939999Y-103697203D01*
X134939998Y-103697200D01*
X134901382Y-103580667D01*
X134900847Y-103565103D01*
X134895405Y-103550511D01*
X134899670Y-103530900D01*
X134898981Y-103510842D01*
X134907150Y-103496517D01*
X134910257Y-103482238D01*
X134931401Y-103453992D01*
X135098577Y-103286816D01*
X135159900Y-103253334D01*
X135186257Y-103250500D01*
X135755500Y-103250500D01*
X135822539Y-103270185D01*
G37*
%TD.AperFunction*%
%TA.AperFunction,Conductor*%
G36*
X140995759Y-101731518D02*
G01*
X140996925Y-101731392D01*
X140997647Y-101731604D01*
X140998213Y-101731630D01*
X141010702Y-101734010D01*
X141015528Y-101736009D01*
X141033842Y-101738420D01*
X141037321Y-101739083D01*
X141065361Y-101753464D01*
X141094187Y-101766216D01*
X141096214Y-101769289D01*
X141099491Y-101770970D01*
X141115303Y-101798228D01*
X141132660Y-101824539D01*
X141132703Y-101828222D01*
X141134551Y-101831406D01*
X141137047Y-101844705D01*
X141138991Y-101859470D01*
X141138991Y-101859472D01*
X141195719Y-101996426D01*
X141195721Y-101996429D01*
X141255637Y-102074514D01*
X141280831Y-102139683D01*
X141266792Y-102208128D01*
X141255637Y-102225486D01*
X141195721Y-102303570D01*
X141195719Y-102303573D01*
X141138991Y-102440527D01*
X141138990Y-102440529D01*
X141124500Y-102550598D01*
X141124500Y-102749403D01*
X141138989Y-102859468D01*
X141141094Y-102867322D01*
X141137814Y-102868200D01*
X141143581Y-102922073D01*
X141140517Y-102932522D01*
X141141095Y-102932677D01*
X141138990Y-102940529D01*
X141124500Y-103050598D01*
X141124500Y-103249403D01*
X141138988Y-103359463D01*
X141138991Y-103359472D01*
X141151099Y-103388704D01*
X141153536Y-103411376D01*
X141160499Y-103433091D01*
X141157198Y-103445453D01*
X141158566Y-103458174D01*
X141148358Y-103478563D01*
X141142477Y-103500596D01*
X141133016Y-103509211D01*
X141127290Y-103520652D01*
X141107679Y-103532287D01*
X141090820Y-103547642D01*
X141072538Y-103553137D01*
X141067201Y-103556304D01*
X141057212Y-103558419D01*
X141054951Y-103558801D01*
X141015528Y-103563991D01*
X141009503Y-103566486D01*
X140995674Y-103568825D01*
X140974277Y-103566286D01*
X140952853Y-103568567D01*
X140942477Y-103565518D01*
X140942323Y-103566095D01*
X140934470Y-103563990D01*
X140824401Y-103549500D01*
X140625596Y-103549500D01*
X140515531Y-103563989D01*
X140507678Y-103566094D01*
X140506802Y-103562824D01*
X140452853Y-103568567D01*
X140442477Y-103565518D01*
X140442323Y-103566095D01*
X140434470Y-103563990D01*
X140324401Y-103549500D01*
X140125596Y-103549500D01*
X140015531Y-103563989D01*
X140007678Y-103566094D01*
X140006802Y-103562824D01*
X139952853Y-103568567D01*
X139942477Y-103565518D01*
X139942323Y-103566095D01*
X139934470Y-103563990D01*
X139824401Y-103549500D01*
X139625596Y-103549500D01*
X139515531Y-103563989D01*
X139507678Y-103566094D01*
X139506802Y-103562824D01*
X139452853Y-103568567D01*
X139451786Y-103568369D01*
X139439294Y-103565988D01*
X139434472Y-103563991D01*
X139416168Y-103561581D01*
X139412678Y-103560916D01*
X139384629Y-103546529D01*
X139355809Y-103533780D01*
X139353783Y-103530708D01*
X139350508Y-103529029D01*
X139334689Y-103501760D01*
X139317338Y-103475455D01*
X139316083Y-103469688D01*
X139315448Y-103468593D01*
X139315516Y-103467083D01*
X139312954Y-103455305D01*
X139311009Y-103440528D01*
X139311006Y-103440522D01*
X139311006Y-103440518D01*
X139308905Y-103432674D01*
X139312207Y-103431789D01*
X139306392Y-103378075D01*
X139309501Y-103367485D01*
X139308905Y-103367326D01*
X139311008Y-103359475D01*
X139311008Y-103359474D01*
X139311009Y-103359472D01*
X139325500Y-103249401D01*
X139325499Y-103050600D01*
X139311009Y-102940528D01*
X139311008Y-102940525D01*
X139308905Y-102932674D01*
X139312207Y-102931789D01*
X139306392Y-102878075D01*
X139309501Y-102867485D01*
X139308905Y-102867326D01*
X139311008Y-102859475D01*
X139311008Y-102859474D01*
X139311009Y-102859472D01*
X139325500Y-102749401D01*
X139325499Y-102550600D01*
X139311009Y-102440528D01*
X139311008Y-102440525D01*
X139308905Y-102432674D01*
X139312207Y-102431789D01*
X139306392Y-102378075D01*
X139309501Y-102367485D01*
X139308905Y-102367326D01*
X139311008Y-102359475D01*
X139311008Y-102359474D01*
X139311009Y-102359472D01*
X139325500Y-102249401D01*
X139325499Y-102050600D01*
X139311009Y-101940528D01*
X139311008Y-101940525D01*
X139308905Y-101932674D01*
X139312207Y-101931789D01*
X139306392Y-101878075D01*
X139306630Y-101876787D01*
X139309010Y-101864297D01*
X139311009Y-101859472D01*
X139313420Y-101841154D01*
X139314083Y-101837678D01*
X139328466Y-101809634D01*
X139341216Y-101780813D01*
X139344289Y-101778785D01*
X139345970Y-101775509D01*
X139373230Y-101759694D01*
X139399539Y-101742339D01*
X139405309Y-101741083D01*
X139406405Y-101740448D01*
X139407915Y-101740516D01*
X139419695Y-101737954D01*
X139434472Y-101736009D01*
X139434478Y-101736006D01*
X139434480Y-101736006D01*
X139442326Y-101733905D01*
X139443210Y-101737207D01*
X139496925Y-101731392D01*
X139507514Y-101734501D01*
X139507674Y-101733905D01*
X139515524Y-101736008D01*
X139515526Y-101736008D01*
X139515528Y-101736009D01*
X139625599Y-101750500D01*
X139824400Y-101750499D01*
X139824401Y-101750499D01*
X139841087Y-101748302D01*
X139934472Y-101736009D01*
X139934475Y-101736007D01*
X139942326Y-101733905D01*
X139943210Y-101737207D01*
X139996925Y-101731392D01*
X140007514Y-101734501D01*
X140007674Y-101733905D01*
X140015524Y-101736008D01*
X140015526Y-101736008D01*
X140015528Y-101736009D01*
X140125599Y-101750500D01*
X140324400Y-101750499D01*
X140324401Y-101750499D01*
X140341087Y-101748302D01*
X140434472Y-101736009D01*
X140434475Y-101736007D01*
X140442326Y-101733905D01*
X140443210Y-101737207D01*
X140496925Y-101731392D01*
X140507514Y-101734501D01*
X140507674Y-101733905D01*
X140515524Y-101736008D01*
X140515526Y-101736008D01*
X140515528Y-101736009D01*
X140625599Y-101750500D01*
X140824400Y-101750499D01*
X140824401Y-101750499D01*
X140841087Y-101748302D01*
X140934472Y-101736009D01*
X140934475Y-101736007D01*
X140942326Y-101733905D01*
X140943210Y-101737207D01*
X140945821Y-101736925D01*
X140962956Y-101730024D01*
X140995759Y-101731518D01*
G37*
%TD.AperFunction*%
%TA.AperFunction,Conductor*%
G36*
X137999767Y-97501981D02*
G01*
X138044114Y-97530482D01*
X138046580Y-97532948D01*
X138046584Y-97532951D01*
X138169498Y-97615080D01*
X138169511Y-97615087D01*
X138204308Y-97629500D01*
X138306087Y-97671658D01*
X138342742Y-97678949D01*
X138404651Y-97711333D01*
X138439225Y-97772049D01*
X138435486Y-97841818D01*
X138421653Y-97869455D01*
X138404917Y-97894502D01*
X138404912Y-97894511D01*
X138348343Y-98031082D01*
X138348340Y-98031092D01*
X138319500Y-98176079D01*
X138319500Y-98176082D01*
X138319500Y-98323918D01*
X138319500Y-98323920D01*
X138319499Y-98323920D01*
X138348340Y-98468907D01*
X138348343Y-98468917D01*
X138404912Y-98605488D01*
X138404919Y-98605501D01*
X138487048Y-98728415D01*
X138487051Y-98728419D01*
X138591578Y-98832946D01*
X138591581Y-98832948D01*
X138591584Y-98832951D01*
X138624391Y-98854872D01*
X138629481Y-98860961D01*
X138636703Y-98864260D01*
X138651566Y-98887388D01*
X138669195Y-98908482D01*
X138671146Y-98917856D01*
X138674477Y-98923038D01*
X138679500Y-98957973D01*
X138679500Y-99075500D01*
X138659815Y-99142539D01*
X138607011Y-99188294D01*
X138555500Y-99199500D01*
X138026666Y-99199500D01*
X137959627Y-99179815D01*
X137938984Y-99163180D01*
X137895692Y-99119887D01*
X137895684Y-99119881D01*
X137756393Y-99037505D01*
X137756390Y-99037504D01*
X137600997Y-98992357D01*
X137600991Y-98992356D01*
X137564697Y-98989500D01*
X137564690Y-98989500D01*
X137155310Y-98989500D01*
X137155302Y-98989500D01*
X137119008Y-98992356D01*
X137119002Y-98992357D01*
X136963609Y-99037504D01*
X136963606Y-99037505D01*
X136824315Y-99119881D01*
X136824307Y-99119887D01*
X136709887Y-99234307D01*
X136709881Y-99234315D01*
X136627505Y-99373606D01*
X136627504Y-99373609D01*
X136582357Y-99529002D01*
X136582356Y-99529008D01*
X136579500Y-99565302D01*
X136579500Y-100034697D01*
X136582356Y-100070991D01*
X136582357Y-100070997D01*
X136627504Y-100226390D01*
X136627505Y-100226393D01*
X136709881Y-100365684D01*
X136709887Y-100365692D01*
X136824307Y-100480112D01*
X136824311Y-100480115D01*
X136824313Y-100480117D01*
X136963605Y-100562494D01*
X137004587Y-100574400D01*
X137119002Y-100607642D01*
X137119005Y-100607642D01*
X137119007Y-100607643D01*
X137155310Y-100610500D01*
X137155318Y-100610500D01*
X137564682Y-100610500D01*
X137564690Y-100610500D01*
X137600993Y-100607643D01*
X137600995Y-100607642D01*
X137600997Y-100607642D01*
X137641975Y-100595736D01*
X137756395Y-100562494D01*
X137895687Y-100480117D01*
X137938984Y-100436820D01*
X138000307Y-100403334D01*
X138026666Y-100400500D01*
X138475500Y-100400500D01*
X138542539Y-100420185D01*
X138588294Y-100472989D01*
X138599500Y-100524500D01*
X138599500Y-100900500D01*
X138579815Y-100967539D01*
X138527011Y-101013294D01*
X138475500Y-101024500D01*
X137875596Y-101024500D01*
X137765536Y-101038988D01*
X137765527Y-101038991D01*
X137628574Y-101095719D01*
X137510964Y-101185964D01*
X137420719Y-101303574D01*
X137363991Y-101440527D01*
X137363990Y-101440530D01*
X137363839Y-101441683D01*
X137363528Y-101442385D01*
X137363638Y-101443147D01*
X137362795Y-101444992D01*
X137361888Y-101448378D01*
X137361318Y-101448225D01*
X137349406Y-101474309D01*
X137335574Y-101505580D01*
X137334932Y-101506003D01*
X137334613Y-101506703D01*
X137305791Y-101525225D01*
X137277250Y-101544052D01*
X137276267Y-101544199D01*
X137275835Y-101544477D01*
X137240900Y-101549500D01*
X137100098Y-101549500D01*
X137033059Y-101529815D01*
X137012417Y-101513181D01*
X136136819Y-100637583D01*
X136103334Y-100576260D01*
X136100500Y-100549902D01*
X136100500Y-99350097D01*
X136120185Y-99283058D01*
X136136819Y-99262416D01*
X136930328Y-98468907D01*
X137868754Y-97530480D01*
X137930075Y-97496997D01*
X137999767Y-97501981D01*
G37*
%TD.AperFunction*%
%TA.AperFunction,Conductor*%
G36*
X142030703Y-99330384D02*
G01*
X142037181Y-99336416D01*
X142363181Y-99662416D01*
X142396666Y-99723739D01*
X142399500Y-99750097D01*
X142399500Y-100900500D01*
X142379815Y-100967539D01*
X142327011Y-101013294D01*
X142275500Y-101024500D01*
X141974499Y-101024500D01*
X141907460Y-101004815D01*
X141861705Y-100952011D01*
X141850499Y-100900500D01*
X141850499Y-100300596D01*
X141836011Y-100190536D01*
X141836009Y-100190531D01*
X141836009Y-100190528D01*
X141834938Y-100187942D01*
X141825500Y-100140492D01*
X141825500Y-99424097D01*
X141845185Y-99357058D01*
X141897989Y-99311303D01*
X141967147Y-99301359D01*
X142030703Y-99330384D01*
G37*
%TD.AperFunction*%
%TA.AperFunction,Conductor*%
G36*
X151183731Y-93007685D02*
G01*
X151204373Y-93024319D01*
X156894723Y-98714669D01*
X156985331Y-98805277D01*
X157026741Y-98832946D01*
X157073606Y-98864260D01*
X157075178Y-98865310D01*
X157075179Y-98865311D01*
X157075178Y-98865311D01*
X157091871Y-98876464D01*
X157091872Y-98876464D01*
X157091873Y-98876465D01*
X157210256Y-98925501D01*
X157334352Y-98950185D01*
X157335926Y-98950498D01*
X157335930Y-98950499D01*
X157335931Y-98950499D01*
X157464070Y-98950499D01*
X157464070Y-98950498D01*
X157552632Y-98932883D01*
X157576823Y-98930500D01*
X159940382Y-98930500D01*
X160007421Y-98950185D01*
X160041099Y-98984591D01*
X160042085Y-98983875D01*
X160169890Y-99159786D01*
X160283430Y-99273326D01*
X160316915Y-99334649D01*
X160311931Y-99404341D01*
X160270059Y-99460274D01*
X160239083Y-99477189D01*
X160107669Y-99526203D01*
X160107664Y-99526206D01*
X159992455Y-99612452D01*
X159992452Y-99612455D01*
X159906206Y-99727664D01*
X159906202Y-99727671D01*
X159855908Y-99862517D01*
X159850875Y-99909335D01*
X159849501Y-99922123D01*
X159849500Y-99922135D01*
X159849500Y-100045500D01*
X159829815Y-100112539D01*
X159777011Y-100158294D01*
X159725500Y-100169500D01*
X157740808Y-100169500D01*
X157673769Y-100149815D01*
X157653127Y-100133181D01*
X150719627Y-93199681D01*
X150686142Y-93138358D01*
X150691126Y-93068666D01*
X150732998Y-93012733D01*
X150798462Y-92988316D01*
X150807308Y-92988000D01*
X151116692Y-92988000D01*
X151183731Y-93007685D01*
G37*
%TD.AperFunction*%
%TA.AperFunction,Conductor*%
G36*
X153483731Y-92507685D02*
G01*
X153504373Y-92524319D01*
X157225326Y-96245273D01*
X157225334Y-96245279D01*
X157317382Y-96306783D01*
X157317383Y-96306783D01*
X157317384Y-96306784D01*
X157331873Y-96316465D01*
X157331874Y-96316465D01*
X157331875Y-96316466D01*
X157347534Y-96322952D01*
X157450256Y-96365501D01*
X157450260Y-96365501D01*
X157450261Y-96365502D01*
X157575928Y-96390500D01*
X157575931Y-96390500D01*
X159940382Y-96390500D01*
X160007421Y-96410185D01*
X160041099Y-96444591D01*
X160042085Y-96443875D01*
X160169890Y-96619786D01*
X160320213Y-96770109D01*
X160492182Y-96895050D01*
X160500946Y-96899516D01*
X160551742Y-96947491D01*
X160568536Y-97015312D01*
X160545998Y-97081447D01*
X160500946Y-97120484D01*
X160492182Y-97124949D01*
X160320213Y-97249890D01*
X160169890Y-97400213D01*
X160042085Y-97576125D01*
X160040740Y-97575148D01*
X159994295Y-97617166D01*
X159940382Y-97629500D01*
X157700808Y-97629500D01*
X157633769Y-97609815D01*
X157613127Y-97593181D01*
X152719627Y-92699681D01*
X152686142Y-92638358D01*
X152691126Y-92568666D01*
X152732998Y-92512733D01*
X152798462Y-92488316D01*
X152807308Y-92488000D01*
X153416692Y-92488000D01*
X153483731Y-92507685D01*
G37*
%TD.AperFunction*%
%TA.AperFunction,Conductor*%
G36*
X155583731Y-92007685D02*
G01*
X155604373Y-92024319D01*
X157285325Y-93705272D01*
X157285326Y-93705273D01*
X157285329Y-93705275D01*
X157285331Y-93705277D01*
X157387332Y-93773431D01*
X157391871Y-93776464D01*
X157391872Y-93776464D01*
X157391873Y-93776465D01*
X157510256Y-93825501D01*
X157510260Y-93825501D01*
X157510261Y-93825502D01*
X157635928Y-93850500D01*
X157635931Y-93850500D01*
X159940382Y-93850500D01*
X160007421Y-93870185D01*
X160041099Y-93904591D01*
X160042085Y-93903875D01*
X160169890Y-94079786D01*
X160320213Y-94230109D01*
X160492182Y-94355050D01*
X160500946Y-94359516D01*
X160551742Y-94407491D01*
X160568536Y-94475312D01*
X160545998Y-94541447D01*
X160500946Y-94580484D01*
X160492182Y-94584949D01*
X160320213Y-94709890D01*
X160169890Y-94860213D01*
X160042085Y-95036125D01*
X160040740Y-95035148D01*
X159994295Y-95077166D01*
X159940382Y-95089500D01*
X157960808Y-95089500D01*
X157893769Y-95069815D01*
X157873127Y-95053181D01*
X155019627Y-92199681D01*
X154986142Y-92138358D01*
X154991126Y-92068666D01*
X155032998Y-92012733D01*
X155098462Y-91988316D01*
X155107308Y-91988000D01*
X155516692Y-91988000D01*
X155583731Y-92007685D01*
G37*
%TD.AperFunction*%
%TA.AperFunction,Conductor*%
G36*
X160074334Y-91489541D02*
G01*
X160079695Y-91488455D01*
X160107500Y-91499280D01*
X160136124Y-91507685D01*
X160141057Y-91512344D01*
X160144804Y-91513803D01*
X160166576Y-91536205D01*
X160166724Y-91536079D01*
X160168689Y-91538379D01*
X160169402Y-91539113D01*
X160169892Y-91539788D01*
X160320213Y-91690109D01*
X160492182Y-91815050D01*
X160500946Y-91819516D01*
X160551742Y-91867491D01*
X160568536Y-91935312D01*
X160545998Y-92001447D01*
X160500946Y-92040484D01*
X160492182Y-92044949D01*
X160320213Y-92169890D01*
X160169890Y-92320213D01*
X160042085Y-92496125D01*
X160040740Y-92495148D01*
X159994295Y-92537166D01*
X159940382Y-92549500D01*
X158020808Y-92549500D01*
X157953769Y-92529815D01*
X157933127Y-92513181D01*
X157119627Y-91699681D01*
X157086142Y-91638358D01*
X157091126Y-91568666D01*
X157132998Y-91512733D01*
X157198462Y-91488316D01*
X157207308Y-91488000D01*
X160069085Y-91488000D01*
X160074334Y-91489541D01*
G37*
%TD.AperFunction*%
%TA.AperFunction,Conductor*%
G36*
X142043334Y-89170548D02*
G01*
X142087681Y-89199049D01*
X142171580Y-89282948D01*
X142171584Y-89282951D01*
X142294498Y-89365080D01*
X142294511Y-89365087D01*
X142396812Y-89407461D01*
X142431087Y-89421658D01*
X142431091Y-89421658D01*
X142431092Y-89421659D01*
X142576079Y-89450500D01*
X142576082Y-89450500D01*
X142723920Y-89450500D01*
X142821462Y-89431096D01*
X142868913Y-89421658D01*
X142974547Y-89377902D01*
X143005488Y-89365087D01*
X143005488Y-89365086D01*
X143005495Y-89365084D01*
X143106609Y-89297522D01*
X143110854Y-89296192D01*
X143113939Y-89292984D01*
X143143899Y-89285845D01*
X143173286Y-89276644D01*
X143177577Y-89277821D01*
X143181906Y-89276790D01*
X143210963Y-89286979D01*
X143240667Y-89295128D01*
X143243640Y-89298438D01*
X143247839Y-89299911D01*
X143266773Y-89324191D01*
X143287357Y-89347107D01*
X143288838Y-89352487D01*
X143290805Y-89355009D01*
X143293667Y-89370025D01*
X143298986Y-89389342D01*
X143299500Y-89394967D01*
X143299500Y-89450220D01*
X143314313Y-89562736D01*
X143314974Y-89564331D01*
X143316060Y-89576218D01*
X143312399Y-89594802D01*
X143312399Y-89603816D01*
X143315374Y-89604208D01*
X143314313Y-89612262D01*
X143314313Y-89612264D01*
X143311992Y-89629896D01*
X143299500Y-89724772D01*
X143299500Y-89950227D01*
X143302804Y-89975319D01*
X143312024Y-90045353D01*
X143315374Y-90070792D01*
X143312399Y-90071183D01*
X143312399Y-90103816D01*
X143315374Y-90104208D01*
X143314313Y-90112262D01*
X143314313Y-90112264D01*
X143311650Y-90132492D01*
X143299500Y-90224772D01*
X143299500Y-90450227D01*
X143315374Y-90570792D01*
X143312399Y-90571183D01*
X143312399Y-90603816D01*
X143315374Y-90604208D01*
X143299500Y-90724772D01*
X143299500Y-90950227D01*
X143315374Y-91070792D01*
X143312399Y-91071183D01*
X143312399Y-91103816D01*
X143315374Y-91104208D01*
X143299500Y-91224772D01*
X143299500Y-91450227D01*
X143315374Y-91570792D01*
X143312399Y-91571183D01*
X143312399Y-91603816D01*
X143315374Y-91604208D01*
X143314313Y-91612262D01*
X143314313Y-91612264D01*
X143312109Y-91629007D01*
X143299500Y-91724772D01*
X143299500Y-91950227D01*
X143309203Y-92023920D01*
X143313815Y-92058956D01*
X143315374Y-92070792D01*
X143313753Y-92071005D01*
X143316127Y-92098020D01*
X143315069Y-92110436D01*
X143314313Y-92112264D01*
X143299500Y-92224780D01*
X143299500Y-92293300D01*
X143299053Y-92298550D01*
X143288231Y-92326406D01*
X143279815Y-92355069D01*
X143275716Y-92358619D01*
X143273752Y-92363678D01*
X143249583Y-92381264D01*
X143227011Y-92400824D01*
X143221643Y-92401595D01*
X143217257Y-92404788D01*
X143187426Y-92406515D01*
X143157853Y-92410768D01*
X143152918Y-92408514D01*
X143147504Y-92408828D01*
X143121480Y-92394157D01*
X143094297Y-92381743D01*
X143090070Y-92376450D01*
X143086640Y-92374516D01*
X143082945Y-92367526D01*
X143068559Y-92349509D01*
X143068469Y-92349570D01*
X143067758Y-92348507D01*
X143066141Y-92346481D01*
X143065085Y-92344506D01*
X142982951Y-92221584D01*
X142982948Y-92221580D01*
X142878419Y-92117051D01*
X142878415Y-92117048D01*
X142755501Y-92034919D01*
X142755488Y-92034912D01*
X142618917Y-91978343D01*
X142618907Y-91978340D01*
X142473920Y-91949500D01*
X142473918Y-91949500D01*
X142326082Y-91949500D01*
X142326080Y-91949500D01*
X142181092Y-91978340D01*
X142181082Y-91978343D01*
X142044506Y-92034914D01*
X142044505Y-92034915D01*
X142012105Y-92056564D01*
X141945428Y-92077441D01*
X141878048Y-92058956D01*
X141874325Y-92056563D01*
X141790121Y-92000299D01*
X141790108Y-92000292D01*
X141653537Y-91943723D01*
X141653527Y-91943720D01*
X141508540Y-91914880D01*
X141508538Y-91914880D01*
X141360702Y-91914880D01*
X141360700Y-91914880D01*
X141215712Y-91943720D01*
X141215702Y-91943723D01*
X141079131Y-92000292D01*
X141079113Y-92000302D01*
X140978510Y-92067523D01*
X140911833Y-92088401D01*
X140844453Y-92069916D01*
X140840730Y-92067523D01*
X140740126Y-92000302D01*
X140740108Y-92000292D01*
X140603537Y-91943723D01*
X140603527Y-91943720D01*
X140458540Y-91914880D01*
X140458538Y-91914880D01*
X140310702Y-91914880D01*
X140310700Y-91914880D01*
X140165712Y-91943720D01*
X140165702Y-91943723D01*
X140029131Y-92000292D01*
X140029118Y-92000299D01*
X139933045Y-92064494D01*
X139866367Y-92085372D01*
X139816701Y-92075953D01*
X139804755Y-92071005D01*
X139678533Y-92018722D01*
X139678527Y-92018720D01*
X139533540Y-91989880D01*
X139533538Y-91989880D01*
X139385702Y-91989880D01*
X139385700Y-91989880D01*
X139240712Y-92018720D01*
X139240702Y-92018723D01*
X139104131Y-92075292D01*
X139104113Y-92075302D01*
X139067661Y-92099659D01*
X139000984Y-92120537D01*
X138933604Y-92102052D01*
X138895669Y-92065448D01*
X138832951Y-91971583D01*
X138728419Y-91867051D01*
X138728415Y-91867048D01*
X138605501Y-91784919D01*
X138605488Y-91784912D01*
X138468917Y-91728343D01*
X138468907Y-91728340D01*
X138323920Y-91699500D01*
X138323918Y-91699500D01*
X138176082Y-91699500D01*
X138176080Y-91699500D01*
X138031092Y-91728340D01*
X138031079Y-91728344D01*
X138027483Y-91729834D01*
X138025449Y-91730052D01*
X138025260Y-91730110D01*
X138025249Y-91730074D01*
X137958013Y-91737298D01*
X137895536Y-91706019D01*
X137859888Y-91645928D01*
X137862386Y-91576103D01*
X137892357Y-91527589D01*
X138205273Y-91214673D01*
X138205277Y-91214669D01*
X138276465Y-91108127D01*
X138276467Y-91108123D01*
X138293034Y-91068127D01*
X138293034Y-91068126D01*
X138299225Y-91053180D01*
X138325501Y-90989744D01*
X138350500Y-90864069D01*
X138350500Y-89474500D01*
X138370185Y-89407461D01*
X138422989Y-89361706D01*
X138467939Y-89351927D01*
X138467858Y-89351097D01*
X138473920Y-89350500D01*
X138589589Y-89327491D01*
X138618913Y-89321658D01*
X138727587Y-89276644D01*
X138755488Y-89265087D01*
X138755488Y-89265086D01*
X138755495Y-89265084D01*
X138798605Y-89236278D01*
X138865280Y-89215400D01*
X138932661Y-89233883D01*
X138936378Y-89236272D01*
X138966741Y-89256560D01*
X138966742Y-89256560D01*
X138966743Y-89256561D01*
X139071400Y-89299911D01*
X139103323Y-89313134D01*
X139103327Y-89313134D01*
X139103328Y-89313135D01*
X139248315Y-89341976D01*
X139248318Y-89341976D01*
X139396156Y-89341976D01*
X139513891Y-89318556D01*
X139541149Y-89313134D01*
X139677731Y-89256560D01*
X139747662Y-89209833D01*
X139814338Y-89188956D01*
X139881718Y-89207440D01*
X139885443Y-89209834D01*
X139994498Y-89282703D01*
X139994511Y-89282710D01*
X140094656Y-89324191D01*
X140131087Y-89339281D01*
X140131091Y-89339281D01*
X140131092Y-89339282D01*
X140276079Y-89368123D01*
X140276082Y-89368123D01*
X140423920Y-89368123D01*
X140531837Y-89346656D01*
X140568913Y-89339281D01*
X140687695Y-89290080D01*
X140705488Y-89282710D01*
X140705488Y-89282709D01*
X140705495Y-89282707D01*
X140813091Y-89210813D01*
X140879765Y-89189937D01*
X140947145Y-89208421D01*
X140950870Y-89210815D01*
X141069498Y-89290080D01*
X141069511Y-89290087D01*
X141206082Y-89346656D01*
X141206087Y-89346658D01*
X141206091Y-89346658D01*
X141206092Y-89346659D01*
X141351079Y-89375500D01*
X141351082Y-89375500D01*
X141498920Y-89375500D01*
X141614609Y-89352487D01*
X141643913Y-89346658D01*
X141749547Y-89302902D01*
X141780488Y-89290087D01*
X141780488Y-89290086D01*
X141780495Y-89290084D01*
X141903416Y-89207951D01*
X141903927Y-89207440D01*
X141912319Y-89199049D01*
X141973642Y-89165564D01*
X142043334Y-89170548D01*
G37*
%TD.AperFunction*%
%TA.AperFunction,Conductor*%
G36*
X123755703Y-84076094D02*
G01*
X123762181Y-84082126D01*
X125544724Y-85864669D01*
X125601713Y-85921658D01*
X125635332Y-85955277D01*
X125741866Y-86026461D01*
X125741872Y-86026464D01*
X125741873Y-86026465D01*
X125860256Y-86075501D01*
X125860260Y-86075501D01*
X125860261Y-86075502D01*
X125985928Y-86100500D01*
X125985931Y-86100500D01*
X130829192Y-86100500D01*
X130896231Y-86120185D01*
X130916873Y-86136819D01*
X131658873Y-86878819D01*
X131692358Y-86940142D01*
X131687374Y-87009834D01*
X131645502Y-87065767D01*
X131580038Y-87090184D01*
X131571192Y-87090500D01*
X131471883Y-87090500D01*
X131346215Y-87115497D01*
X131346209Y-87115499D01*
X131289457Y-87139007D01*
X131227827Y-87164535D01*
X131223533Y-87167403D01*
X131156858Y-87188280D01*
X131154646Y-87188300D01*
X130682654Y-87188300D01*
X130615615Y-87168615D01*
X130594977Y-87151985D01*
X130437715Y-86994723D01*
X130331173Y-86923535D01*
X130326132Y-86921447D01*
X130212790Y-86874499D01*
X130212784Y-86874497D01*
X130087117Y-86849500D01*
X130087115Y-86849500D01*
X129976324Y-86849500D01*
X129909285Y-86829815D01*
X129900324Y-86823480D01*
X129895684Y-86819881D01*
X129818707Y-86774357D01*
X129756395Y-86737506D01*
X129756394Y-86737505D01*
X129756393Y-86737505D01*
X129756390Y-86737504D01*
X129600997Y-86692357D01*
X129600991Y-86692356D01*
X129564697Y-86689500D01*
X129564690Y-86689500D01*
X129155310Y-86689500D01*
X129155302Y-86689500D01*
X129119008Y-86692356D01*
X129119002Y-86692357D01*
X128963609Y-86737504D01*
X128963606Y-86737505D01*
X128824315Y-86819881D01*
X128824307Y-86819887D01*
X128709887Y-86934307D01*
X128709881Y-86934315D01*
X128627505Y-87073606D01*
X128627504Y-87073609D01*
X128582357Y-87229002D01*
X128582356Y-87229008D01*
X128579500Y-87265302D01*
X128579500Y-87734697D01*
X128582356Y-87770991D01*
X128582357Y-87770997D01*
X128627504Y-87926390D01*
X128627505Y-87926393D01*
X128709881Y-88065684D01*
X128709887Y-88065692D01*
X128824307Y-88180112D01*
X128824311Y-88180115D01*
X128824313Y-88180117D01*
X128963605Y-88262494D01*
X128968197Y-88263828D01*
X129119002Y-88307642D01*
X129119005Y-88307642D01*
X129119007Y-88307643D01*
X129155310Y-88310500D01*
X129155318Y-88310500D01*
X129564682Y-88310500D01*
X129564690Y-88310500D01*
X129595581Y-88308068D01*
X129600994Y-88307643D01*
X129605516Y-88306817D01*
X129675002Y-88314133D01*
X129729501Y-88357855D01*
X129751711Y-88424101D01*
X129751800Y-88428798D01*
X129751800Y-89159070D01*
X129751801Y-89159076D01*
X129758208Y-89218683D01*
X129808502Y-89353528D01*
X129808504Y-89353531D01*
X129856682Y-89417889D01*
X129881099Y-89483354D01*
X129866247Y-89551627D01*
X129856682Y-89566511D01*
X129808504Y-89630868D01*
X129808502Y-89630871D01*
X129758208Y-89765717D01*
X129756650Y-89780213D01*
X129751801Y-89825323D01*
X129751800Y-89825335D01*
X129751800Y-90936889D01*
X129743155Y-90966328D01*
X129736633Y-90996314D01*
X129732877Y-91001331D01*
X129732115Y-91003928D01*
X129715483Y-91024569D01*
X129686873Y-91053180D01*
X129625550Y-91086666D01*
X129599190Y-91089500D01*
X129275302Y-91089500D01*
X129239008Y-91092356D01*
X129239002Y-91092357D01*
X129083609Y-91137504D01*
X129083606Y-91137505D01*
X128944315Y-91219881D01*
X128944307Y-91219887D01*
X128829887Y-91334307D01*
X128829881Y-91334315D01*
X128747505Y-91473606D01*
X128747504Y-91473609D01*
X128702357Y-91629002D01*
X128702356Y-91629008D01*
X128699500Y-91665302D01*
X128699500Y-92063000D01*
X128679815Y-92130039D01*
X128627011Y-92175794D01*
X128575500Y-92187000D01*
X127258308Y-92187000D01*
X127191269Y-92167315D01*
X127170627Y-92150681D01*
X123586819Y-88566873D01*
X123553334Y-88505550D01*
X123550500Y-88479192D01*
X123550500Y-84169807D01*
X123570185Y-84102768D01*
X123622989Y-84057013D01*
X123692147Y-84047069D01*
X123755703Y-84076094D01*
G37*
%TD.AperFunction*%
%TA.AperFunction,Conductor*%
G36*
X134931317Y-90507685D02*
G01*
X134977072Y-90560489D01*
X134987217Y-90628186D01*
X134974500Y-90724772D01*
X134974500Y-90950227D01*
X134990374Y-91070792D01*
X134988633Y-91071021D01*
X134990948Y-91099940D01*
X134989831Y-91111011D01*
X134989313Y-91112264D01*
X134974500Y-91224780D01*
X134974500Y-91263070D01*
X134973874Y-91269279D01*
X134962971Y-91296101D01*
X134954815Y-91323878D01*
X134949976Y-91328070D01*
X134947564Y-91334005D01*
X134923887Y-91350677D01*
X134902011Y-91369633D01*
X134895673Y-91370544D01*
X134890436Y-91374232D01*
X134861510Y-91375456D01*
X134832853Y-91379577D01*
X134825479Y-91376981D01*
X134820629Y-91377187D01*
X134812401Y-91372378D01*
X134787380Y-91363572D01*
X134737905Y-91334313D01*
X134726395Y-91327506D01*
X134726393Y-91327505D01*
X134726391Y-91327504D01*
X134570997Y-91282357D01*
X134570991Y-91282356D01*
X134534697Y-91279500D01*
X134534690Y-91279500D01*
X134065310Y-91279500D01*
X134065302Y-91279500D01*
X134029010Y-91282356D01*
X133891175Y-91322401D01*
X133821305Y-91322201D01*
X133787692Y-91306428D01*
X133755501Y-91284920D01*
X133755500Y-91284919D01*
X133755495Y-91284916D01*
X133755492Y-91284915D01*
X133755491Y-91284914D01*
X133618913Y-91228342D01*
X133618907Y-91228340D01*
X133473920Y-91199500D01*
X133473918Y-91199500D01*
X133419807Y-91199500D01*
X133352768Y-91179815D01*
X133307013Y-91127011D01*
X133297069Y-91057853D01*
X133326094Y-90994297D01*
X133332126Y-90987819D01*
X133455875Y-90864071D01*
X133795627Y-90524319D01*
X133856950Y-90490834D01*
X133883308Y-90488000D01*
X134864278Y-90488000D01*
X134931317Y-90507685D01*
G37*
%TD.AperFunction*%
%TA.AperFunction,Conductor*%
G36*
X159950344Y-88773425D02*
G01*
X159960651Y-88772168D01*
X159983295Y-88783101D01*
X160007421Y-88790185D01*
X160015891Y-88798838D01*
X160023571Y-88802546D01*
X160041575Y-88824245D01*
X160042085Y-88823875D01*
X160169890Y-88999786D01*
X160320213Y-89150109D01*
X160492182Y-89275050D01*
X160500946Y-89279516D01*
X160551742Y-89327491D01*
X160568536Y-89395312D01*
X160545998Y-89461447D01*
X160500946Y-89500484D01*
X160492182Y-89504949D01*
X160320213Y-89629890D01*
X160169890Y-89780213D01*
X160044951Y-89952179D01*
X160033161Y-89975319D01*
X159962240Y-90114511D01*
X159959802Y-90119295D01*
X159911828Y-90170091D01*
X159849317Y-90187000D01*
X152832308Y-90187000D01*
X152765269Y-90167315D01*
X152719514Y-90114511D01*
X152709570Y-90045353D01*
X152738595Y-89981797D01*
X152744627Y-89975319D01*
X153913127Y-88806819D01*
X153974450Y-88773334D01*
X154000808Y-88770500D01*
X159940382Y-88770500D01*
X159950344Y-88773425D01*
G37*
%TD.AperFunction*%
%TA.AperFunction,Conductor*%
G36*
X160007421Y-86250185D02*
G01*
X160041099Y-86284591D01*
X160042085Y-86283875D01*
X160169890Y-86459786D01*
X160320213Y-86610109D01*
X160492182Y-86735050D01*
X160500946Y-86739516D01*
X160551742Y-86787491D01*
X160568536Y-86855312D01*
X160545998Y-86921447D01*
X160500946Y-86960484D01*
X160492182Y-86964949D01*
X160320213Y-87089890D01*
X160169890Y-87240213D01*
X160042085Y-87416125D01*
X160040740Y-87415148D01*
X159994295Y-87457166D01*
X159940382Y-87469500D01*
X153615929Y-87469500D01*
X153490260Y-87494497D01*
X153490254Y-87494499D01*
X153473438Y-87501465D01*
X153371877Y-87543532D01*
X153371863Y-87543540D01*
X153265332Y-87614721D01*
X153265325Y-87614727D01*
X151229373Y-89650681D01*
X151168050Y-89684166D01*
X151141692Y-89687000D01*
X150632308Y-89687000D01*
X150565269Y-89667315D01*
X150519514Y-89614511D01*
X150509570Y-89545353D01*
X150538595Y-89481797D01*
X150544627Y-89475319D01*
X153753127Y-86266819D01*
X153814450Y-86233334D01*
X153840808Y-86230500D01*
X159940382Y-86230500D01*
X160007421Y-86250185D01*
G37*
%TD.AperFunction*%
%TA.AperFunction,Conductor*%
G36*
X147471444Y-83953999D02*
G01*
X147510486Y-83999056D01*
X147514951Y-84007820D01*
X147639890Y-84179786D01*
X147639896Y-84179792D01*
X147790208Y-84330104D01*
X147962184Y-84455051D01*
X147962188Y-84455053D01*
X147966126Y-84457914D01*
X147965146Y-84459262D01*
X148007160Y-84505690D01*
X148019500Y-84559617D01*
X148019500Y-88109192D01*
X147999815Y-88176231D01*
X147983181Y-88196873D01*
X147529373Y-88650681D01*
X147468050Y-88684166D01*
X147441692Y-88687000D01*
X146232308Y-88687000D01*
X146211062Y-88680761D01*
X146188974Y-88679182D01*
X146178190Y-88671109D01*
X146165269Y-88667315D01*
X146150769Y-88650581D01*
X146133041Y-88637310D01*
X146128333Y-88624689D01*
X146119514Y-88614511D01*
X146116362Y-88592593D01*
X146108624Y-88571846D01*
X146111486Y-88558685D01*
X146109570Y-88545353D01*
X146118769Y-88525209D01*
X146123476Y-88503573D01*
X146136744Y-88485847D01*
X146138595Y-88481797D01*
X146144627Y-88475319D01*
X146303127Y-88316819D01*
X146364450Y-88283334D01*
X146390808Y-88280500D01*
X146534682Y-88280500D01*
X146534690Y-88280500D01*
X146570993Y-88277643D01*
X146570995Y-88277642D01*
X146570997Y-88277642D01*
X146623132Y-88262495D01*
X146726395Y-88232494D01*
X146865687Y-88150117D01*
X146980117Y-88035687D01*
X147062494Y-87896395D01*
X147107643Y-87740993D01*
X147110500Y-87704690D01*
X147110500Y-87295310D01*
X147107643Y-87259007D01*
X147102181Y-87240208D01*
X147069908Y-87129124D01*
X147062494Y-87103605D01*
X147012846Y-87019656D01*
X146995664Y-86951933D01*
X147005019Y-86909081D01*
X147021658Y-86868913D01*
X147021751Y-86868443D01*
X147050500Y-86723920D01*
X147050500Y-86576079D01*
X147021659Y-86431092D01*
X147021658Y-86431091D01*
X147021658Y-86431087D01*
X147003736Y-86387819D01*
X146965087Y-86294511D01*
X146965080Y-86294498D01*
X146882951Y-86171584D01*
X146882948Y-86171580D01*
X146778419Y-86067051D01*
X146778415Y-86067048D01*
X146655501Y-85984919D01*
X146655488Y-85984912D01*
X146518917Y-85928343D01*
X146518907Y-85928340D01*
X146373920Y-85899500D01*
X146373918Y-85899500D01*
X146226082Y-85899500D01*
X146226080Y-85899500D01*
X146081092Y-85928340D01*
X146081082Y-85928343D01*
X145944511Y-85984912D01*
X145944498Y-85984919D01*
X145821584Y-86067048D01*
X145821580Y-86067051D01*
X145717051Y-86171580D01*
X145717048Y-86171584D01*
X145634919Y-86294498D01*
X145634912Y-86294511D01*
X145578343Y-86431082D01*
X145578340Y-86431092D01*
X145549500Y-86576079D01*
X145549500Y-86576082D01*
X145549500Y-86723918D01*
X145549500Y-86723920D01*
X145549499Y-86723920D01*
X145578340Y-86868907D01*
X145578343Y-86868917D01*
X145594981Y-86909084D01*
X145602450Y-86978553D01*
X145587153Y-87019656D01*
X145537504Y-87103608D01*
X145537504Y-87103609D01*
X145490589Y-87265091D01*
X145488639Y-87264524D01*
X145461467Y-87318488D01*
X145458595Y-87321458D01*
X145129371Y-87650682D01*
X145068050Y-87684166D01*
X145041692Y-87687000D01*
X143899500Y-87687000D01*
X143832461Y-87667315D01*
X143786706Y-87614511D01*
X143775500Y-87563000D01*
X143775500Y-86595807D01*
X143795185Y-86528768D01*
X143811814Y-86508131D01*
X145676205Y-84643739D01*
X145737526Y-84610256D01*
X145802200Y-84613490D01*
X145813757Y-84617246D01*
X146023713Y-84650500D01*
X146023714Y-84650500D01*
X146236286Y-84650500D01*
X146236287Y-84650500D01*
X146446243Y-84617246D01*
X146648412Y-84551557D01*
X146837816Y-84455051D01*
X146859789Y-84439086D01*
X147009786Y-84330109D01*
X147009788Y-84330106D01*
X147009792Y-84330104D01*
X147160104Y-84179792D01*
X147160106Y-84179788D01*
X147160109Y-84179786D01*
X147285048Y-84007820D01*
X147285047Y-84007820D01*
X147285051Y-84007816D01*
X147289514Y-83999054D01*
X147337488Y-83948259D01*
X147405308Y-83931463D01*
X147471444Y-83953999D01*
G37*
%TD.AperFunction*%
%TD*%
%TA.AperFunction,Conductor*%
%TO.N,VCC*%
G36*
X135718447Y-68519685D02*
G01*
X135735655Y-68533014D01*
X138360247Y-70963192D01*
X138396064Y-71023182D01*
X138400000Y-71054177D01*
X138400000Y-73100000D01*
X139600000Y-74200000D01*
X142100000Y-74200000D01*
X142199522Y-74200000D01*
X142229442Y-74203664D01*
X142406111Y-74247600D01*
X142448877Y-74250500D01*
X143851122Y-74250499D01*
X143893889Y-74247600D01*
X143893891Y-74247599D01*
X143893895Y-74247599D01*
X143960719Y-74230980D01*
X144030527Y-74233902D01*
X144068106Y-74254485D01*
X144500000Y-74600000D01*
X146356503Y-74600000D01*
X146423542Y-74619685D01*
X146433965Y-74627172D01*
X146853462Y-74962770D01*
X146893514Y-75020019D01*
X146900000Y-75059597D01*
X146900000Y-75629792D01*
X146880315Y-75696831D01*
X146839797Y-75736121D01*
X146429450Y-75982329D01*
X146365655Y-76000000D01*
X144400000Y-76000000D01*
X143826181Y-76286909D01*
X143770728Y-76300000D01*
X139400000Y-76300000D01*
X138600000Y-76800000D01*
X137632021Y-77477585D01*
X137565812Y-77499903D01*
X137560912Y-77500000D01*
X135962000Y-77500000D01*
X135894961Y-77480315D01*
X135862800Y-77450400D01*
X135324800Y-76733066D01*
X135300324Y-76667624D01*
X135300000Y-76658666D01*
X135300000Y-71699999D01*
X134200001Y-70700001D01*
X134200000Y-70700000D01*
X134199999Y-70700000D01*
X132218647Y-70700000D01*
X132182180Y-70694517D01*
X130987533Y-70326933D01*
X130929247Y-70288403D01*
X130901045Y-70224478D01*
X130900000Y-70208416D01*
X130900000Y-68993533D01*
X130919685Y-68926494D01*
X130972489Y-68880739D01*
X130989931Y-68874305D01*
X132184451Y-68533014D01*
X132283302Y-68504771D01*
X132317367Y-68500000D01*
X135651408Y-68500000D01*
X135718447Y-68519685D01*
G37*
%TD.AperFunction*%
%TD*%
M02*
