%TF.GenerationSoftware,KiCad,Pcbnew,9.0.7-9.0.7~ubuntu24.04.1*%
%TF.CreationDate,2026-03-08T22:16:55+02:00*%
%TF.ProjectId,cc2500_dev_board,63633235-3030-45f6-9465-765f626f6172,rev?*%
%TF.SameCoordinates,Original*%
%TF.FileFunction,Paste,Top*%
%TF.FilePolarity,Positive*%
%FSLAX46Y46*%
G04 Gerber Fmt 4.6, Leading zero omitted, Abs format (unit mm)*
G04 Created by KiCad (PCBNEW 9.0.7-9.0.7~ubuntu24.04.1) date 2026-03-08 22:16:55*
%MOMM*%
%LPD*%
G01*
G04 APERTURE LIST*
G04 Aperture macros list*
%AMRoundRect*
0 Rectangle with rounded corners*
0 $1 Rounding radius*
0 $2 $3 $4 $5 $6 $7 $8 $9 X,Y pos of 4 corners*
0 Add a 4 corners polygon primitive as box body*
4,1,4,$2,$3,$4,$5,$6,$7,$8,$9,$2,$3,0*
0 Add four circle primitives for the rounded corners*
1,1,$1+$1,$2,$3*
1,1,$1+$1,$4,$5*
1,1,$1+$1,$6,$7*
1,1,$1+$1,$8,$9*
0 Add four rect primitives between the rounded corners*
20,1,$1+$1,$2,$3,$4,$5,0*
20,1,$1+$1,$4,$5,$6,$7,0*
20,1,$1+$1,$6,$7,$8,$9,0*
20,1,$1+$1,$8,$9,$2,$3,0*%
%AMFreePoly0*
4,1,5,0.300000,-0.500000,-0.300000,-0.500000,-0.300000,2.600000,0.300000,2.600000,0.300000,-0.500000,0.300000,-0.500000,$1*%
G04 Aperture macros list end*
%ADD10RoundRect,0.135000X-0.135000X-0.185000X0.135000X-0.185000X0.135000X0.185000X-0.135000X0.185000X0*%
%ADD11RoundRect,0.250000X0.475000X-0.250000X0.475000X0.250000X-0.475000X0.250000X-0.475000X-0.250000X0*%
%ADD12RoundRect,0.140000X0.170000X-0.140000X0.170000X0.140000X-0.170000X0.140000X-0.170000X-0.140000X0*%
%ADD13RoundRect,0.140000X0.140000X0.170000X-0.140000X0.170000X-0.140000X-0.170000X0.140000X-0.170000X0*%
%ADD14RoundRect,0.140000X-0.170000X0.140000X-0.170000X-0.140000X0.170000X-0.140000X0.170000X0.140000X0*%
%ADD15RoundRect,0.140000X-0.140000X-0.170000X0.140000X-0.170000X0.140000X0.170000X-0.140000X0.170000X0*%
%ADD16RoundRect,0.225000X-0.225000X-0.250000X0.225000X-0.250000X0.225000X0.250000X-0.225000X0.250000X0*%
%ADD17RoundRect,0.250000X-0.350000X0.450000X-0.350000X-0.450000X0.350000X-0.450000X0.350000X0.450000X0*%
%ADD18FreePoly0,180.000000*%
%ADD19RoundRect,0.135000X0.135000X0.185000X-0.135000X0.185000X-0.135000X-0.185000X0.135000X-0.185000X0*%
%ADD20RoundRect,0.250000X-0.250000X-0.475000X0.250000X-0.475000X0.250000X0.475000X-0.250000X0.475000X0*%
%ADD21R,0.600000X1.140000*%
%ADD22R,0.300000X1.140000*%
%ADD23RoundRect,0.242500X-0.242500X0.242500X-0.242500X-0.242500X0.242500X-0.242500X0.242500X0.242500X0*%
%ADD24RoundRect,0.062500X-0.062500X0.425000X-0.062500X-0.425000X0.062500X-0.425000X0.062500X0.425000X0*%
%ADD25RoundRect,0.062500X-0.425000X0.062500X-0.425000X-0.062500X0.425000X-0.062500X0.425000X0.062500X0*%
%ADD26R,1.295400X1.422400*%
%ADD27RoundRect,0.375000X0.625000X0.375000X-0.625000X0.375000X-0.625000X-0.375000X0.625000X-0.375000X0*%
%ADD28RoundRect,0.500000X0.500000X1.400000X-0.500000X1.400000X-0.500000X-1.400000X0.500000X-1.400000X0*%
%ADD29R,1.350000X1.800000*%
%ADD30RoundRect,0.075000X-0.662500X-0.075000X0.662500X-0.075000X0.662500X0.075000X-0.662500X0.075000X0*%
%ADD31RoundRect,0.075000X-0.075000X-0.662500X0.075000X-0.662500X0.075000X0.662500X-0.075000X0.662500X0*%
G04 APERTURE END LIST*
D10*
%TO.C,R2*%
X126690000Y-82800000D03*
X127710000Y-82800000D03*
%TD*%
D11*
%TO.C,C6*%
X145900000Y-75400000D03*
X145900000Y-73500000D03*
%TD*%
D12*
%TO.C,C5*%
X134300000Y-92060000D03*
X134300000Y-91100000D03*
%TD*%
D13*
%TO.C,C9*%
X133560000Y-106300000D03*
X132600000Y-106300000D03*
%TD*%
%TO.C,C18*%
X139460000Y-99100000D03*
X138500000Y-99100000D03*
%TD*%
D14*
%TO.C,C4*%
X146300000Y-87500000D03*
X146300000Y-88460000D03*
%TD*%
D15*
%TO.C,C19*%
X143295000Y-104875000D03*
X144255000Y-104875000D03*
%TD*%
D16*
%TO.C,C1*%
X136475000Y-83700000D03*
X138025000Y-83700000D03*
%TD*%
D12*
%TO.C,C2*%
X134700000Y-87380000D03*
X134700000Y-86420000D03*
%TD*%
D15*
%TO.C,C11*%
X128400000Y-87500000D03*
X129360000Y-87500000D03*
%TD*%
D17*
%TO.C,Y1*%
X132150000Y-102100000D03*
X132150000Y-104300000D03*
X133850000Y-104300000D03*
X133850000Y-102100000D03*
%TD*%
D15*
%TO.C,C10*%
X132620000Y-100000000D03*
X133580000Y-100000000D03*
%TD*%
D18*
%TO.C,A2*%
X141000000Y-107000000D03*
X138900000Y-107000000D03*
%TD*%
D15*
%TO.C,C20*%
X142520000Y-106100000D03*
X143480000Y-106100000D03*
%TD*%
D19*
%TO.C,R1*%
X144970000Y-103650000D03*
X143950000Y-103650000D03*
%TD*%
D13*
%TO.C,C15*%
X136660000Y-103350000D03*
X135700000Y-103350000D03*
%TD*%
D19*
%TO.C,R3*%
X133510000Y-76800000D03*
X132490000Y-76800000D03*
%TD*%
D13*
%TO.C,C21*%
X143380000Y-97000000D03*
X142420000Y-97000000D03*
%TD*%
%TO.C,C13*%
X131880000Y-82800000D03*
X130920000Y-82800000D03*
%TD*%
D20*
%TO.C,C7*%
X142950000Y-70200000D03*
X144850000Y-70200000D03*
%TD*%
D15*
%TO.C,C12*%
X128520000Y-91900000D03*
X129480000Y-91900000D03*
%TD*%
D21*
%TO.C,J3*%
X143150000Y-65950000D03*
X142350000Y-65950000D03*
D22*
X141200000Y-65950000D03*
X140200000Y-65950000D03*
X139700000Y-65950000D03*
X138700000Y-65950000D03*
D21*
X136750000Y-65950000D03*
X137550000Y-65950000D03*
D22*
X138200000Y-65950000D03*
X139200000Y-65950000D03*
X140700000Y-65950000D03*
X141700000Y-65950000D03*
%TD*%
D23*
%TO.C,U1*%
X140825000Y-102050000D03*
X139625000Y-102050000D03*
X140825000Y-103250000D03*
X139625000Y-103250000D03*
D24*
X141225000Y-100762500D03*
X140725000Y-100762500D03*
X140225000Y-100762500D03*
X139725000Y-100762500D03*
X139225000Y-100762500D03*
D25*
X138337500Y-101650000D03*
X138337500Y-102150000D03*
X138337500Y-102650000D03*
X138337500Y-103150000D03*
X138337500Y-103650000D03*
D24*
X139225000Y-104537500D03*
X139725000Y-104537500D03*
X140225000Y-104537500D03*
X140725000Y-104537500D03*
X141225000Y-104537500D03*
D25*
X142112500Y-103650000D03*
X142112500Y-103150000D03*
X142112500Y-102650000D03*
X142112500Y-102150000D03*
X142112500Y-101650000D03*
%TD*%
D15*
%TO.C,C3*%
X137120000Y-85200000D03*
X138080000Y-85200000D03*
%TD*%
D26*
%TO.C,Y2*%
X130900000Y-88400000D03*
X130900000Y-90584400D03*
%TD*%
D27*
%TO.C,U3*%
X143150000Y-77600000D03*
X143150000Y-75300000D03*
D28*
X136850000Y-75300000D03*
D27*
X143150000Y-73000000D03*
%TD*%
D14*
%TO.C,C17*%
X137400000Y-105450000D03*
X137400000Y-106410000D03*
%TD*%
D29*
%TO.C,SW1*%
X131275000Y-80400000D03*
X127125000Y-80400000D03*
%TD*%
D12*
%TO.C,C16*%
X144000000Y-102530000D03*
X144000000Y-101570000D03*
%TD*%
D13*
%TO.C,C8*%
X137360000Y-99800000D03*
X136400000Y-99800000D03*
%TD*%
D30*
%TO.C,U2*%
X136212500Y-88337500D03*
X136212500Y-88837500D03*
X136212500Y-89337500D03*
X136212500Y-89837500D03*
X136212500Y-90337500D03*
X136212500Y-90837500D03*
X136212500Y-91337500D03*
X136212500Y-91837500D03*
X136212500Y-92337500D03*
X136212500Y-92837500D03*
X136212500Y-93337500D03*
X136212500Y-93837500D03*
D31*
X137625000Y-95250000D03*
X138125000Y-95250000D03*
X138625000Y-95250000D03*
X139125000Y-95250000D03*
X139625000Y-95250000D03*
X140125000Y-95250000D03*
X140625000Y-95250000D03*
X141125000Y-95250000D03*
X141625000Y-95250000D03*
X142125000Y-95250000D03*
X142625000Y-95250000D03*
X143125000Y-95250000D03*
D30*
X144537500Y-93837500D03*
X144537500Y-93337500D03*
X144537500Y-92837500D03*
X144537500Y-92337500D03*
X144537500Y-91837500D03*
X144537500Y-91337500D03*
X144537500Y-90837500D03*
X144537500Y-90337500D03*
X144537500Y-89837500D03*
X144537500Y-89337500D03*
X144537500Y-88837500D03*
X144537500Y-88337500D03*
D31*
X143125000Y-86925000D03*
X142625000Y-86925000D03*
X142125000Y-86925000D03*
X141625000Y-86925000D03*
X141125000Y-86925000D03*
X140625000Y-86925000D03*
X140125000Y-86925000D03*
X139625000Y-86925000D03*
X139125000Y-86925000D03*
X138625000Y-86925000D03*
X138125000Y-86925000D03*
X137625000Y-86925000D03*
%TD*%
M02*
